<svg version="1.2" xmlns="http://www.w3.org/2000/svg" viewBox="0 0 354 104" width="354" height="104">
	<title>download-_1_-svg</title>
	<style>
		.s0 { fill: #21325b } 
	</style>
	<g id="Layer">
		<path id="Layer" fill-rule="evenodd" class="s0" d="m4.9 0h32.4c31.2 0 32.5 0.1 35.1 2.1l2.6 2 0.2 32.2 0.3 32.2 218.8 0.4-3.5-2.4c-4.3-2.9-4.8-5.1-4.8-19.5 0-12.4-1.1-16.7-4.6-17.6-5.5-1.4-11.4 2.7-15.5 10.9-2.3 4.4-4.9 15.4-4.9 20.8 0 4-1.1 4.9-6.1 4.9h-2.9v-18.8c0-17.3-0.2-19-1.9-20.6-1.9-1.7-1.9-1.6-1.4 2.3 1.2 9.1-7 15.1-24.8 18l-10.2 1.6 2.9 3.4c1.5 1.9 4.3 4 6.1 4.7 4.3 1.8 13.6 1.8 19.7-0.1 2.7-0.8 5.1-1.3 5.4-1 0.2 0.2 0.2 1.5-0.2 2.8-0.9 3.6-9.2 6.9-18.7 7.5-9.2 0.5-13.8-0.8-19-5.5l-3.9-3.5-0.9 2.5c-1.6 4.2-10.7 7-20.9 6.5-7.1-0.4-8.8-0.8-12.4-3.4-2.2-1.6-5-4.1-6.1-5.6-2.9-3.8-3.5-13.5-1.3-19.3 2-5.1 8.9-11.9 15.1-14.6 5.3-2.4 15-3.7 20.7-3l4.3 0.6-0.2 5.4c-0.2 3-0.5 5.6-0.7 5.9-0.3 0.2-2.3-1-4.4-2.7-3.1-2.4-5-3.1-8.4-3.1-9.7 0-17.7 7.6-17.8 16.8 0 12.7 12.3 19.3 27.8 14.7 4.9-1.5 5.2-1.7 4-3.8-1.7-3.3-1.4-13.6 0.5-17.4 5.7-10.9 23.1-19.2 33.9-16.2 2.4 0.7 5 1.2 5.8 1.1 0.8-0.1 5.3-0.5 9.9-1l8.3-0.8-0.7 8.5-0.7 8.6 4-5.3c8.3-11.2 17.2-14.4 25.1-9.3 3.5 2.2 5.1 7.1 5.1 15.3l0.1 7.3 2.5-5c3.5-7 9.8-13.1 17.1-16.7 5.2-2.5 7.3-3 13.7-3 6.9 0.1 7.6-0.1 7.6-1.9 0-1.9 0.1-1.9 4.1 0.2l4.1 2.1-0.7 10.1c-0.3 5.6-0.7 15.9-0.7 22.9 0 12.7-0.1 12.8-2.3 12.8-4.2 0-6.5-4.4-6.5-12.4v-7.1l-3.4 5c-4.8 7.2-11.7 13.2-16.1 14.1-8.9 1.6-15-1.3-18.6-9.1l-1.9-4v7c0 3.8 0.4 7.5 0.8 8.1 0.5 0.7 9.6 1.1 27.7 1.3 14.9 0.1 27.8 0.4 28.8 0.7 2 0.6 2.4 7.3 0.5 9.2-0.9 0.9-41.3 1.2-175.4 1.2-157.1 0-174.4-0.2-175.8-1.6-1.4-1.3-1.6-6.1-1.6-37.5v-36l2.5-2.4zm40.6 5.1c-3.7 0.4-10.5 3.2-10.5 4.4 0 3.5-4.2 12.8-16.9 37.5-7.5 14.5-13.7 26.8-13.9 27.2-0.7 1.6 5.5 0.7 7.4-1 1-1 3.7-5.1 5.9-9.2 5.4-9.9 7.7-10.9 24.1-11h12.1l4.3 10.5c2.5 5.8 4.7 10.5 5.1 10.5 2.2 0 8-3.3 7.6-4.3-0.2-0.7-5.8-15.5-12.3-33-6.5-17.4-12.3-31.7-12.9-31.6zm178 22.3c-1.6 0.7-4.1 2.5-5.3 3.9-2.4 2.5-5.4 9.6-4.6 10.8 0.5 0.8 8.5-0.7 14.5-2.6 7.2-2.4 11.5-8.7 8.2-12-1.8-1.9-8.7-1.9-12.8-0.1zm92 2.5c-7.9 3.5-12.6 11.7-11 18.9 1.8 8.3 12.2 10.2 19.6 3.5 6.5-5.9 13-21.4 9.8-23.4-2.5-1.6-14.1-1-18.4 1z"/>
		<path id="Layer" class="s0" d="m33.7 33.2c-3.1 6.1-5.6 11.2-5.4 11.4 0.1 0.2 5.2 0.6 11.2 1 10.4 0.7 10.8 0.6 10.1-1.2-2.6-7.2-9.1-22.4-9.6-22.4-0.3 0-3.1 5-6.3 11.2z"/>
		<path id="Layer" fill-rule="evenodd" class="s0" d="m159.1 18.1l4.2 2.1-0.7 9c-0.3 5-0.6 15.3-0.6 23v13.8h-2.5c-4 0-6.5-5.1-6.5-12.9v-6.5l-2.9 4.5c-3.9 6.1-9.8 11.9-13.7 13.5-7.7 3.2-16.3 0.8-20.5-5.8-1.6-2.7-1.9-4.5-1.6-9.4 0.2-3.3 1.2-7.7 2.2-9.8 3-6.4 10.1-13.3 17.2-16.8 5.8-2.8 7.6-3.2 14-3.1 6.6 0.1 7.3-0.1 7.3-1.8 0-1.9 0.1-1.9 4.1 0.2zm-6.6 10.4l-7.5-0.2c-9.1-0.3-14.1 1.6-18.8 7.2-5.1 6.3-5 15.1 0.2 19.4 2.8 2.4 10 1.8 14.5-1.2 4.7-3.1 11.3-15.4 11.5-21.4z"/>
		<path id="Layer" class="s0" d="m114.5 19.5c-0.5 0.2-2.2 0.6-3.7 0.9-3.3 0.7-9 5.6-13.1 11.1l-3 4 0.7-7.9 0.7-7.9-8.6 0.5c-4.7 0.3-8.9 0.8-9.2 1.1-0.3 0.3 1.1 2 3.1 3.7l3.6 3.2v18.9 18.9h3.3c1.7 0 3.7-0.4 4.3-0.8 0.6-0.4 1.4-3.9 1.7-7.8 1.6-17.1 8.9-27.4 19.5-27.4 2.6 0 3-0.4 3.6-3.8 1.1-7 0.7-7.9-2.9-6.7z"/>
	</g>
</svg>