<svg version="1.2" xmlns="http://www.w3.org/2000/svg" viewBox="0 0 173 29" width="173" height="29">
	<title>Comscore-svg</title>
	<style>
		.s0 { fill: #21325b } 
	</style>
	<path id="Layer" class="s0" d="m27 8.2v9.8l-19.6 2v5.5l27 2.7v-20.8z"/>
	<path id="Layer" class="s0" d="m0 0v20.7l7.4-0.8v-9.8l19.6-1.9v-5.5z"/>
	<path id="Layer" class="s0" d="m27 8.2l-19.6 1.9v9.8l19.6-2z"/>
	<path id="Layer" class="s0" d="m48 15.3q0-1.4 0.6-2.7 0.5-1.3 1.5-2.3 1-1 2.2-1.5 1.3-0.5 2.7-0.5h0.1q1-0.1 2 0.2 1 0.3 1.8 0.8 0.9 0.6 1.5 1.4 0.7 0.8 1.1 1.7l-2.6 1.1q-0.2-0.6-0.6-1-0.4-0.5-0.9-0.9-0.5-0.3-1.1-0.5-0.6-0.1-1.2-0.1-0.9 0-1.6 0.3-0.8 0.3-1.4 0.9-0.6 0.6-0.9 1.4-0.3 0.7-0.3 1.6c0 0.5 0 0 0 0.1q-0.1 0.8 0.3 1.6 0.3 0.8 0.9 1.4 0.5 0.6 1.3 0.9 0.8 0.4 1.7 0.4 0.7 0 1.2-0.2 0.6-0.2 1.1-0.5 0.6-0.4 0.9-0.9 0.4-0.5 0.6-1.1l2.7 1.1q-0.4 1-1.1 1.8-0.7 0.8-1.5 1.4-0.9 0.5-1.9 0.8-1 0.3-2 0.3-1.4 0-2.7-0.5-1.3-0.6-2.3-1.5-1-1-1.5-2.3-0.6-1.3-0.6-2.7"/>
	<path id="Layer" fill-rule="evenodd" class="s0" d="m63.9 15.3c0-2.9 1.7-5.4 4.3-6.5 2.6-1.1 5.6-0.5 7.6 1.5 2 2 2.6 5 1.5 7.6-1.1 2.7-3.6 4.4-6.4 4.4q-1.4 0-2.7-0.6-1.3-0.5-2.3-1.5-1-1-1.5-2.3-0.5-1.2-0.5-2.6zm11.1 0c0-1.7-1-3.2-2.5-3.9-1.6-0.6-3.4-0.3-4.6 0.9-1.2 1.2-1.5 3-0.9 4.5 0.7 1.6 2.2 2.6 3.9 2.6q0.8 0 1.6-0.3 0.7-0.3 1.3-0.9 0.6-0.6 0.9-1.4 0.3-0.7 0.3-1.5z"/>
	<path id="Layer" class="s0" d="m80.2 8.5h2.9v1.6q0.3-0.4 0.7-0.8 0.5-0.4 1-0.6 0.5-0.3 1.1-0.4 0.6-0.1 1.2-0.1 0.6 0 1.3 0.1 0.6 0.2 1.2 0.5 0.6 0.3 1.1 0.8 0.5 0.5 0.8 1.1 0.4-0.6 0.9-1.1 0.5-0.4 1.1-0.7 0.6-0.3 1.2-0.5 0.7-0.2 1.3-0.1c3.7 0 5.6 2.2 5.6 5.6v8.1h-2.9v-7.9c0-2-1.1-3.3-3.1-3.3-1.9 0-3.3 1.2-3.3 3.6v7.6h-2.9v-8q0.1-0.7-0.1-1.3-0.2-0.6-0.6-1.1-0.5-0.4-1.1-0.7-0.6-0.2-1.2-0.1c-1.9 0-3.3 1.2-3.3 3.7v7.5h-2.9z"/>
	<path id="Layer" class="s0" d="m117.6 15.3q0-1.4 0.5-2.7 0.6-1.3 1.6-2.3 0.9-1 2.2-1.5 1.3-0.5 2.7-0.5h0.1q1-0.1 2 0.2 0.9 0.3 1.8 0.8 0.9 0.6 1.5 1.4 0.7 0.8 1.1 1.7l-2.6 1.1q-0.3-0.6-0.6-1-0.4-0.5-0.9-0.9-0.5-0.3-1.1-0.5-0.6-0.1-1.2-0.1-0.9 0-1.7 0.3-0.7 0.3-1.3 0.9-0.6 0.6-0.9 1.4-0.4 0.7-0.4 1.6c0 0.5 0 0 0 0.1q0 0.8 0.3 1.6 0.4 0.8 0.9 1.4 0.6 0.6 1.4 0.9 0.8 0.4 1.6 0.4h0.1q0.6 0 1.2-0.2 0.6-0.2 1.1-0.5 0.5-0.4 0.9-0.9 0.4-0.5 0.6-1.1l2.6 1.1q-0.4 1-1 1.8-0.7 0.8-1.5 1.4-0.9 0.5-1.9 0.8-1 0.3-2 0.3-1.4 0-2.7-0.5-1.3-0.6-2.3-1.5-1-1-1.5-2.3-0.6-1.3-0.6-2.7z"/>
	<path id="Layer" fill-rule="evenodd" class="s0" d="m132.9 15.3c0-2.9 1.7-5.4 4.3-6.5 2.6-1.1 5.6-0.5 7.6 1.5 2.1 2 2.7 5 1.6 7.6-1.1 2.7-3.7 4.4-6.5 4.4q-1.4 0-2.7-0.6-1.3-0.5-2.2-1.5-1-1-1.6-2.3-0.5-1.2-0.5-2.6zm11.2 0c0-1.7-1-3.2-2.6-3.9-1.5-0.6-3.3-0.3-4.5 0.9-1.2 1.2-1.6 3-0.9 4.5 0.6 1.6 2.1 2.6 3.8 2.6q0.8 0 1.6-0.3 0.8-0.3 1.4-0.9 0.5-0.6 0.9-1.4 0.3-0.7 0.3-1.5z"/>
	<path id="Layer" class="s0" d="m149.2 8.5h2.9v2.1q0.2-0.5 0.6-0.9 0.4-0.4 0.9-0.7 0.5-0.3 1.1-0.4 0.5-0.1 1.1-0.1h1.6v2.8h-2c-2.4 0-3.3 1.2-3.3 4v6.7h-2.9z"/>
	<path id="Layer" fill-rule="evenodd" class="s0" d="m159 15.3q0-1.4 0.5-2.7 0.5-1.2 1.5-2.2 1-1 2.3-1.6 1.3-0.5 2.6-0.5h0.1q1.4-0.1 2.6 0.4 1.2 0.4 2.2 1.3 1 0.9 1.6 2.2 0.5 1.2 0.6 2.5 0 0.2 0 0.4v1.2h-11.2q0.1 0.7 0.5 1.4 0.4 0.6 1 1.1 0.6 0.5 1.3 0.7 0.8 0.3 1.5 0.2 0.7 0 1.3-0.1 0.6-0.2 1.1-0.5 0.5-0.3 1-0.8 0.4-0.5 0.6-1l2.4 1.3c-0.8 1.4-2 2.5-3.4 3.1-1.5 0.6-3.1 0.8-4.6 0.4-1.5-0.4-2.9-1.3-3.9-2.5-1-1.2-1.5-2.8-1.6-4.3m2.9-1.5h8.1q-0.1-0.7-0.5-1.3-0.3-0.5-0.9-0.9-0.5-0.5-1.2-0.7-0.7-0.1-1.4-0.1-0.6 0-1.3 0.2-0.7 0.2-1.2 0.6-0.6 0.4-1 1-0.4 0.5-0.6 1.2z"/>
	<path id="Layer" class="s0" d="m104.1 19.1l2.6-1.3q0.3 0.4 0.7 0.8 0.3 0.4 0.8 0.6 0.4 0.3 0.9 0.4 0.6 0.2 1.1 0.2c1.6 0 2.4-0.9 2.4-1.8 0-1-1.5-1.4-3.2-1.7-2.3-0.5-4.7-1.3-4.7-4 0-2.2 2-4.2 5.2-4.1q0.8-0.1 1.6 0.1 0.8 0.1 1.5 0.5 0.7 0.3 1.3 0.8 0.6 0.6 1 1.2l-2.4 1.3q-0.2-0.3-0.5-0.6-0.4-0.3-0.8-0.5-0.4-0.2-0.8-0.3-0.4-0.1-0.9-0.1c-1.5 0-2.3 0.7-2.3 1.6 0 0.9 1.2 1.2 3.2 1.7 2.2 0.5 4.7 1.2 4.7 4 0 1.8-1.6 4.4-5.4 4.3q-0.9 0.1-1.8-0.1-0.9-0.2-1.6-0.6-0.8-0.4-1.5-1-0.6-0.6-1-1.4"/>
</svg>