<svg version="1.2" xmlns="http://www.w3.org/2000/svg" viewBox="0 0 540 123" width="540" height="123">
	<title>WordPress_logo (1)-svg</title>
	<style>
		.s0 { fill: #21325b } 
	</style>
	<g id="Layer_1">
	</g>
	<g id="Layer_2">
		<g id="Layer">
			<path id="Layer" fill-rule="evenodd" class="s0" d="m337.5 67.9c0 10.8-7.3 19.9-24.3 19.9h-34.6l-13.1-16.5h-2.1v4.2c0 8.5 1.1 10 7.8 10v2.3h-23.7v-2.3c6.7 0 7.7-1.5 7.7-10v-15.2c0-8.4-1-9.8-7.7-9.8v-2.3h20.9c10.5 0 16.1 5 16.1 11.5 0 5.3-4 9.9-11.3 11.2l5.4 5.9c4.8 5.3 8.2 8 13.3 8.7 6.7 0 7.8-1.5 7.8-10v-15.2c0-8.4-1.1-9.8-7.8-9.8v-2.3h21.3c17 0 24.3 8.9 24.3 19.7zm-69.2-0.3c5.3 0 7.7-3.7 7.7-7.9 0-4.2-2.4-7.9-7.7-7.9h-4.9v15.8c0 0 4.9 0 4.9 0zm59.9 0.2c0-7-2.3-16-14.7-16-0.4 0-5.7 0-5.7 0v25.8c0 5.4 0.6 6.5 4.9 6.5h0.8c12.4 0 14.7-9 14.7-16.3z"/>
			<path id="Layer" class="s0" d="m181.4 70l8.2-24.2c2.3-7.1 1.3-9.1-6.3-9.1v-2.3h22.3v2.3c-7.5 0-9.3 1.8-12.2 10.5l-13.6 40.6h-1.5l-12.1-37.2-12.4 37.2h-1.5l-13.2-40.6c-2.8-8.7-4.7-10.5-11.6-10.5v-2.3h26.3v2.3c-7 0-8.9 1.7-6.4 9.1l8 24.2 12-35.6h2.2z"/>
			<path id="Layer" fill-rule="evenodd" class="s0" d="m221.8 87.3c-13.1 0-23.8-9.6-23.8-21.4 0-11.6 10.7-21.2 23.8-21.2 13 0 23.7 9.6 23.7 21.2 0 11.8-10.7 21.4-23.7 21.4zm0-38.9c-11 0-14.8 9.8-14.8 17.5 0 7.9 3.8 17.6 14.8 17.6 11 0 14.8-9.7 14.8-17.6 0-7.7-3.8-17.5-14.8-17.5z"/>
			<path id="Layer" fill-rule="evenodd" class="s0" d="m366.9 85.4v2.4h-27.2v-2.4c7.9 0 9.4-2 9.4-13.9v-19c0-11.9-1.5-13.8-9.4-13.8v-2.4h24.6c12.2 0 19 6.3 19 14.8 0 8.2-6.8 14.6-19 14.6h-6.8v5.8c0 11.9 1.4 13.9 9.4 13.9zm-2.6-44.8h-6.8v20.7h6.8c6.6 0 9.7-4.6 9.7-10.2 0-5.7-3.1-10.5-9.7-10.5z"/>
			<path id="Layer" fill-rule="evenodd" class="s0" d="m466.6 76.6l-0.7 11.2h-48.8l-13.2-16.5h-2v4.2c0 8.5 1.1 10 7.7 10v2.3h-23.6v-2.3c6.6 0 7.7-1.5 7.7-10v-15.2c0-8.4-1.1-9.8-7.7-9.8v-2.3h20.9c10.4 0 16 5 16 11.5 0 5.3-3.9 9.9-11.3 11.2l5.5 5.9c4.7 5.2 8.1 7.9 13.1 8.7 5.2-0.3 6.1-2.2 6.1-10v-15.2c0-8.4-1-9.8-7.7-9.8v-2.3h34.9l0.9 11.2h-1.9l-0.6-2.3c-1.1-3.9-2.4-5.3-10.8-5.3h-6.6v13.3c9.3 0 10-0.8 10-7h2.3v17.7h-2.3c0-6.2-0.7-7-10-7v5.4c0 8.5 1.1 9.9 7.3 9.9h1.6c8.5 0 9.8-1.4 10.8-5.4l0.6-2.1c0 0 1.8 0 1.8 0zm-59.8-9c5.3 0 7.7-3.7 7.7-7.9 0-4.2-2.4-7.9-7.7-7.9h-4.9v15.8c0 0 4.9 0 4.9 0z"/>
			<path id="Layer" class="s0" d="m488.9 89.3c-4.7 0-8.9-2.5-10.6-4-0.6 0.6-1.7 2.4-1.9 4h-2.3v-16.4h2.4c0.9 7.9 6.4 12.5 13.4 12.5 3.8 0 6.9-2.1 6.9-5.7 0-3.1-2.8-5.5-7.6-7.7l-6.8-3.2c-4.7-2.3-8.3-6.2-8.3-11.4 0-5.7 5.3-10.6 12.7-10.6 3.9 0 7.2 1.4 9.3 3.1 0.6-0.5 1.2-1.8 1.5-3.2h2.3v14h-2.5c-0.9-5.6-3.9-10.2-10.2-10.2-3.4 0-6.5 1.9-6.5 4.9 0 3 2.5 4.7 8.2 7.3l6.6 3.2c5.7 2.8 7.9 7.1 7.9 10.7 0 7.5-6.5 12.7-14.5 12.7z"/>
			<path id="Layer" class="s0" d="m525.5 89.3c-4.7 0-8.9-2.5-10.7-4-0.6 0.6-1.6 2.4-1.9 4h-2.2v-16.4h2.3c1 7.9 6.5 12.5 13.5 12.5 3.8 0 6.9-2.1 6.9-5.7 0-3.1-2.8-5.5-7.6-7.7l-6.8-3.2c-4.8-2.3-8.3-6.2-8.3-11.4 0-5.7 5.3-10.6 12.7-10.6 3.9 0 7.2 1.4 9.2 3.1 0.6-0.5 1.2-1.8 1.6-3.2h2.2v14h-2.5c-0.8-5.6-3.9-10.2-10.2-10.2-3.3 0-6.4 1.9-6.4 4.9 0 3 2.5 4.7 8.2 7.3l6.5 3.2c5.7 2.8 8 7.1 8 10.7 0 7.5-6.5 12.7-14.5 12.7z"/>
			<g id="Layer">
				<path id="Layer" class="s0" d="m8.7 61.3c0 20.8 12.1 38.7 29.6 47.3l-25-68.7c-3 6.5-4.6 13.7-4.6 21.4z"/>
				<path id="Layer" class="s0" d="m96.7 58.6c0-6.5-2.3-11-4.3-14.5-2.7-4.3-5.2-8-5.2-12.3 0-4.8 3.7-9.3 8.9-9.3q0.3 0 0.7 0c-9.4-8.6-21.9-13.8-35.5-13.8-18.4 0-34.6 9.4-43.9 23.7 1.2 0 2.3 0.1 3.3 0.1 5.5 0 14-0.7 14-0.7 2.9-0.2 3.2 4 0.4 4.3 0 0-2.9 0.4-6 0.5l19.1 56.9 11.5-34.4-8.2-22.5c-2.8-0.1-5.5-0.5-5.5-0.5-2.8-0.1-2.5-4.5 0.3-4.3 0 0 8.7 0.7 13.9 0.7 5.5 0 14-0.7 14-0.7 2.8-0.2 3.2 4 0.3 4.3 0 0-2.8 0.4-6 0.5l19 56.5 5.2-17.5c2.3-7.3 4-12.5 4-17z"/>
				<path id="Layer" class="s0" d="m62.2 65.9l-15.8 45.8c4.7 1.4 9.7 2.1 14.9 2.1 6.1 0 12-1 17.4-3q-0.2-0.3-0.4-0.7z"/>
				<path id="Layer" class="s0" d="m107.4 36q0.3 2.6 0.3 5.5c0 5.3-1 11.3-4 18.8l-16 46.4c15.6-9.1 26.1-26.1 26.1-45.4 0-9.2-2.3-17.8-6.4-25.3z"/>
				<path id="Layer" fill-rule="evenodd" class="s0" d="m122.5 61.3c0 33.7-27.5 61.2-61.2 61.2-33.8 0-61.3-27.5-61.3-61.2 0-33.8 27.5-61.3 61.3-61.3 33.7 0 61.2 27.5 61.2 61.3zm-2.8 0c0-32.3-26.2-58.5-58.4-58.5-32.3 0-58.5 26.2-58.5 58.5 0 32.2 26.2 58.4 58.5 58.4 32.2 0 58.4-26.2 58.4-58.4z"/>
			</g>
		</g>
	</g>
</svg>