<svg version="1.2" xmlns="http://www.w3.org/2000/svg" viewBox="0 0 155 47" width="155" height="47">
	<title>logo-svg</title>
	<defs>
		<clipPath clipPathUnits="userSpaceOnUse" id="cp1">
			<path d="m0 0h154.9v46.1h-154.9z"/>
		</clipPath>
	</defs>
	<style>
		.s0 { opacity: .7;fill: #377dff } 
		.s1 { opacity: .5;fill: #00dffc } 
		.s2 { fill: #000000;stroke: #000000 } 
		.s3 { fill: #377dff;stroke: #377dff } 
		.s4 { fill: #ffffff } 
	</style>
	<g id="Clip-Path" clip-path="url(#cp1)">
		<g id="Layer">
			<path id="Layer" class="s0" d="m18 39.1c-9.9 0-18-8-18-18 0-9.9 8-18 18-18h11.3c3.7 0 6.6 3 6.6 6.6v11.4c0.1 9.9-8 18-17.9 18z"/>
			<path id="Layer" class="s1" d="m23 39c-9.9 0-18-8-18-18 0-9.9 8-18 18-18h11.3c3.7 0.1 6.7 3.1 6.7 6.7v11.4c0 9.9-8 17.9-18 17.9z"/>
			<path id="Layer" class="s0" d="m18 46.1c-10 0-18-8-18-18 0-9.9 8-18 18-18h11.3c3.7 0 6.6 3 6.6 6.6v11.4c0 10-8 18-17.9 18z"/>
		</g>
		<path id="Bot" class="s2" aria-label="Bot"  d="m119 26.6h-4.2v6.5h4.2q2.2 0 3.2-0.8 1-0.8 1-2.5 0-1.6-1-2.4-1-0.8-3.2-0.8zm-0.3-7.2h-3.9v5.3h3.9q2 0 2.9-0.6 1-0.7 1-2 0-1.3-1-2-0.9-0.7-2.9-0.7zm-6.6 15.6v-17.5h6.8q3 0 4.7 1.1 1.6 1.2 1.6 3.2 0 1.6-0.8 2.6-0.9 0.9-2.5 1.2 2 0.3 3 1.5 1.1 1.2 1.1 3 0 2.3-1.7 3.6-1.8 1.3-5.1 1.3zm24-11.6q-1.9 0-3.1 1.3-1.1 1.4-1.1 3.7 0 2.4 1.1 3.8 1.1 1.3 3.1 1.3 1.9 0 3.1-1.3 1.1-1.4 1.1-3.8 0-2.3-1.1-3.6-1.2-1.4-3.1-1.4zm0-1.8q3.2 0 5 1.8 1.8 1.8 1.8 5 0 3.3-1.8 5.1-1.8 1.8-5 1.8-3.2 0-5-1.8-1.7-1.8-1.7-5.1 0-3.2 1.7-5 1.8-1.8 5-1.8zm10.7-3.5h2.4v3.8h5v1.7h-5v7.1q0 1.6 0.5 2 0.5 0.5 2 0.5h2.5v1.8h-2.5q-2.8 0-3.8-0.9-1.1-1-1.1-3.4v-7.1h-1.8v-1.7h1.8z"/>
		<path id="raffic" class="s3" aria-label="raffic"  d="m51.5 21.9v2.2q-0.4-0.2-0.9-0.3-0.5-0.1-1-0.1-2.1 0-3.2 1.2-1 1.2-1 3.4v6.9h-2.5v-13.1h2.5v2.1q0.7-1.2 1.9-1.8 1.3-0.6 3-0.6 0.2 0 0.5 0 0.3 0.1 0.7 0.1zm11.6 6.8h-2.4q-2.9 0-4.1 0.5-1.1 0.6-1.1 2.1 0 1.1 0.9 1.8 0.8 0.7 2.2 0.7 2.1 0 3.3-1.3 1.2-1.3 1.2-3.4zm2.4-0.9v7.5h-2.4v-2q-0.8 1.2-2.1 1.8-1.2 0.6-3 0.6-2.2 0-3.6-1.2-1.3-1.1-1.3-3 0-2.2 1.7-3.3 1.6-1.2 4.9-1.2h3.4v-0.2q0-1.5-1.1-2.3-1.1-0.8-3.1-0.8-1.2 0-2.4 0.3-1.2 0.3-2.3 0.8v-2q1.3-0.5 2.5-0.7 1.3-0.2 2.5-0.2 3.1 0 4.7 1.5 1.6 1.4 1.6 4.4zm10.1-10.7h2.2v1.8h-2.3q-1.3 0-1.8 0.5-0.5 0.4-0.5 1.6v1.2h6.7v-0.9q0-2.2 1.1-3.2 0.3-0.3 0.9-0.5 1-0.5 2.7-0.5h2.3v1.8h-2.3q-1.3 0-1.8 0.5-0.5 0.4-0.5 1.6v1.2h9v13.1h-2.4v-11.4h-6.6v11.4h-2.4v-11.4h-6.7v11.4h-2.4v-11.4h-2.3v-1.7h2.3v-0.9q0-2.2 1.2-3.2 1.1-1 3.6-1zm13.3 2.7v-2.7h2.4v2.7zm18 2.9v2q-1-0.5-2.1-0.7-1-0.3-2-0.3-2.4 0-3.7 1.4-1.3 1.3-1.3 3.7 0 2.4 1.3 3.7 1.3 1.3 3.7 1.3 1 0 2-0.2 1.1-0.3 2.1-0.8v2q-1 0.4-2.1 0.7-1.1 0.2-2.3 0.2-3.3 0-5.3-1.9-1.9-1.9-1.9-5 0-3.2 2-5.1 1.9-1.8 5.3-1.8 1.2 0 2.2 0.2 1.1 0.2 2.1 0.6z"/>
		<path id="T" class="s4" aria-label="T"  d="m12.1 20.3v-3.5h16.8v3.5h-6v14.7h-4.7v-14.7z"/>
	</g>
</svg>