<svg version="1.2" xmlns="http://www.w3.org/2000/svg" viewBox="0 0 155 47" width="155" height="47">
	<title>logo-svg</title>
	<defs>
		<clipPath clipPathUnits="userSpaceOnUse" id="cp1">
			<path d="m0 0h154.9v46.1h-154.9z"/>
		</clipPath>
	</defs>
	<style>
		.s0 { opacity: .7;fill: #377dff } 
		.s1 { opacity: .5;fill: #00dffc } 
		.s2 { fill: #ffffff;stroke: #ffffff } 
		.s3 { fill: #377dff;stroke: #377dff } 
		.s4 { fill: #ffffff } 
	</style>
	<g id="Clip-Path" clip-path="url(#cp1)">
		<g id="Layer">
			<path id="Layer" class="s0" d="m18 39.1c-9.9 0-18-8-18-18 0-9.9 8-18 18-18h11.3c3.7 0 6.6 3 6.6 6.6v11.4c0.1 9.9-8 18-17.9 18z"/>
			<path id="Layer" class="s1" d="m23 39c-9.9 0-18-8-18-18 0-9.9 8-18 18-18h11.3c3.7 0.1 6.7 3.1 6.7 6.7v11.4c0 9.9-8 17.9-18 17.9z"/>
			<path id="Layer" class="s0" d="m18 46.1c-10 0-18-8-18-18 0-9.9 8-18 18-18h11.3c3.7 0 6.6 3 6.6 6.6v11.4c0 10-8 18-17.9 18z"/>
		</g>
		<path id="Bot" class="s2" aria-label="Bot"  d="m113.7 25.9h-4.1v7h4.1q2.1 0 3.1-0.9 1-0.8 1-2.6 0-1.8-1-2.6-1-0.9-3.1-0.9zm-0.3-7.7h-3.8v5.7h3.8q1.9 0 2.8-0.7 0.9-0.7 0.9-2.2 0-1.4-0.9-2.1-0.9-0.7-2.8-0.7zm-6.3 16.8v-19h6.5q2.9 0 4.5 1.3 1.6 1.2 1.6 3.4 0 1.8-0.8 2.8-0.8 1-2.4 1.3 1.9 0.4 2.9 1.7 1.1 1.3 1.1 3.2 0 2.5-1.7 3.9-1.8 1.4-4.9 1.4zm23.2-12.6q-1.9 0-3 1.5-1.1 1.5-1.1 4 0 2.6 1.1 4 1.1 1.5 3 1.5 1.9 0 3-1.5 1.1-1.5 1.1-4 0-2.5-1.1-4-1.1-1.5-3-1.5zm0-2q3 0 4.8 2 1.7 2 1.7 5.5 0 3.5-1.7 5.5-1.8 2-4.8 2-3.1 0-4.8-2-1.7-2-1.7-5.5 0-3.5 1.7-5.5 1.7-2 4.8-2zm10.4-3.7h2.3v4.1h4.8v1.8h-4.8v7.7q0 1.8 0.5 2.2 0.5 0.5 1.9 0.5h2.4v2h-2.4q-2.7 0-3.7-1-1-1-1-3.7v-7.7h-1.8v-1.8h1.8z"/>
		<path id="raffic" class="s3" aria-label="raffic"  d="m51.6 20.6v2.4q-0.3-0.3-0.8-0.4-0.4-0.1-0.9-0.1-1.8 0-2.7 1.3-1 1.3-1 3.7v7.5h-2.1v-14.2h2.1v2.2q0.7-1.3 1.8-1.9 1-0.7 2.5-0.7 0.3 0 0.5 0.1 0.3 0 0.6 0.1zm10.1 7.3h-2.1q-2.5 0-3.5 0.6-1 0.6-1 2.2 0 1.3 0.8 2 0.7 0.7 2 0.7 1.7 0 2.8-1.4 1-1.3 1-3.6zm2.1-1v8.1h-2.1v-2.1q-0.7 1.3-1.8 1.9-1 0.6-2.6 0.6-2 0-3.1-1.2-1.2-1.3-1.2-3.3 0-2.4 1.5-3.6 1.4-1.3 4.3-1.3h2.9v-0.2q0-1.6-0.9-2.5-1-0.9-2.7-0.9-1.1 0-2.1 0.3-1.1 0.3-2.1 0.9v-2.2q1.2-0.4 2.3-0.7 1.1-0.2 2.1-0.2 2.8 0 4.2 1.6 1.3 1.6 1.3 4.8zm8.8-11.6h2v1.9h-2q-1.1 0-1.6 0.5-0.4 0.5-0.4 1.8v1.3h5.8v-1q0-2.4 1-3.4 0.3-0.4 0.7-0.6 0.9-0.5 2.4-0.5h2v1.9h-2q-1.1 0-1.6 0.5-0.4 0.5-0.4 1.8v1.3h7.9v14.2h-2.1v-12.4h-5.8v12.4h-2.1v-12.4h-5.8v12.4h-2.1v-12.4h-2v-1.8h2v-1q0-2.4 1-3.4 1-1.1 3.1-1.1zm11.7 2.9v-2.9h2.1v2.9zm15.7 3.1v2.2q-0.9-0.5-1.8-0.8-0.9-0.3-1.8-0.3-2.1 0-3.2 1.5-1.1 1.4-1.1 4 0 2.6 1.1 4.1 1.1 1.4 3.2 1.4 0.9 0 1.8-0.3 0.9-0.2 1.8-0.8v2.2q-0.9 0.4-1.8 0.7-1 0.2-2 0.2-2.9 0-4.6-2-1.7-2-1.7-5.5 0-3.5 1.7-5.4 1.7-2 4.7-2 1 0 1.9 0.2 0.9 0.2 1.8 0.6z"/>
		<path id="T" class="s4" aria-label="T"  d="m12.1 20.3v-3.5h16.8v3.5h-6v14.7h-4.7v-14.7z"/>
	</g>
</svg>