<svg xmlns="http://www.w3.org/2000/svg" xmlns:xlink="http://www.w3.org/1999/xlink" version="1.1" width="1000" height="1000" viewBox="0 0 1000 1000" xml:space="preserve">
<desc>Created with Fabric.js 3.5.0</desc>
<defs>
</defs>
<rect x="0" y="0" width="100%" height="100%" fill="#ffffff"/>
<g transform="matrix(6.734 0 0 6.734 499.9995 499.9998)" id="639319">
<g style="" vector-effect="non-scaling-stroke">
		<g transform="matrix(1 0 0 1 65.5715 -6.3)" clip-path="url(#CLIPPATH_172)">
<clipPath id="CLIPPATH_172">
	<rect transform="matrix(1 0 0 1 -65.5716 6.3)" id="clip0" x="-67.5" y="-35" rx="0" ry="0" width="135" height="70"/>
</clipPath>
<path style="stroke: none; stroke-width: 1; stroke-dasharray: none; stroke-linecap: butt; stroke-dashoffset: 0; stroke-linejoin: miter; stroke-miterlimit: 4; is-custom-font: none; font-file-url: none; fill: rgb(33,50,91); fill-rule: evenodd; opacity: 1;" transform=" translate(-133.0716, -28.7)" d="M 133.386 25.2999 C 132.886 25.8999 132.386 26.5999 131.986 27.2999 C 131.586 28.0999 131.386 29 131.386 29.9 C 131.286 31 131.486 32.1 131.386 33.2 C 132.186 32.4 132.886 31.5 133.386 30.5 C 133.686 30 133.986 29.5 134.086 29 C 134.286 28.4 134.286 27.8 134.286 27.2 C 134.286 26.9 134.286 26.6 134.286 26.4 C 134.286 26.1 134.586 25.8 134.586 25.4 C 134.686 25 134.586 24.6 134.786 24.2 C 134.286 24.4 133.886 24.8 133.586 25.1 C 133.486 25.2 133.386 25.1999 133.386 25.2999 Z" stroke-linecap="round"/>
</g>
		<g transform="matrix(1 0 0 1 65.386 1.1999)" clip-path="url(#CLIPPATH_173)">
<clipPath id="CLIPPATH_173">
	<rect transform="matrix(1 0 0 1 -65.386 -1.1999)" id="clip0" x="-67.5" y="-35" rx="0" ry="0" width="135" height="70"/>
</clipPath>
<path style="stroke: none; stroke-width: 1; stroke-dasharray: none; stroke-linecap: butt; stroke-dashoffset: 0; stroke-linejoin: miter; stroke-miterlimit: 4; is-custom-font: none; font-file-url: none; fill: rgb(33,50,91); fill-rule: evenodd; opacity: 1;" transform=" translate(-132.886, -36.1999)" d="M 134.486 35.6999 C 134.386 36.3999 134.086 36.9999 133.786 37.5999 C 133.586 37.8999 133.386 38.1999 133.086 38.4999 C 132.786 38.7999 132.386 39.0999 132.086 39.2999 C 131.786 39.4999 131.586 39.5999 131.286 39.6999 C 131.086 39.7999 130.886 39.8999 130.686 39.9999 C 130.786 39.7999 130.786 39.4999 130.786 39.2999 C 130.786 38.9999 130.886 38.6999 130.986 38.2999 C 131.086 37.6999 131.186 37.1999 131.486 36.6999 C 131.686 36.1999 131.986 35.6999 132.186 35.1999 C 132.486 34.6999 132.886 34.2999 133.286 33.8999 C 133.586 33.5999 133.886 33.2999 134.286 33.0999 C 134.586 32.8999 134.886 32.6999 135.086 32.3999 C 134.786 32.7999 134.886 33.5999 134.886 34.0999 C 134.686 34.5999 134.586 35.1999 134.486 35.6999 Z" stroke-linecap="round"/>
</g>
		<g transform="matrix(1 0 0 1 52.7782 17.0035)" clip-path="url(#CLIPPATH_174)">
<clipPath id="CLIPPATH_174">
	<rect transform="matrix(1 0 0 1 -52.7782 -17.0035)" id="clip0" x="-67.5" y="-35" rx="0" ry="0" width="135" height="70"/>
</clipPath>
<path style="stroke: none; stroke-width: 1; stroke-dasharray: none; stroke-linecap: butt; stroke-dashoffset: 0; stroke-linejoin: miter; stroke-miterlimit: 4; is-custom-font: none; font-file-url: none; fill: rgb(33,50,91); fill-rule: evenodd; opacity: 1;" transform=" translate(-120.2782, -52.0035)" d="M 121.086 56 C 121.286 54.9 121.686 53.8 121.586 52.7 C 121.486 51.4 120.686 50.4 120.486 49.1 C 120.386 48.7 120.386 48.4 120.586 48 C 120.386 48.2 120.186 48.3 119.986 48.6 C 119.786 48.8 119.686 49.1 119.486 49.4 C 119.286 49.9 119.186 50.4 119.086 50.9 C 118.886 52 118.886 53.4 119.286 54.4 C 119.586 55.1 120.186 56.1 121.086 56 C 121.086 55.8 121.186 55.6 121.186 55.4 L 121.086 56 Z" stroke-linecap="round"/>
</g>
		<g transform="matrix(1 0 0 1 49.2294 22.1)" clip-path="url(#CLIPPATH_175)">
<clipPath id="CLIPPATH_175">
	<rect transform="matrix(1 0 0 1 -49.2294 -22.1)" id="clip0" x="-67.5" y="-35" rx="0" ry="0" width="135" height="70"/>
</clipPath>
<path style="stroke: none; stroke-width: 1; stroke-dasharray: none; stroke-linecap: butt; stroke-dashoffset: 0; stroke-linejoin: miter; stroke-miterlimit: 4; is-custom-font: none; font-file-url: none; fill: rgb(33,50,91); fill-rule: evenodd; opacity: 1;" transform=" translate(-116.7294, -57.1)" d="M 115.586 59.3 C 115.786 59.9 116.086 60.4 116.486 60.8 C 116.586 60.9 116.686 61 116.786 61.2 C 116.886 61.1 116.786 60.9 116.886 60.7 C 116.986 60.4 117.186 60.1 117.486 59.9 C 117.786 59.4 117.986 58.8 118.086 58.2 C 118.186 57.5 118.086 56.9 117.986 56.2 C 117.786 55.6 117.586 55 117.286 54.4 C 117.086 53.9 116.986 53.5 116.886 53 C 116.786 53.5 116.486 53.9 116.286 54.3 C 116.086 54.8 115.886 55.3 115.686 55.8 C 115.286 57 115.186 58.2 115.586 59.3 Z" stroke-linecap="round"/>
</g>
		<g transform="matrix(1 0 0 1 56.3235 -27.1289)" clip-path="url(#CLIPPATH_176)">
<clipPath id="CLIPPATH_176">
	<rect transform="matrix(1 0 0 1 -56.3235 27.1289)" id="clip0" x="-67.5" y="-35" rx="0" ry="0" width="135" height="70"/>
</clipPath>
<path style="stroke: none; stroke-width: 1; stroke-dasharray: none; stroke-linecap: butt; stroke-dashoffset: 0; stroke-linejoin: miter; stroke-miterlimit: 4; is-custom-font: none; font-file-url: none; fill: rgb(33,50,91); fill-rule: evenodd; opacity: 1;" transform=" translate(-123.8235, -7.8711)" d="M 124.686 11.7999 C 124.386 11.8999 124.286 11.0999 124.186 10.8999 C 123.886 10.3999 123.486 10.0999 123.286 9.6999 C 122.786 8.7999 122.486 7.8999 122.386 6.8999 C 122.286 6.3999 122.286 5.8999 122.286 5.3999 C 122.286 4.9999 122.286 4.2999 122.686 3.9999 C 122.986 3.6999 123.286 4.4999 123.386 4.7999 C 123.586 5.2999 123.786 5.6999 123.986 6.1999 C 124.286 6.5999 124.586 6.9999 124.786 7.4999 C 124.986 7.9999 125.186 8.4999 125.286 9.0999 C 125.386 9.5999 125.386 10.0999 125.286 10.5999 C 125.186 10.8999 125.086 11.6999 124.686 11.7999 Z" stroke-linecap="round"/>
</g>
		<g transform="matrix(1 0 0 1 60.676 -21.1824)" clip-path="url(#CLIPPATH_177)">
<clipPath id="CLIPPATH_177">
	<rect transform="matrix(1 0 0 1 -60.6759 21.1824)" id="clip0" x="-67.5" y="-35" rx="0" ry="0" width="135" height="70"/>
</clipPath>
<path style="stroke: none; stroke-width: 1; stroke-dasharray: none; stroke-linecap: butt; stroke-dashoffset: 0; stroke-linejoin: miter; stroke-miterlimit: 4; is-custom-font: none; font-file-url: none; fill: rgb(33,50,91); fill-rule: evenodd; opacity: 1;" transform=" translate(-128.1759, -13.8176)" d="M 129.086 17.6 C 128.886 17.9 128.686 18.4 128.386 18.5 C 127.886 18.7 127.486 18 127.286 17.6 C 126.986 17 126.886 16.4 126.786 15.7 C 126.686 15.1 126.786 14.6 126.786 14 C 126.786 13.4 126.886 12.8 126.986 12.2 C 127.086 11.6 127.286 11 127.486 10.4 C 127.586 10.2 127.686 9.89998 127.686 9.69998 C 127.786 9.49998 127.686 9.29998 127.886 9.09998 C 128.186 9.49998 128.286 10.1 128.486 10.5 C 128.786 11 128.986 11.5 129.186 12.1 C 129.486 13.3 129.786 14.5 129.486 15.8 C 129.486 16.5 129.386 17.1 129.086 17.6 Z" stroke-linecap="round"/>
</g>
		<g transform="matrix(1 0 0 1 51.636 -25.9778)" clip-path="url(#CLIPPATH_178)">
<clipPath id="CLIPPATH_178">
	<rect transform="matrix(1 0 0 1 -51.636 25.9778)" id="clip0" x="-67.5" y="-35" rx="0" ry="0" width="135" height="70"/>
</clipPath>
<path style="stroke: none; stroke-width: 1; stroke-dasharray: none; stroke-linecap: butt; stroke-dashoffset: 0; stroke-linejoin: miter; stroke-miterlimit: 4; is-custom-font: none; font-file-url: none; fill: rgb(33,50,91); fill-rule: evenodd; opacity: 1;" transform=" translate(-119.136, -9.0222)" d="M 116.286 7.19995 C 116.686 7.19995 117.286 7.39995 117.686 7.59995 C 118.286 7.79995 118.986 7.99995 119.586 8.29995 C 120.086 8.59995 120.586 8.89995 120.986 9.29995 C 121.386 9.69995 121.786 10.3 121.986 10.8 C 121.586 10.9 121.186 10.8 120.786 10.8 C 120.386 10.8 119.986 10.7 119.586 10.5 C 119.086 10.3 118.586 9.89995 118.186 9.49995 C 117.586 8.89995 116.886 8.09995 116.286 7.19995 Z" stroke-linecap="round"/>
</g>
		<g transform="matrix(1 0 0 1 54.836 -20.5)" clip-path="url(#CLIPPATH_179)">
<clipPath id="CLIPPATH_179">
	<rect transform="matrix(1 0 0 1 -54.836 20.5)" id="clip0" x="-67.5" y="-35" rx="0" ry="0" width="135" height="70"/>
</clipPath>
<path style="stroke: none; stroke-width: 1; stroke-dasharray: none; stroke-linecap: butt; stroke-dashoffset: 0; stroke-linejoin: miter; stroke-miterlimit: 4; is-custom-font: none; font-file-url: none; fill: rgb(33,50,91); fill-rule: evenodd; opacity: 1;" transform=" translate(-122.336, -14.5)" d="M 122.786 13.7 C 123.786 14.4 124.586 15.4 124.986 16.6 C 124.686 16.8 124.286 16.9 123.886 16.9 C 122.786 16.9 121.786 16.1 121.186 15.2 C 120.886 14.7 120.586 14.1 120.286 13.6 C 120.086 13.1 119.886 12.6 119.686 12.1 C 120.186 12.3 120.686 12.6 121.186 12.8 C 121.686 13.1 122.186 13.4 122.786 13.7 Z" stroke-linecap="round"/>
</g>
		<g transform="matrix(1 0 0 1 63.5926 -13.9)" clip-path="url(#CLIPPATH_180)">
<clipPath id="CLIPPATH_180">
	<rect transform="matrix(1 0 0 1 -63.5926 13.9)" id="clip0" x="-67.5" y="-35" rx="0" ry="0" width="135" height="70"/>
</clipPath>
<path style="stroke: none; stroke-width: 1; stroke-dasharray: none; stroke-linecap: butt; stroke-dashoffset: 0; stroke-linejoin: miter; stroke-miterlimit: 4; is-custom-font: none; font-file-url: none; fill: rgb(33,50,91); fill-rule: evenodd; opacity: 1;" transform=" translate(-131.0926, -21.1)" d="M 132.186 21.9 C 131.986 22.7 131.686 23.6 131.286 24.3 C 130.986 24.8 130.586 25.3 130.186 25.7 C 130.186 25.3 129.986 24.8 129.886 24.5 C 129.886 24.3 129.786 24 129.786 23.8 C 129.786 23.5 129.786 23.2 129.786 22.8 C 129.686 21.7 129.886 20.7 130.186 19.7 C 130.386 19.1 130.686 18.6 130.986 18.1 C 131.186 17.8 131.286 17.5 131.486 17.2 C 131.586 17.1 131.986 16.6 132.086 16.5 C 132.286 16.5 132.286 17.1 132.286 17.2 C 132.386 17.9 132.386 18.5 132.386 19.2 C 132.486 20.1 132.386 21 132.186 21.9 Z" stroke-linecap="round"/>
</g>
		<g transform="matrix(1 0 0 1 59.586 -0.5)" clip-path="url(#CLIPPATH_181)">
<clipPath id="CLIPPATH_181">
	<rect transform="matrix(1 0 0 1 -59.586 0.5)" id="clip0" x="-67.5" y="-35" rx="0" ry="0" width="135" height="70"/>
</clipPath>
<path style="stroke: none; stroke-width: 1; stroke-dasharray: none; stroke-linecap: butt; stroke-dashoffset: 0; stroke-linejoin: miter; stroke-miterlimit: 4; is-custom-font: none; font-file-url: none; fill: rgb(33,50,91); fill-rule: evenodd; opacity: 1;" transform=" translate(-127.086, -34.5)" d="M 125.586 34.3 C 125.486 33.7 125.486 33.2 125.486 32.6 C 125.486 32.1 125.486 31.5 125.586 31.1 C 125.686 31.3 125.686 31.4 125.786 31.6 C 126.086 32.2 126.686 32.6 127.186 33.1 C 127.586 33.5 127.986 34 128.186 34.6 C 128.386 35.1 128.586 35.7 128.586 36.3 C 128.686 36.8 128.686 37.4 128.686 37.9 C 128.186 37.9 127.686 37.3 127.286 37 C 126.386 36.4 125.786 35.4 125.586 34.3 Z" stroke-linecap="round"/>
</g>
		<g transform="matrix(1 0 0 1 56.786 11.4193)" clip-path="url(#CLIPPATH_182)">
<clipPath id="CLIPPATH_182">
	<rect transform="matrix(1 0 0 1 -56.786 -11.4193)" id="clip0" x="-67.5" y="-35" rx="0" ry="0" width="135" height="70"/>
</clipPath>
<path style="stroke: none; stroke-width: 1; stroke-dasharray: none; stroke-linecap: butt; stroke-dashoffset: 0; stroke-linejoin: miter; stroke-miterlimit: 4; is-custom-font: none; font-file-url: none; fill: rgb(33,50,91); fill-rule: evenodd; opacity: 1;" transform=" translate(-124.286, -46.4193)" d="M 124.786 49.7 C 124.586 50.3 124.186 50.2 123.786 49.9 C 123.486 49.7 123.186 49.3 123.186 48.9 C 123.086 48.4 123.086 47.9 123.086 47.5 C 123.086 47 123.086 46.3999 123.086 45.7999 C 123.086 45.2999 123.186 44.7 123.286 44.2 C 123.286 43.7 123.286 43.1 123.386 42.7 C 123.486 43 123.686 43.2 123.886 43.4 C 124.086 43.7 124.386 44.1 124.586 44.5 C 125.186 45.4 125.486 46.4999 125.486 47.5999 C 125.486 48.0999 125.486 48.6 125.286 49.2 C 124.986 49.2 124.886 49.4 124.786 49.7 Z" stroke-linecap="round"/>
</g>
		<g transform="matrix(1 0 0 1 54.3163 28.95)" clip-path="url(#CLIPPATH_183)">
<clipPath id="CLIPPATH_183">
	<rect transform="matrix(1 0 0 1 -54.3163 -28.95)" id="clip0" x="-67.5" y="-35" rx="0" ry="0" width="135" height="70"/>
</clipPath>
<path style="stroke: none; stroke-width: 1; stroke-dasharray: none; stroke-linecap: butt; stroke-dashoffset: 0; stroke-linejoin: miter; stroke-miterlimit: 4; is-custom-font: none; font-file-url: none; fill: rgb(33,50,91); fill-rule: evenodd; opacity: 1;" transform=" translate(-121.8163, -63.95)" d="M 121.186 62.7 C 122.586 62.6 124.086 62.7 125.486 62.6 C 125.186 62.8 125.086 63.1 124.786 63.3 C 124.486 63.5 124.086 63.8 123.786 64 C 123.186 64.4 122.486 64.8 121.786 65 C 121.186 65.2 120.486 65.3 119.886 65.3 C 119.386 65.3 118.686 65.1 118.286 64.7 C 118.086 64.4 118.086 63.9 118.386 63.6 C 118.986 62.7 120.186 62.7 121.186 62.7 Z" stroke-linecap="round"/>
</g>
		<g transform="matrix(1 0 0 1 58.6036 5.65)" clip-path="url(#CLIPPATH_184)">
<clipPath id="CLIPPATH_184">
	<rect transform="matrix(1 0 0 1 -58.6036 -5.65)" id="clip0" x="-67.5" y="-35" rx="0" ry="0" width="135" height="70"/>
</clipPath>
<path style="stroke: none; stroke-width: 1; stroke-dasharray: none; stroke-linecap: butt; stroke-dashoffset: 0; stroke-linejoin: miter; stroke-miterlimit: 4; is-custom-font: none; font-file-url: none; fill: rgb(33,50,91); fill-rule: evenodd; opacity: 1;" transform=" translate(-126.1036, -40.65)" d="M 127.086 44.3 C 126.686 44 126.086 43.8 125.786 43.4 C 124.986 42.5 124.586 41.4 124.486 40.2 C 124.386 39.6 124.486 39 124.586 38.5 C 124.586 38 124.586 37.4 124.686 37 C 124.986 37.5 125.386 37.9 125.786 38.3 C 126.286 38.8 126.786 39.3 127.186 39.9 C 127.686 40.9 127.886 42 127.686 43.1 C 127.486 43.4 127.386 43.9 127.086 44.3 Z" stroke-linecap="round"/>
</g>
		<g transform="matrix(1 0 0 1 64.186 8.55)" clip-path="url(#CLIPPATH_185)">
<clipPath id="CLIPPATH_185">
	<rect transform="matrix(1 0 0 1 -64.186 -8.55)" id="clip0" x="-67.5" y="-35" rx="0" ry="0" width="135" height="70"/>
</clipPath>
<path style="stroke: none; stroke-width: 1; stroke-dasharray: none; stroke-linecap: butt; stroke-dashoffset: 0; stroke-linejoin: miter; stroke-miterlimit: 4; is-custom-font: none; font-file-url: none; fill: rgb(33,50,91); fill-rule: evenodd; opacity: 1;" transform=" translate(-131.686, -43.55)" d="M 130.686 46.3 C 130.186 46.7 129.586 46.8 128.986 47.1 C 129.086 46.3 129.286 45.5 129.686 44.9 C 129.986 44.4 130.286 43.8 130.586 43.3 C 130.886 42.7 131.386 42.2 131.886 41.7 C 132.386 41.3 132.886 41 133.286 40.6 C 133.586 40.3 133.986 40.1 134.386 40 C 134.286 40.3 134.086 40.7 133.986 41 C 133.886 41.4 133.786 41.7 133.586 42.1 C 133.186 43.2 132.786 44.2 131.986 45.1 C 131.686 45.6 131.186 46 130.686 46.3 Z" stroke-linecap="round"/>
</g>
		<g transform="matrix(1 0 0 1 53.486 0)" clip-path="url(#CLIPPATH_186)">
<clipPath id="CLIPPATH_186">
	<rect transform="matrix(1 0 0 1 -53.486 0)" id="clip0" x="-67.5" y="-35" rx="0" ry="0" width="135" height="70"/>
</clipPath>
<path style="stroke: none; stroke-width: 1; stroke-dasharray: none; stroke-linecap: butt; stroke-dashoffset: 0; stroke-linejoin: miter; stroke-miterlimit: 4; is-custom-font: none; font-file-url: none; fill: rgb(33,50,91); fill-rule: evenodd; opacity: 1;" transform=" translate(-120.986, -35)" d="M 129.086 37 C 129.086 34.7 128.986 32.3 128.686 30 C 127.886 30.4 126.586 30 125.986 29.4 C 125.586 28.9 125.286 28.3999 125.086 27.7999 C 124.886 27.2999 124.786 26.7 124.686 26.1 C 124.586 25.7 124.286 25 124.586 24.6 C 124.886 24.8 125.186 25.1 125.386 25.4 C 125.786 25.7 126.186 26 126.486 26.4 C 126.886 26.7 127.286 27 127.586 27.4 C 127.786 27.6 128.086 27.8 128.286 28 C 128.086 26.5 127.786 25.1999 127.486 23.7999 C 127.386 23.7999 127.286 23.7999 127.286 23.7999 C 125.986 23.5999 124.786 22.7 123.986 21.6 C 123.586 21.1 123.186 20.4999 122.886 19.7999 C 122.786 19.4999 122.686 19.3 122.686 19 C 122.586 18.8 122.486 18.4 122.486 18.2 C 122.886 18.4 123.286 18.5999 123.686 18.7999 C 124.286 19.0999 124.786 19.3999 125.286 19.7999 C 125.686 20.0999 126.086 20.4 126.386 20.7 C 126.486 20.8 126.686 20.9 126.786 21 C 124.686 13.5 121.486 8.69995 120.186 6.99995 C 120.086 6.99995 119.286 6.29995 119.186 6.19995 C 118.586 5.69995 117.886 5.39995 117.286 5.09995 C 116.786 4.79995 116.286 4.49995 115.886 4.09995 C 115.486 3.69995 115.286 3.29995 114.886 2.89995 C 114.286 2.09995 113.886 1.09995 113.486 0.199951 C 114.186 0.599951 114.886 0.999951 115.686 1.29995 C 116.386 1.59995 117.086 1.89995 117.786 2.29995 C 118.386 2.69995 118.986 3.19995 119.486 3.69995 C 119.886 4.09995 120.186 4.69995 120.386 5.19995 C 120.486 5.49995 120.786 6.09995 120.786 6.19995 C 122.186 8.09995 130.186 19.8999 130.186 36.5999 C 130.186 41.4999 129.086 46.3 126.886 50.7 C 127.486 50 128.486 49.4999 129.386 49.2999 C 129.886 49.0999 130.386 49.1 130.786 48.9 C 131.286 48.8 131.786 48.6 132.386 48.5 C 132.186 48.5 131.986 48.8 131.886 49 C 131.686 49.3 131.386 49.6 131.186 49.9 C 130.586 50.8 130.186 51.7999 129.486 52.5999 C 129.086 53.0999 128.586 53.5 127.986 53.7 C 127.586 53.9 126.886 53.9999 126.486 53.7999 C 125.986 53.4999 125.986 53 126.086 52.4 C 125.186 54 124.286 55.6 123.186 57 C 123.586 56.8 124.086 56.6 124.586 56.5 C 125.386 56.4 126.186 56.2999 126.986 56.2999 C 127.786 56.1999 128.486 56.1 129.286 56 C 128.586 56.6 127.986 57.3 127.386 58 C 126.986 58.4 126.586 58.7 126.086 59 C 125.686 59.3 125.186 59.5999 124.686 59.7999 C 124.186 59.9999 123.286 60.1 122.786 59.9 C 122.386 59.7 122.086 58.9999 122.186 58.5999 C 122.186 58.5999 122.186 58.6 122.186 58.5 C 116.286 65.8 109.586 69.8 109.586 69.8 V 67.2 C 109.586 67.2 129.086 55.2 129.086 37 Z" stroke-linecap="round"/>
</g>
		<g transform="matrix(1 0 0 1 -53.4998 0)" clip-path="url(#CLIPPATH_187)">
<clipPath id="CLIPPATH_187">
	<rect transform="matrix(1 0 0 1 53.4999 0)" id="clip0" x="-67.5" y="-35" rx="0" ry="0" width="135" height="70"/>
</clipPath>
<path style="stroke: none; stroke-width: 1; stroke-dasharray: none; stroke-linecap: butt; stroke-dashoffset: 0; stroke-linejoin: miter; stroke-miterlimit: 4; is-custom-font: none; font-file-url: none; fill: rgb(33,50,91); fill-rule: evenodd; opacity: 1;" transform=" translate(-14.0001, -35)" d="M 5.89995 37 C 5.89995 34.7 5.99995 32.3 6.29995 30 C 7.09995 30.4 8.39995 30 8.99995 29.4 C 9.39995 28.9 9.69995 28.4 9.89995 27.8 C 10.0999 27.3 10.1999 26.7 10.2999 26.1 C 10.3999 25.7 10.6999 25 10.3999 24.6 C 10.0999 24.8 9.79995 25.1 9.59995 25.4 C 9.19995 25.7 8.79995 26 8.49995 26.4 C 8.09995 26.7 7.69995 27 7.39995 27.4 C 7.19995 27.6 6.89995 27.8 6.69995 28 C 6.89995 26.5 7.19995 25.2 7.49995 23.8 C 7.59995 23.8 7.69995 23.8 7.69995 23.8 C 8.99995 23.6 10.1999 22.7 10.9999 21.6 C 11.3999 21.1 11.7999 20.5 12.0999 19.8 C 12.1999 19.5 12.2999 19.3 12.2999 19 C 12.3999 18.8 12.4999 18.4 12.4999 18.2 C 12.0999 18.4 11.6999 18.6 11.2999 18.8 C 10.6999 19.1 10.1999 19.4 9.69995 19.8 C 9.29995 20.1 8.89995 20.4 8.59995 20.7 C 8.49995 20.8 8.29995 20.9 8.19995 21 C 10.3999 13.4 13.5999 8.59998 14.8999 6.89998 C 14.9999 6.89998 15.7999 6.19998 15.8999 6.09998 C 16.4999 5.69998 17.1999 5.39998 17.7999 4.99998 C 18.2999 4.79998 18.7999 4.39998 19.1999 4.09998 C 19.5999 3.69998 19.7999 3.19998 20.1999 2.79998 C 20.8999 1.99998 21.2999 0.999976 21.5999 0.0999756 C 20.8999 0.599976 20.1999 0.999976 19.3999 1.29998 C 18.6999 1.59998 17.9999 1.89998 17.2999 2.29998 C 16.6999 2.69998 16.0999 3.19998 15.5999 3.69998 C 15.1999 4.09998 14.8999 4.69998 14.6999 5.19998 C 14.5999 5.49998 14.2999 6.09998 14.2999 6.19998 C 12.8999 8.09998 4.89995 19.9 4.89995 36.6 C 4.89995 41.5 5.99995 46.3 8.19995 50.7 C 7.59995 50 6.59995 49.5 5.69995 49.3 C 5.19995 49.1 4.69995 49.1 4.29995 48.9 C 3.79995 48.8 3.29995 48.6 2.69995 48.5 C 2.89995 48.5 3.09995 48.8 3.19995 49 C 3.39995 49.3 3.69995 49.6 3.89995 49.9 C 4.49995 50.8 4.89995 51.8 5.59995 52.6 C 5.99995 53.1 6.49995 53.5 7.09995 53.7 C 7.49995 53.9 8.19995 54 8.59995 53.8 C 9.09995 53.5 9.09995 53 8.99995 52.4 C 9.89995 54 10.7999 55.6 11.8999 57 C 11.4999 56.8 10.9999 56.6 10.4999 56.5 C 9.69995 56.4 8.89995 56.3 8.09995 56.3 C 7.29995 56.2 6.59995 56.1 5.79995 56 C 6.49995 56.6 7.09995 57.3 7.69995 58 C 8.09995 58.4 8.49995 58.7 8.99995 59 C 9.39995 59.3 9.89995 59.6 10.3999 59.8 C 10.8999 60 11.7999 60.1 12.2999 59.9 C 12.6999 59.7 12.9999 59 12.8999 58.6 C 12.8999 58.6 12.8999 58.6 12.8999 58.5 C 18.5999 65.8 25.2999 69.9 25.2999 69.9 V 67.3 C 25.3999 67.2 5.89995 55.2 5.89995 37 Z" stroke-linecap="round"/>
</g>
		<g transform="matrix(1 0 0 1 -58.6168 5.65)" clip-path="url(#CLIPPATH_188)">
<clipPath id="CLIPPATH_188">
	<rect transform="matrix(1 0 0 1 58.6168 -5.65)" id="clip0" x="-67.5" y="-35" rx="0" ry="0" width="135" height="70"/>
</clipPath>
<path style="stroke: none; stroke-width: 1; stroke-dasharray: none; stroke-linecap: butt; stroke-dashoffset: 0; stroke-linejoin: miter; stroke-miterlimit: 4; is-custom-font: none; font-file-url: none; fill: rgb(33,50,91); fill-rule: evenodd; opacity: 1;" transform=" translate(-8.8832, -40.65)" d="M 7.89998 44.3 C 8.39998 44 8.89998 43.8 9.19998 43.4 C 9.99997 42.5 10.4 41.4 10.5 40.2 C 10.6 39.6 10.5 39 10.4 38.5 C 10.4 38 10.4 37.4 10.3 37 C 9.99997 37.5 9.59998 37.9 9.19998 38.3 C 8.69998 38.8 8.19998 39.3 7.79998 39.9 C 7.49998 40.4 7.39998 40.9 7.29998 41.4 C 7.19998 41.9 7.19998 42.5 7.29998 43 C 7.49998 43.4 7.69998 43.9 7.89998 44.3 Z" stroke-linecap="round"/>
</g>
		<g transform="matrix(1 0 0 1 -52.7923 17.0035)" clip-path="url(#CLIPPATH_189)">
<clipPath id="CLIPPATH_189">
	<rect transform="matrix(1 0 0 1 52.7923 -17.0035)" id="clip0" x="-67.5" y="-35" rx="0" ry="0" width="135" height="70"/>
</clipPath>
<path style="stroke: none; stroke-width: 1; stroke-dasharray: none; stroke-linecap: butt; stroke-dashoffset: 0; stroke-linejoin: miter; stroke-miterlimit: 4; is-custom-font: none; font-file-url: none; fill: rgb(33,50,91); fill-rule: evenodd; opacity: 1;" transform=" translate(-14.7077, -52.0035)" d="M 13.8999 56 C 13.6999 54.9 13.2999 53.8 13.3999 52.7 C 13.4999 51.4 14.2999 50.4 14.4999 49.1 C 14.5999 48.7 14.5999 48.4 14.3999 48 C 14.5999 48.2 14.7999 48.3 14.9999 48.6 C 15.1999 48.8 15.2999 49.1 15.4999 49.4 C 15.6999 49.9 15.7999 50.4 15.8999 50.9 C 16.0999 52 16.0999 53.3 15.6999 54.3 C 15.3999 55.1 14.7999 56.1 13.8999 56 C 13.8999 55.8 13.7999 55.6 13.7999 55.4 L 13.8999 56 Z" stroke-linecap="round"/>
</g>
		<g transform="matrix(1 0 0 1 -65.4857 -6.3)" clip-path="url(#CLIPPATH_190)">
<clipPath id="CLIPPATH_190">
	<rect transform="matrix(1 0 0 1 65.4856 6.3)" id="clip0" x="-67.5" y="-35" rx="0" ry="0" width="135" height="70"/>
</clipPath>
<path style="stroke: none; stroke-width: 1; stroke-dasharray: none; stroke-linecap: butt; stroke-dashoffset: 0; stroke-linejoin: miter; stroke-miterlimit: 4; is-custom-font: none; font-file-url: none; fill: rgb(33,50,91); fill-rule: evenodd; opacity: 1;" transform=" translate(-2.0144, -28.7)" d="M 1.69993 25.2999 C 2.29993 25.8999 2.69993 26.5999 3.09993 27.2999 C 3.49993 28.0999 3.69993 29 3.69993 29.9 C 3.79993 31 3.59993 32.1 3.69993 33.2 C 2.89993 32.4 2.19993 31.5 1.69993 30.5 C 1.39993 30 1.09993 29.5 0.999929 29 C 0.799927 28.4 0.799927 27.8 0.799927 27.2 C 0.799927 26.9 0.799927 26.6 0.799927 26.4 C 0.799927 26.1 0.499927 25.8 0.499927 25.4 C 0.399927 25 0.499927 24.6 0.299927 24.2 C 0.799927 24.4 1.19993 24.8 1.49993 25.1 C 1.49993 25.2 1.59993 25.1999 1.69993 25.2999 Z" stroke-linecap="round"/>
</g>
		<g transform="matrix(1 0 0 1 -56.3375 -27.0788)" clip-path="url(#CLIPPATH_191)">
<clipPath id="CLIPPATH_191">
	<rect transform="matrix(1 0 0 1 56.3375 27.0788)" id="clip0" x="-67.5" y="-35" rx="0" ry="0" width="135" height="70"/>
</clipPath>
<path style="stroke: none; stroke-width: 1; stroke-dasharray: none; stroke-linecap: butt; stroke-dashoffset: 0; stroke-linejoin: miter; stroke-miterlimit: 4; is-custom-font: none; font-file-url: none; fill: rgb(33,50,91); fill-rule: evenodd; opacity: 1;" transform=" translate(-11.1625, -7.9212)" d="M 10.3 11.8 C 10.6 11.9 10.7 11.1 10.8 10.9 C 11.1 10.4 11.5 10.1 11.7 9.7 C 12.2 8.8 12.5 7.9 12.6 6.9 C 12.7 6.4 12.7 5.89999 12.7 5.49999 C 12.7 5.09999 12.7 4.39999 12.4 4.09999 C 12.1 3.79999 11.8 4.6 11.7 4.9 C 11.5 5.4 11.3 5.8 11.1 6.3 C 10.8 6.7 10.5 7.19999 10.3 7.59999 C 10 7.99999 9.8 8.5 9.7 9.1 C 9.6 9.6 9.6 10.1 9.7 10.6 C 9.8 10.9 10 11.7 10.3 11.8 Z" stroke-linecap="round"/>
</g>
		<g transform="matrix(1 0 0 1 -65.25 1.3)" clip-path="url(#CLIPPATH_192)">
<clipPath id="CLIPPATH_192">
	<rect transform="matrix(1 0 0 1 65.25 -1.3)" id="clip0" x="-67.5" y="-35" rx="0" ry="0" width="135" height="70"/>
</clipPath>
<path style="stroke: none; stroke-width: 1; stroke-dasharray: none; stroke-linecap: butt; stroke-dashoffset: 0; stroke-linejoin: miter; stroke-miterlimit: 4; is-custom-font: none; font-file-url: none; fill: rgb(33,50,91); fill-rule: evenodd; opacity: 1;" transform=" translate(-2.25, -36.3)" d="M 0.499976 35.7 C 0.599976 36.4 0.899976 37 1.19998 37.6 C 1.39998 37.9 1.59998 38.2 1.89998 38.5 C 2.19998 38.8 2.59998 39.1 2.89998 39.3 C 3.19998 39.5 3.39998 39.6 3.69998 39.7 C 3.99998 39.9 4.19998 40 4.39998 40.1 C 4.29998 39.9 4.29998 39.6 4.29998 39.4 C 4.29998 39.1 4.19998 38.8 4.09998 38.4 C 3.99998 37.8 3.89998 37.3 3.69998 36.8 C 3.49998 36.3 3.19998 35.8 2.99998 35.3 C 2.69998 34.8 2.29998 34.4 1.89998 34 C 1.59998 33.7 1.29998 33.4 0.899976 33.2 C 0.599976 33 0.299976 32.8 0.0999756 32.5 C 0.399976 32.9 0.299976 33.7 0.299976 34.2 C 0.299976 34.6 0.399976 35.2 0.499976 35.7 Z" stroke-linecap="round"/>
</g>
		<g transform="matrix(1 0 0 1 -51.6 -25.9778)" clip-path="url(#CLIPPATH_193)">
<clipPath id="CLIPPATH_193">
	<rect transform="matrix(1 0 0 1 51.6 25.9778)" id="clip0" x="-67.5" y="-35" rx="0" ry="0" width="135" height="70"/>
</clipPath>
<path style="stroke: none; stroke-width: 1; stroke-dasharray: none; stroke-linecap: butt; stroke-dashoffset: 0; stroke-linejoin: miter; stroke-miterlimit: 4; is-custom-font: none; font-file-url: none; fill: rgb(33,50,91); fill-rule: evenodd; opacity: 1;" transform=" translate(-15.9, -9.0222)" d="M 18.8 7.19995 C 18.4 7.19995 17.8 7.39995 17.4 7.59995 C 16.7 7.79995 16.1 7.99995 15.4 8.29995 C 14.9 8.59995 14.4 8.89995 14 9.29995 C 13.6 9.69995 13.2 10.3 13 10.8 C 13.4 10.9 13.8 10.8 14.2 10.8 C 14.6 10.8 15 10.7 15.4 10.5 C 15.9 10.3 16.4 9.89995 16.8 9.49995 C 17.5 8.89995 18.1 8.09995 18.8 7.19995 Z" stroke-linecap="round"/>
</g>
		<g transform="matrix(1 0 0 1 -54.75 -20.5)" clip-path="url(#CLIPPATH_194)">
<clipPath id="CLIPPATH_194">
	<rect transform="matrix(1 0 0 1 54.75 20.5)" id="clip0" x="-67.5" y="-35" rx="0" ry="0" width="135" height="70"/>
</clipPath>
<path style="stroke: none; stroke-width: 1; stroke-dasharray: none; stroke-linecap: butt; stroke-dashoffset: 0; stroke-linejoin: miter; stroke-miterlimit: 4; is-custom-font: none; font-file-url: none; fill: rgb(33,50,91); fill-rule: evenodd; opacity: 1;" transform=" translate(-12.75, -14.5)" d="M 12.3 13.7 C 11.3 14.4 10.5 15.4 10.1 16.6 C 10.4 16.8 10.8 16.9 11.2 16.9 C 12.3 16.9 13.3 16.1 13.9 15.2 C 14.2 14.7 14.5 14.1 14.8 13.6 C 15 13.1 15.3 12.6 15.4 12.1 C 14.9 12.3 14.4 12.6 13.9 12.8 C 13.4 13.1 12.8 13.4 12.3 13.7 Z" stroke-linecap="round"/>
</g>
		<g transform="matrix(1 0 0 1 -60.7398 -21.1324)" clip-path="url(#CLIPPATH_195)">
<clipPath id="CLIPPATH_195">
	<rect transform="matrix(1 0 0 1 60.7399 21.1324)" id="clip0" x="-67.5" y="-35" rx="0" ry="0" width="135" height="70"/>
</clipPath>
<path style="stroke: none; stroke-width: 1; stroke-dasharray: none; stroke-linecap: butt; stroke-dashoffset: 0; stroke-linejoin: miter; stroke-miterlimit: 4; is-custom-font: none; font-file-url: none; fill: rgb(33,50,91); fill-rule: evenodd; opacity: 1;" transform=" translate(-6.7601, -13.8676)" d="M 5.90002 17.6 C 6.10002 17.9 6.30002 18.4 6.60002 18.5 C 7.10002 18.7 7.50002 18 7.70002 17.6 C 8.00002 17 8.10002 16.4 8.20002 15.7 C 8.30002 15.1 8.20002 14.6 8.20002 14 C 8.20002 13.4 8.10002 12.8 8.00002 12.2 C 7.90002 11.6 7.70002 11 7.50002 10.4 C 7.40002 10.2 7.30002 9.89995 7.30002 9.69995 C 7.10002 9.59995 7.10002 9.39995 7.00002 9.19995 C 6.70002 9.59995 6.60002 10.2 6.40002 10.6 C 6.10002 11.1 5.90002 11.6 5.70002 12.2 C 5.40002 13.4 5.10002 14.6 5.40002 15.9 C 5.50002 16.5 5.60002 17.1 5.90002 17.6 Z" stroke-linecap="round"/>
</g>
		<g transform="matrix(1 0 0 1 -63.637 -13.9)" clip-path="url(#CLIPPATH_196)">
<clipPath id="CLIPPATH_196">
	<rect transform="matrix(1 0 0 1 63.637 13.9)" id="clip0" x="-67.5" y="-35" rx="0" ry="0" width="135" height="70"/>
</clipPath>
<path style="stroke: none; stroke-width: 1; stroke-dasharray: none; stroke-linecap: butt; stroke-dashoffset: 0; stroke-linejoin: miter; stroke-miterlimit: 4; is-custom-font: none; font-file-url: none; fill: rgb(33,50,91); fill-rule: evenodd; opacity: 1;" transform=" translate(-3.863, -21.1)" d="M 2.8 21.9 C 3 22.8 3.3 23.6 3.7 24.3 C 4 24.8 4.4 25.3 4.8 25.7 C 4.8 25.3 5 24.8 5.1 24.5 C 5.1 24.3 5.2 24 5.2 23.8 C 5.2 23.5 5.2 23.2 5.2 22.8 C 5.3 21.7 5.1 20.7 4.8 19.7 C 4.6 19.1 4.3 18.6 4 18.1 C 3.8 17.8 3.7 17.5 3.5 17.2 C 3.4 17 3 16.5 2.8 16.5 C 2.6 16.5 2.6 17.1 2.6 17.2 C 2.5 17.9 2.5 18.5 2.5 19.2 C 2.5 20.1 2.6 21 2.8 21.9 Z" stroke-linecap="round"/>
</g>
		<g transform="matrix(1 0 0 1 -59.6 -0.5)" clip-path="url(#CLIPPATH_197)">
<clipPath id="CLIPPATH_197">
	<rect transform="matrix(1 0 0 1 59.5999 0.5)" id="clip0" x="-67.5" y="-35" rx="0" ry="0" width="135" height="70"/>
</clipPath>
<path style="stroke: none; stroke-width: 1; stroke-dasharray: none; stroke-linecap: butt; stroke-dashoffset: 0; stroke-linejoin: miter; stroke-miterlimit: 4; is-custom-font: none; font-file-url: none; fill: rgb(33,50,91); fill-rule: evenodd; opacity: 1;" transform=" translate(-7.9001, -34.5)" d="M 9.40005 34.3 C 9.50005 33.7 9.50005 33.2 9.50005 32.6 C 9.50005 32.1 9.50005 31.5 9.40005 31.1 C 9.30005 31.3 9.30005 31.4 9.20005 31.6 C 8.90005 32.2 8.30005 32.6 7.80005 33.1 C 7.40005 33.5 7.00005 34 6.80005 34.6 C 6.60005 35.1 6.40005 35.7 6.40005 36.3 C 6.30005 36.8 6.30005 37.4 6.30005 37.9 C 6.80005 37.9 7.30005 37.3 7.70005 37 C 8.60005 36.4 9.20005 35.4 9.40005 34.3 Z" stroke-linecap="round"/>
</g>
		<g transform="matrix(1 0 0 1 -64.2 8.55)" clip-path="url(#CLIPPATH_198)">
<clipPath id="CLIPPATH_198">
	<rect transform="matrix(1 0 0 1 64.2 -8.55)" id="clip0" x="-67.5" y="-35" rx="0" ry="0" width="135" height="70"/>
</clipPath>
<path style="stroke: none; stroke-width: 1; stroke-dasharray: none; stroke-linecap: butt; stroke-dashoffset: 0; stroke-linejoin: miter; stroke-miterlimit: 4; is-custom-font: none; font-file-url: none; fill: rgb(33,50,91); fill-rule: evenodd; opacity: 1;" transform=" translate(-3.3, -43.55)" d="M 4.29998 46.3 C 4.79998 46.7 5.39998 46.8 5.99998 47.1 C 5.89998 46.3 5.69998 45.5 5.29998 44.9 C 4.99998 44.4 4.69998 43.8 4.39998 43.3 C 4.09998 42.7 3.59998 42.2 3.09998 41.7 C 2.59998 41.3 2.09998 41 1.69998 40.6 C 1.39998 40.3 0.99998 40.1 0.599976 40 C 0.699976 40.3 0.899976 40.7 0.99998 41 C 1.09998 41.4 1.19998 41.7 1.39998 42.1 C 1.79998 43.2 2.19998 44.2 2.99998 45.1 C 3.29998 45.6 3.79998 46 4.29998 46.3 Z" stroke-linecap="round"/>
</g>
		<g transform="matrix(1 0 0 1 -56.75 11.4193)" clip-path="url(#CLIPPATH_199)">
<clipPath id="CLIPPATH_199">
	<rect transform="matrix(1 0 0 1 56.75 -11.4193)" id="clip0" x="-67.5" y="-35" rx="0" ry="0" width="135" height="70"/>
</clipPath>
<path style="stroke: none; stroke-width: 1; stroke-dasharray: none; stroke-linecap: butt; stroke-dashoffset: 0; stroke-linejoin: miter; stroke-miterlimit: 4; is-custom-font: none; font-file-url: none; fill: rgb(33,50,91); fill-rule: evenodd; opacity: 1;" transform=" translate(-10.75, -46.4193)" d="M 10.2 49.7 C 10.4 50.3 10.8 50.2 11.2 49.9 C 11.5 49.7 11.8 49.3 11.8 48.9 C 11.9 48.4 11.9 47.9 11.9 47.5 C 11.9 47 11.9 46.3999 11.9 45.7999 C 11.9 45.2999 11.8 44.7 11.8 44.2 C 11.8 43.7 11.8 43.1 11.7 42.7 C 11.6 43 11.4 43.2 11.2 43.4 C 11 43.7 10.7 44.1 10.5 44.5 C 9.89998 45.4 9.59998 46.4999 9.59998 47.5999 C 9.59998 48.0999 9.59998 48.6 9.79998 49.2 C 9.99997 49.3 10.1 49.4 10.2 49.7 Z" stroke-linecap="round"/>
</g>
		<g transform="matrix(1 0 0 1 -54.3303 28.95)" clip-path="url(#CLIPPATH_200)">
<clipPath id="CLIPPATH_200">
	<rect transform="matrix(1 0 0 1 54.3303 -28.95)" id="clip0" x="-67.5" y="-35" rx="0" ry="0" width="135" height="70"/>
</clipPath>
<path style="stroke: none; stroke-width: 1; stroke-dasharray: none; stroke-linecap: butt; stroke-dashoffset: 0; stroke-linejoin: miter; stroke-miterlimit: 4; is-custom-font: none; font-file-url: none; fill: rgb(33,50,91); fill-rule: evenodd; opacity: 1;" transform=" translate(-13.1697, -63.95)" d="M 13.8 62.7 C 12.4 62.6 10.9 62.7 9.5 62.6 C 9.8 62.8 9.9 63.1 10.2 63.3 C 10.5 63.5 10.9 63.8 11.2 64 C 11.8 64.4 12.5 64.8 13.2 65 C 13.8 65.2 14.5 65.3 15.1 65.3 C 15.6 65.3 16.4 65.1 16.7 64.7 C 16.9 64.4 16.9 63.9 16.6 63.6 C 16.1 62.8 14.8 62.7 13.8 62.7 Z" stroke-linecap="round"/>
</g>
		<g transform="matrix(1 0 0 1 -48.2889 22.6)" clip-path="url(#CLIPPATH_201)">
<clipPath id="CLIPPATH_201">
	<rect transform="matrix(1 0 0 1 48.2889 -22.6)" id="clip0" x="-67.5" y="-35" rx="0" ry="0" width="135" height="70"/>
</clipPath>
<path style="stroke: none; stroke-width: 1; stroke-dasharray: none; stroke-linecap: butt; stroke-dashoffset: 0; stroke-linejoin: miter; stroke-miterlimit: 4; is-custom-font: none; font-file-url: none; fill: rgb(33,50,91); fill-rule: evenodd; opacity: 1;" transform=" translate(-19.2111, -57.6)" d="M 20.2999 59.8 C 20.0999 60.4 19.7999 60.9 19.3999 61.3 C 19.2999 61.4 19.1999 61.5 19.1999 61.7 C 19.0999 61.6 19.1999 61.4 19.0999 61.2 C 18.9999 60.9 18.7999 60.6 18.4999 60.4 C 18.1999 59.9 17.9999 59.3 17.8999 58.7 C 17.7999 58 17.8999 57.4 17.9999 56.7 C 18.1999 56.1 18.3999 55.5 18.6999 54.9 C 18.8999 54.4 18.9999 54 19.0999 53.5 C 19.1999 54 19.4999 54.4 19.6999 54.8 C 19.8999 55.3 20.0999 55.8 20.2999 56.3 C 20.5999 57.5 20.6999 58.7 20.2999 59.8 Z" stroke-linecap="round"/>
</g>
		<g transform="matrix(1 0 0 1 -6.65 20.9)" clip-path="url(#CLIPPATH_202)">
<clipPath id="CLIPPATH_202">
	<rect transform="matrix(1 0 0 1 6.65 -20.9)" id="clip0" x="-67.5" y="-35" rx="0" ry="0" width="135" height="70"/>
</clipPath>
<path style="stroke: none; stroke-width: 1; stroke-dasharray: none; stroke-linecap: butt; stroke-dashoffset: 0; stroke-linejoin: miter; stroke-miterlimit: 4; is-custom-font: none; font-file-url: none; fill: rgb(33,50,91); fill-rule: nonzero; opacity: 1;" transform=" translate(-60.85, -55.9)" d="M 58.4 58.5 C 60 57.1 61.7 55.9 61.7 54.6 C 61.7 54 61.4 53.5 60.7 53.5 C 60 53.5 59.7 54.0001 59.7 54.7001 H 58.4 C 58.4 53.1001 59.5 52.3 60.8 52.3 C 62.3 52.3 63.1 53.2 63.1 54.5 C 63.1 56.2 61.5 57.4001 60.4 58.4001 H 63.3 V 59.5 H 58.5 V 58.5 H 58.4 Z" stroke-linecap="round"/>
</g>
		<g transform="matrix(1 0 0 1 -0.8 21)" clip-path="url(#CLIPPATH_203)">
<clipPath id="CLIPPATH_203">
	<rect transform="matrix(1 0 0 1 0.8 -21)" id="clip0" x="-67.5" y="-35" rx="0" ry="0" width="135" height="70"/>
</clipPath>
<path style="stroke: none; stroke-width: 1; stroke-dasharray: none; stroke-linecap: butt; stroke-dashoffset: 0; stroke-linejoin: miter; stroke-miterlimit: 4; is-custom-font: none; font-file-url: none; fill: rgb(33,50,91); fill-rule: nonzero; opacity: 1;" transform=" translate(-66.7, -56)" d="M 66.7 52.4 C 68.7 52.4 69.3 53.9 69.3 56 C 69.3 58.1 68.7 59.6 66.7 59.6 C 64.7 59.6 64.1 58 64.1 56 C 64.1 53.9 64.7 52.4 66.7 52.4 Z M 66.7 53.7 C 65.5 53.7 65.4 54.8 65.4 56 C 65.4 57.3 65.5 58.4 66.7 58.4 C 67.9 58.4 68 57.3 68 56 C 68 54.8 67.9 53.7 66.7 53.7 Z" stroke-linecap="round"/>
</g>
		<g transform="matrix(1 0 0 1 3.9 21.05)" clip-path="url(#CLIPPATH_204)">
<clipPath id="CLIPPATH_204">
	<rect transform="matrix(1 0 0 1 -3.9 -21.05)" id="clip0" x="-67.5" y="-35" rx="0" ry="0" width="135" height="70"/>
</clipPath>
<path style="stroke: none; stroke-width: 1; stroke-dasharray: none; stroke-linecap: butt; stroke-dashoffset: 0; stroke-linejoin: miter; stroke-miterlimit: 4; is-custom-font: none; font-file-url: none; fill: rgb(33,50,91); fill-rule: nonzero; opacity: 1;" transform=" translate(-71.4, -56.05)" d="M 71.2 53.8 H 70.2 V 52.5 H 72.6 V 59.6 H 71.2 V 53.8 Z" stroke-linecap="round"/>
</g>
		<g transform="matrix(1 0 0 1 9.15 21.05)" clip-path="url(#CLIPPATH_205)">
<clipPath id="CLIPPATH_205">
	<rect transform="matrix(1 0 0 1 -9.15 -21.05)" id="clip0" x="-67.5" y="-35" rx="0" ry="0" width="135" height="70"/>
</clipPath>
<path style="stroke: none; stroke-width: 1; stroke-dasharray: none; stroke-linecap: butt; stroke-dashoffset: 0; stroke-linejoin: miter; stroke-miterlimit: 4; is-custom-font: none; font-file-url: none; fill: rgb(33,50,91); fill-rule: nonzero; opacity: 1;" transform=" translate(-76.65, -56.05)" d="M 75.6 57.7 C 75.7 58.3 76.1 58.6 76.7 58.6 C 77.5 58.6 77.9 58 77.9 56.4 C 77.6 56.8 77 57.1 76.4 57.1 C 75.2 57.1 74.2 56.3 74.2 54.8 C 74.2 53.4 75.1 52.4 76.6 52.4 C 78.5 52.4 79.1 53.7 79.1 56 C 79.1 58.4 78.6 59.7 76.7 59.7 C 75.2 59.7 74.5 58.7 74.4 57.7 H 75.6 Z M 77.7 54.7 C 77.7 53.9 77.2 53.5 76.6 53.5 C 75.9 53.5 75.5 54 75.5 54.7 C 75.5 55.3 75.9 55.9 76.7 55.9 C 77.3 55.9 77.7 55.4 77.7 54.7 Z" stroke-linecap="round"/>
</g>
		<g transform="matrix(1 0 0 1 -35.45 -9.4)" clip-path="url(#CLIPPATH_206)">
<clipPath id="CLIPPATH_206">
	<rect transform="matrix(1 0 0 1 35.45 9.4)" id="clip0" x="-67.5" y="-35" rx="0" ry="0" width="135" height="70"/>
</clipPath>
<path style="stroke: none; stroke-width: 1; stroke-dasharray: none; stroke-linecap: butt; stroke-dashoffset: 0; stroke-linejoin: miter; stroke-miterlimit: 4; is-custom-font: none; font-file-url: none; fill: rgb(33,50,91); fill-rule: nonzero; opacity: 1;" transform=" translate(-32.05, -25.6)" d="M 32.4 29.1 H 29.4 V 22.1 H 32.3 C 33.8 22.1 34.6 22.9 34.6 23.9 C 34.6 24.7 34.1 25.3 33.4 25.5 C 34.2 25.6 34.7 26.4 34.7 27.2 C 34.7 28.3 33.9 29.1 32.4 29.1 Z M 32.1 23.3 H 30.8 V 25 H 32.1 C 32.8 25 33.1 24.7 33.1 24.1 C 33.1 23.6 32.8 23.3 32.1 23.3 Z M 32.2 26.1 H 30.8 V 28 H 32.2 C 32.9 28 33.3 27.7 33.3 27.1 C 33.3 26.5 32.9 26.1 32.2 26.1 Z" stroke-linecap="round"/>
</g>
		<g transform="matrix(1 0 0 1 -29.6 -9.4)" clip-path="url(#CLIPPATH_207)">
<clipPath id="CLIPPATH_207">
	<rect transform="matrix(1 0 0 1 29.6 9.4)" id="clip0" x="-67.5" y="-35" rx="0" ry="0" width="135" height="70"/>
</clipPath>
<path style="stroke: none; stroke-width: 1; stroke-dasharray: none; stroke-linecap: butt; stroke-dashoffset: 0; stroke-linejoin: miter; stroke-miterlimit: 4; is-custom-font: none; font-file-url: none; fill: rgb(33,50,91); fill-rule: nonzero; opacity: 1;" transform=" translate(-37.9, -25.6)" d="M 39.9 23.3 H 37.3 V 25 H 39.6 V 26.1 H 37.3 V 28 H 39.9 V 29.1 H 35.9 V 22.1 H 39.9 V 23.3 Z" stroke-linecap="round"/>
</g>
		<g transform="matrix(1 0 0 1 -23.95 -9.35)" clip-path="url(#CLIPPATH_208)">
<clipPath id="CLIPPATH_208">
	<rect transform="matrix(1 0 0 1 23.95 9.35)" id="clip0" x="-67.5" y="-35" rx="0" ry="0" width="135" height="70"/>
</clipPath>
<path style="stroke: none; stroke-width: 1; stroke-dasharray: none; stroke-linecap: butt; stroke-dashoffset: 0; stroke-linejoin: miter; stroke-miterlimit: 4; is-custom-font: none; font-file-url: none; fill: rgb(33,50,91); fill-rule: nonzero; opacity: 1;" transform=" translate(-43.55, -25.65)" d="M 43.6 29.2 C 42.2 29.2 41 28.4 41 27.1 H 42.5 C 42.5 27.7 42.9 28 43.6 28 C 44.3 28 44.6 27.7 44.6 27.2 C 44.6 25.7 41 26.6 41 24.1 C 41 22.8 42 22.1 43.5 22.1 C 44.9 22.1 45.9 22.8 46 24.1 H 44.5 C 44.5 23.6 44.1 23.3 43.5 23.3 C 43 23.3 42.5 23.6 42.5 24.1 C 42.5 25.5 46.1 24.7 46.1 27.2 C 46.1 28.2 45.2 29.2 43.6 29.2 Z" stroke-linecap="round"/>
</g>
		<g transform="matrix(1 0 0 1 -18.1001 -9.45)" clip-path="url(#CLIPPATH_209)">
<clipPath id="CLIPPATH_209">
	<rect transform="matrix(1 0 0 1 18.1001 9.45)" id="clip0" x="-67.5" y="-35" rx="0" ry="0" width="135" height="70"/>
</clipPath>
<path style="stroke: none; stroke-width: 1; stroke-dasharray: none; stroke-linecap: butt; stroke-dashoffset: 0; stroke-linejoin: miter; stroke-miterlimit: 4; is-custom-font: none; font-file-url: none; fill: rgb(33,50,91); fill-rule: nonzero; opacity: 1;" transform=" translate(-49.3999, -25.55)" d="M 46.8999 22.1 H 51.9999 V 23.2 H 50.0999 V 29 H 48.6999 V 23.2 H 46.7999 V 22.1 H 46.8999 Z" stroke-linecap="round"/>
</g>
		<g transform="matrix(1 0 0 1 -8.8 -9.5)" clip-path="url(#CLIPPATH_210)">
<clipPath id="CLIPPATH_210">
	<rect transform="matrix(1 0 0 1 8.8 9.5)" id="clip0" x="-67.5" y="-35" rx="0" ry="0" width="135" height="70"/>
</clipPath>
<path style="stroke: none; stroke-width: 1; stroke-dasharray: none; stroke-linecap: butt; stroke-dashoffset: 0; stroke-linejoin: miter; stroke-miterlimit: 4; is-custom-font: none; font-file-url: none; fill: rgb(33,50,91); fill-rule: nonzero; opacity: 1;" transform=" translate(-58.7, -25.5)" d="M 61.9 24.2 H 60.2999 C 59.9999 23.6 59.4 23.3 58.7 23.3 C 57.5 23.3 56.5999 24.2 56.5999 25.6 C 56.5999 27 57.4999 27.9 58.7999 27.9 C 59.8999 27.9 60.5999 27.3 60.7999 26.3 H 58.4 V 25.2 H 62.2 V 26.4 C 61.9 27.8 60.6999 29.1 58.7999 29.1 C 56.7999 29.1 55.2 27.6 55.2 25.5 C 55.2 23.4 56.6999 21.9 58.7999 21.9 C 60.1999 22.1 61.4 22.8 61.9 24.2 Z" stroke-linecap="round"/>
</g>
		<g transform="matrix(1 0 0 1 -1.6 -9.4)" clip-path="url(#CLIPPATH_211)">
<clipPath id="CLIPPATH_211">
	<rect transform="matrix(1 0 0 1 1.6 9.4)" id="clip0" x="-67.5" y="-35" rx="0" ry="0" width="135" height="70"/>
</clipPath>
<path style="stroke: none; stroke-width: 1; stroke-dasharray: none; stroke-linecap: butt; stroke-dashoffset: 0; stroke-linejoin: miter; stroke-miterlimit: 4; is-custom-font: none; font-file-url: none; fill: rgb(33,50,91); fill-rule: nonzero; opacity: 1;" transform=" translate(-65.9, -25.6)" d="M 63.1 22.1 H 64.5 V 26.4 C 64.5 27.4 65 27.9 65.9 27.9 C 66.8 27.9 67.3 27.4 67.3 26.4 V 22.1 H 68.7 V 26.4 C 68.7 28.2 67.4 29.1 65.9 29.1 C 64.4 29.1 63.1 28.2 63.1 26.4 V 22.1 Z" stroke-linecap="round"/>
</g>
		<g transform="matrix(1 0 0 1 3.3 -9.4)" clip-path="url(#CLIPPATH_212)">
<clipPath id="CLIPPATH_212">
	<rect transform="matrix(1 0 0 1 -3.3 9.4)" id="clip0" x="-67.5" y="-35" rx="0" ry="0" width="135" height="70"/>
</clipPath>
<path style="stroke: none; stroke-width: 1; stroke-dasharray: none; stroke-linecap: butt; stroke-dashoffset: 0; stroke-linejoin: miter; stroke-miterlimit: 4; is-custom-font: none; font-file-url: none; fill: rgb(33,50,91); fill-rule: nonzero; opacity: 1;" transform=" translate(-70.8, -25.6)" d="M 70.1 22.1 H 71.5 V 29.1 H 70.1 V 22.1 Z" stroke-linecap="round"/>
</g>
		<g transform="matrix(1 0 0 1 7.4 -9.4)" clip-path="url(#CLIPPATH_213)">
<clipPath id="CLIPPATH_213">
	<rect transform="matrix(1 0 0 1 -7.4 9.4)" id="clip0" x="-67.5" y="-35" rx="0" ry="0" width="135" height="70"/>
</clipPath>
<path style="stroke: none; stroke-width: 1; stroke-dasharray: none; stroke-linecap: butt; stroke-dashoffset: 0; stroke-linejoin: miter; stroke-miterlimit: 4; is-custom-font: none; font-file-url: none; fill: rgb(33,50,91); fill-rule: nonzero; opacity: 1;" transform=" translate(-74.9, -25.6)" d="M 76.9 23.3 H 74.3 V 25 H 76.6 V 26.1 H 74.3 V 28 H 76.9 V 29.1 H 72.9 V 22.1 H 76.9 V 23.3 Z" stroke-linecap="round"/>
</g>
		<g transform="matrix(1 0 0 1 13.75 -9.4)" clip-path="url(#CLIPPATH_214)">
<clipPath id="CLIPPATH_214">
	<rect transform="matrix(1 0 0 1 -13.75 9.4)" id="clip0" x="-67.5" y="-35" rx="0" ry="0" width="135" height="70"/>
</clipPath>
<path style="stroke: none; stroke-width: 1; stroke-dasharray: none; stroke-linecap: butt; stroke-dashoffset: 0; stroke-linejoin: miter; stroke-miterlimit: 4; is-custom-font: none; font-file-url: none; fill: rgb(33,50,91); fill-rule: nonzero; opacity: 1;" transform=" translate(-81.25, -25.6)" d="M 84.3 25.6 C 84.3 27.7 82.9 29.1 80.6 29.1 H 78.2 V 22.1 H 80.6 C 82.8 22.1 84.3 23.5 84.3 25.6 Z M 80.6 27.9 C 82.1 27.9 82.9 27.1 82.9 25.6 C 82.9 24.1 82.1 23.3 80.6 23.3 H 79.6 V 27.9 H 80.6 Z" stroke-linecap="round"/>
</g>
		<g transform="matrix(1 0 0 1 20.15 -9.35)" clip-path="url(#CLIPPATH_215)">
<clipPath id="CLIPPATH_215">
	<rect transform="matrix(1 0 0 1 -20.15 9.35)" id="clip0" x="-67.5" y="-35" rx="0" ry="0" width="135" height="70"/>
</clipPath>
<path style="stroke: none; stroke-width: 1; stroke-dasharray: none; stroke-linecap: butt; stroke-dashoffset: 0; stroke-linejoin: miter; stroke-miterlimit: 4; is-custom-font: none; font-file-url: none; fill: rgb(33,50,91); fill-rule: nonzero; opacity: 1;" transform=" translate(-87.65, -25.65)" d="M 87.7 29.2 C 86.3 29.2 85.1 28.4 85.1 27.1 H 86.6 C 86.6 27.7 87 28 87.7 28 C 88.4 28 88.7 27.7 88.7 27.2 C 88.7 25.7 85.1 26.6 85.1 24.1 C 85.1 22.8 86.1 22.1 87.6 22.1 C 89 22.1 90 22.8 90.1 24.1 H 88.6 C 88.6 23.6 88.2 23.3 87.6 23.3 C 87.1 23.3 86.6 23.6 86.6 24.1 C 86.6 25.5 90.2 24.7 90.2 27.2 C 90.2 28.2 89.3 29.2 87.7 29.2 Z" stroke-linecap="round"/>
</g>
		<g transform="matrix(1 0 0 1 29.5 -9.4)" clip-path="url(#CLIPPATH_216)">
<clipPath id="CLIPPATH_216">
	<rect transform="matrix(1 0 0 1 -29.5 9.4)" id="clip0" x="-67.5" y="-35" rx="0" ry="0" width="135" height="70"/>
</clipPath>
<path style="stroke: none; stroke-width: 1; stroke-dasharray: none; stroke-linecap: butt; stroke-dashoffset: 0; stroke-linejoin: miter; stroke-miterlimit: 4; is-custom-font: none; font-file-url: none; fill: rgb(33,50,91); fill-rule: nonzero; opacity: 1;" transform=" translate(-97, -25.6)" d="M 97 29.2 C 95 29.2 93.4 27.7 93.4 25.6 C 93.4 23.5 95 22 97 22 C 99 22 100.6 23.5 100.6 25.6 C 100.6 27.7 99 29.2 97 29.2 Z M 97 27.9 C 98.3 27.9 99.1 27 99.1 25.6 C 99.1 24.2 98.2 23.3 97 23.3 C 95.7 23.3 94.9 24.2 94.9 25.6 C 94.9 27 95.8 27.9 97 27.9 Z" stroke-linecap="round"/>
</g>
		<g transform="matrix(1 0 0 1 36.35 -9.45)" clip-path="url(#CLIPPATH_217)">
<clipPath id="CLIPPATH_217">
	<rect transform="matrix(1 0 0 1 -36.35 9.45)" id="clip0" x="-67.5" y="-35" rx="0" ry="0" width="135" height="70"/>
</clipPath>
<path style="stroke: none; stroke-width: 1; stroke-dasharray: none; stroke-linecap: butt; stroke-dashoffset: 0; stroke-linejoin: miter; stroke-miterlimit: 4; is-custom-font: none; font-file-url: none; fill: rgb(33,50,91); fill-rule: nonzero; opacity: 1;" transform=" translate(-103.85, -25.55)" d="M 101.7 22.1 H 106 V 23.2 H 103.1 V 25 H 105.3 V 26.1 H 103.1 V 29 H 101.7 V 22.1 Z" stroke-linecap="round"/>
</g>
		<g transform="matrix(1 0 0 1 -20.1001 4.6501)" clip-path="url(#CLIPPATH_218)">
<clipPath id="CLIPPATH_218">
	<rect transform="matrix(1 0 0 1 20.1001 -4.6501)" id="clip0" x="-67.5" y="-35" rx="0" ry="0" width="135" height="70"/>
</clipPath>
<path style="stroke: none; stroke-width: 1; stroke-dasharray: none; stroke-linecap: butt; stroke-dashoffset: 0; stroke-linejoin: miter; stroke-miterlimit: 4; is-custom-font: none; font-file-url: none; fill: rgb(33,50,91); fill-rule: nonzero; opacity: 1;" transform=" translate(-47.3999, -39.6501)" d="M 44.8999 36.2001 H 49.9999 V 37.3001 H 48.0999 V 43.1001 H 46.6999 V 37.3001 H 44.7999 V 36.2001 H 44.8999 Z" stroke-linecap="round"/>
</g>
		<g transform="matrix(1 0 0 1 -13.6 4.65)" clip-path="url(#CLIPPATH_219)">
<clipPath id="CLIPPATH_219">
	<rect transform="matrix(1 0 0 1 13.6 -4.65)" id="clip0" x="-67.5" y="-35" rx="0" ry="0" width="135" height="70"/>
</clipPath>
<path style="stroke: none; stroke-width: 1; stroke-dasharray: none; stroke-linecap: butt; stroke-dashoffset: 0; stroke-linejoin: miter; stroke-miterlimit: 4; is-custom-font: none; font-file-url: none; fill: rgb(33,50,91); fill-rule: nonzero; opacity: 1;" transform=" translate(-53.9, -39.65)" d="M 55.4 40.2 H 52.4 V 43.2 H 51 V 36.2 H 52.4 V 39 H 55.4 V 36.1 H 56.8 V 43.1 H 55.4 V 40.2 Z" stroke-linecap="round"/>
</g>
		<g transform="matrix(1 0 0 1 -7.3 4.6)" clip-path="url(#CLIPPATH_220)">
<clipPath id="CLIPPATH_220">
	<rect transform="matrix(1 0 0 1 7.3 -4.6)" id="clip0" x="-67.5" y="-35" rx="0" ry="0" width="135" height="70"/>
</clipPath>
<path style="stroke: none; stroke-width: 1; stroke-dasharray: none; stroke-linecap: butt; stroke-dashoffset: 0; stroke-linejoin: miter; stroke-miterlimit: 4; is-custom-font: none; font-file-url: none; fill: rgb(33,50,91); fill-rule: nonzero; opacity: 1;" transform=" translate(-60.2, -39.6)" d="M 62.2 37.3 H 59.5999 V 39 H 61.9 V 40.1 H 59.5999 V 42 H 62.2 V 43.1 H 58.2 V 36.1 H 62.2 V 37.3 Z" stroke-linecap="round"/>
</g>
		<g transform="matrix(1 0 0 1 0.8999 4.6501)" clip-path="url(#CLIPPATH_221)">
<clipPath id="CLIPPATH_221">
	<rect transform="matrix(1 0 0 1 -0.8999 -4.6501)" id="clip0" x="-67.5" y="-35" rx="0" ry="0" width="135" height="70"/>
</clipPath>
<path style="stroke: none; stroke-width: 1; stroke-dasharray: none; stroke-linecap: butt; stroke-dashoffset: 0; stroke-linejoin: miter; stroke-miterlimit: 4; is-custom-font: none; font-file-url: none; fill: rgb(33,50,91); fill-rule: nonzero; opacity: 1;" transform=" translate(-68.3999, -39.6501)" d="M 65.2999 36.2001 H 66.8999 L 68.3999 39.4001 L 69.8999 36.2001 H 71.4999 L 69.0999 40.7001 V 43.1001 H 67.6999 V 40.7001 L 65.2999 36.2001 Z" stroke-linecap="round"/>
</g>
		<g transform="matrix(1 0 0 1 6.7999 4.6)" clip-path="url(#CLIPPATH_222)">
<clipPath id="CLIPPATH_222">
	<rect transform="matrix(1 0 0 1 -6.7999 -4.6)" id="clip0" x="-67.5" y="-35" rx="0" ry="0" width="135" height="70"/>
</clipPath>
<path style="stroke: none; stroke-width: 1; stroke-dasharray: none; stroke-linecap: butt; stroke-dashoffset: 0; stroke-linejoin: miter; stroke-miterlimit: 4; is-custom-font: none; font-file-url: none; fill: rgb(33,50,91); fill-rule: nonzero; opacity: 1;" transform=" translate(-74.2999, -39.6)" d="M 76.2999 37.3 H 73.6999 V 39 H 75.9999 V 40.1 H 73.6999 V 42 H 76.2999 V 43.1 H 72.2999 V 36.1 H 76.2999 V 37.3 Z" stroke-linecap="round"/>
</g>
		<g transform="matrix(1 0 0 1 12.8 4.6)" clip-path="url(#CLIPPATH_223)">
<clipPath id="CLIPPATH_223">
	<rect transform="matrix(1 0 0 1 -12.8 -4.6)" id="clip0" x="-67.5" y="-35" rx="0" ry="0" width="135" height="70"/>
</clipPath>
<path style="stroke: none; stroke-width: 1; stroke-dasharray: none; stroke-linecap: butt; stroke-dashoffset: 0; stroke-linejoin: miter; stroke-miterlimit: 4; is-custom-font: none; font-file-url: none; fill: rgb(33,50,91); fill-rule: nonzero; opacity: 1;" transform=" translate(-80.3, -39.6)" d="M 81.8 41.8 H 79 L 78.5 43.1 H 77 L 79.5 36.1 H 81.1 L 83.6 43.1 H 82.1 L 81.8 41.8 Z M 80.5 37.8 L 79.5 40.7 H 81.5 L 80.5 37.8 Z" stroke-linecap="round"/>
</g>
		<g transform="matrix(1 0 0 1 19.8 4.6)" clip-path="url(#CLIPPATH_224)">
<clipPath id="CLIPPATH_224">
	<rect transform="matrix(1 0 0 1 -19.8 -4.6)" id="clip0" x="-67.5" y="-35" rx="0" ry="0" width="135" height="70"/>
</clipPath>
<path style="stroke: none; stroke-width: 1; stroke-dasharray: none; stroke-linecap: butt; stroke-dashoffset: 0; stroke-linejoin: miter; stroke-miterlimit: 4; is-custom-font: none; font-file-url: none; fill: rgb(33,50,91); fill-rule: nonzero; opacity: 1;" transform=" translate(-87.3, -39.6)" d="M 87.3 36.2 C 89 36.2 89.8 37.2 89.8 38.3 C 89.8 39.1 89.3 40 88.2 40.3 L 89.9 43.1 H 88.3 L 86.8 40.4 H 86.1 V 43.1 H 84.7 V 36.1 H 87.3 V 36.2 Z M 87.3 37.3 H 86.1 V 39.3 H 87.3 C 88.1 39.3 88.4 38.9 88.4 38.3 C 88.4 37.7 88.1 37.3 87.3 37.3 Z" stroke-linecap="round"/>
</g>
		<g transform="matrix(1 0 0 1 -0.0121 -25.0692)" clip-path="url(#CLIPPATH_225)">
<clipPath id="CLIPPATH_225">
	<rect transform="matrix(1 0 0 1 0.0121 25.0692)" id="clip0" x="-67.5" y="-35" rx="0" ry="0" width="135" height="70"/>
</clipPath>
<path style="stroke: none; stroke-width: 1; stroke-dasharray: none; stroke-linecap: butt; stroke-dashoffset: 0; stroke-linejoin: miter; stroke-miterlimit: 4; is-custom-font: none; font-file-url: none; fill: rgb(33,50,91); fill-rule: nonzero; opacity: 1;" transform=" translate(-67.4879, -9.9308)" d="M 67.7 5.69999 L 68.9 8.19999 C 69 8.29999 69 8.29999 69.1 8.29999 L 71.9 8.69999 C 72 8.69999 72.1 8.89999 72 8.99999 L 70 11 C 69.9 11.1 69.9 11.1 69.9 11.2 L 70.4 14 C 70.5 14.2 70.2 14.3 70.1 14.2 L 67.6 13 C 67.5 13 67.5 13 67.4 13 L 64.9 14.3 C 64.7 14.4 64.6 14.2 64.6 14.1 L 65.1 11.3 C 65.1 11.2 65.1 11.2 65 11.1 L 63 8.99999 C 62.9 8.89999 62.9 8.69999 63.1 8.69999 L 65.9 8.29999 C 66 8.29999 66 8.19999 66.1 8.19999 L 67.3 5.59999 C 67.4 5.49999 67.6 5.49999 67.7 5.69999 Z" stroke-linecap="round"/>
</g>
		<g transform="matrix(1 0 0 1 10.9293 -25.1168)" clip-path="url(#CLIPPATH_226)">
<clipPath id="CLIPPATH_226">
	<rect transform="matrix(1 0 0 1 -10.9293 25.1168)" id="clip0" x="-67.5" y="-35" rx="0" ry="0" width="135" height="70"/>
</clipPath>
<path style="stroke: none; stroke-width: 1; stroke-dasharray: none; stroke-linecap: butt; stroke-dashoffset: 0; stroke-linejoin: miter; stroke-miterlimit: 4; is-custom-font: none; font-file-url: none; fill: rgb(33,50,91); fill-rule: nonzero; opacity: 1;" transform=" translate(-78.4293, -9.8832)" d="M 78.5 7.29998 L 79.3 8.89998 L 79.4 8.99998 L 81.1 9.19998 C 81.2 9.19998 81.2 9.29998 81.2 9.39998 L 80 10.6 V 10.7 L 80.3 12.4 C 80.3 12.5 80.2 12.6 80.1 12.5 L 78.5 11.7 H 78.4 L 76.9 12.5 C 76.8 12.5 76.7 12.5 76.7 12.4 L 77 10.7 V 10.6 L 75.7 9.39998 C 75.6 9.29998 75.7 9.19998 75.8 9.19998 L 77.4 8.99998 C 77.4 8.99998 77.5 8.99998 77.5 8.89998 L 78.3 7.29998 C 78.4 7.19998 78.5 7.19998 78.5 7.29998 Z" stroke-linecap="round"/>
</g>
		<g transform="matrix(1 0 0 1 -11.0707 -25.1168)" clip-path="url(#CLIPPATH_227)">
<clipPath id="CLIPPATH_227">
	<rect transform="matrix(1 0 0 1 11.0707 25.1168)" id="clip0" x="-67.5" y="-35" rx="0" ry="0" width="135" height="70"/>
</clipPath>
<path style="stroke: none; stroke-width: 1; stroke-dasharray: none; stroke-linecap: butt; stroke-dashoffset: 0; stroke-linejoin: miter; stroke-miterlimit: 4; is-custom-font: none; font-file-url: none; fill: rgb(33,50,91); fill-rule: nonzero; opacity: 1;" transform=" translate(-56.4293, -9.8832)" d="M 56.5 7.29998 L 57.3 8.89998 L 57.4 8.99998 L 59.1 9.19998 C 59.2 9.19998 59.2 9.29998 59.2 9.39998 L 58 10.6 V 10.7 L 58.3 12.4 C 58.3 12.5 58.2 12.6 58.1 12.5 L 56.5 11.7 H 56.4 L 54.9 12.5 C 54.8 12.5 54.7 12.5 54.7 12.4 L 55 10.7 V 10.6 L 53.7 9.39998 C 53.6 9.29998 53.7 9.19998 53.8 9.19998 L 55.4 8.99998 C 55.4 8.99998 55.5 8.99998 55.5 8.89998 L 56.3 7.29998 C 56.4 7.19998 56.5 7.19998 56.5 7.29998 Z" stroke-linecap="round"/>
</g>
</g>
</g>
<g transform="matrix(1.5662 0 0 1 499.9974 544.1767)" id="856878">
<path style="stroke: none; stroke-width: 1; stroke-dasharray: none; stroke-linecap: butt; stroke-dashoffset: 0; stroke-linejoin: miter; stroke-miterlimit: 4; is-custom-font: none; font-file-url: none; fill: rgb(255,255,255); fill-rule: nonzero; opacity: 1;" vector-effect="non-scaling-stroke" transform=" translate(-256, -256)" d="M 340.8 83 C 307 83 276 98.8 256 124.8 c -20 -26 -51 -41.8 -84.8 -41.8 C 112.1 83 64 131.3 64 190.7 c 0 27.9 10.6 54.4 29.9 74.6 L 245.1 418 l 10.9 11 l 10.9 -11 l 148.3 -149.8 c 21 -20.3 32.8 -47.9 32.8 -77.5 C 448 131.3 399.9 83 340.8 83 L 340.8 83 z" stroke-linecap="round"/>
</g>
<g transform="matrix(1 0 0 1 500 500)" style="" id="746282">
		
<path xml:space="preserve" font-family="Fjalla One" font-size="99" style="stroke: none; stroke-width: 0; stroke-dasharray: none; stroke-linecap: butt; stroke-dashoffset: 0; stroke-linejoin: miter; stroke-miterlimit: 4; is-custom-font: none; font-file-url: none; fill: rgb(40,51,80); fill-rule: nonzero; opacity: 1; white-space: pre;" d="M-317.42-22.04L-317.42-104.60L-304.76-104.60Q-301.95-104.60-298.96-104.41Q-295.96-104.22-293.11-103.59Q-290.26-102.96-287.69-101.73Q-285.13-100.49-283.22-98.42Q-281.31-96.34-280.18-93.27Q-279.04-90.20-279.04-85.90L-279.04-85.90L-279.04-81.88Q-279.04-78.60-279.98-75.84Q-280.93-73.09-282.47-70.98Q-284.02-68.88-286.00-67.50Q-287.98-66.12-290.06-65.64L-290.06-65.64L-290.06-65.25Q-283.92-64.14-280.81-59.43Q-277.69-54.72-277.69-47.37L-277.69-47.37L-277.69-43.16Q-277.69-38.67-278.68-35.36Q-279.67-32.04-281.46-29.70Q-283.25-27.36-285.71-25.86Q-288.18-24.36-291.13-23.51Q-294.08-22.67-297.41-22.35Q-300.75-22.04-304.28-22.04L-304.28-22.04L-317.42-22.04ZM-305.15-69.27L-302.73-69.27Q-300.21-69.27-298.14-69.87Q-296.06-70.47-294.58-71.76Q-293.11-73.04-292.31-75.09Q-291.51-77.15-291.51-80.05L-291.51-80.05L-291.51-83.43Q-291.51-86.33-292.09-88.55Q-292.67-90.78-294.00-92.32Q-295.33-93.87-297.48-94.67Q-299.63-95.47-302.73-95.47L-302.73-95.47L-305.15-95.47L-305.15-69.27ZM-305.15-30.74L-301.57-30.74Q-299.05-30.74-297.00-31.39Q-294.95-32.04-293.47-33.42Q-292.00-34.80-291.20-36.93Q-290.40-39.05-290.40-41.95L-290.40-41.95L-290.40-48.38Q-290.40-51.28-290.98-53.53Q-291.56-55.78-292.89-57.30Q-294.22-58.83-296.35-59.62Q-298.47-60.42-301.57-60.42L-301.57-60.42L-305.15-60.42L-305.15-30.74ZM-266.81-22.04L-266.81-104.60L-236.21-104.60L-236.21-94.74L-254.29-94.74L-254.29-70.04L-240.32-70.04L-240.32-60.18L-254.29-60.18L-254.29-31.90L-235.73-31.90L-235.73-22.04L-266.81-22.04ZM-229.88-38.76L-229.88-38.76Q-229.88-41.42-229.57-43.67Q-229.25-45.92-228.62-48.53L-228.62-48.53L-218.91-48.53L-218.91-44.52Q-218.91-41.18-218.50-38.62Q-218.09-36.06-217.14-34.29Q-216.20-32.53-214.63-31.63Q-213.06-30.74-210.79-30.74L-210.79-30.74Q-207.21-30.74-205.32-32.70Q-203.44-34.66-203.44-38.43L-203.44-38.43Q-203.44-40.36-203.70-41.98Q-203.97-43.60-204.62-45.19Q-205.28-46.79-206.39-48.55Q-207.50-50.32-209.24-52.49L-209.24-52.49L-222.29-68.01Q-225.77-72.46-227.66-76.98Q-229.54-81.50-229.54-86.62L-229.54-86.62Q-229.54-90.73-228.26-94.16Q-226.98-97.59-224.56-100.08Q-222.15-102.57-218.59-103.95Q-215.04-105.33-210.54-105.33L-210.54-105.33Q-205.08-105.33-201.43-103.78Q-197.78-102.23-195.61-99.72Q-193.43-97.21-192.54-94.09Q-191.64-90.97-191.64-87.83L-191.64-87.83Q-191.64-85.17-192.05-82.92Q-192.47-80.67-193.00-77.97L-193.00-77.97L-202.66-77.97L-202.66-81.88Q-202.66-88.46-204.55-91.96Q-206.44-95.47-210.69-95.47L-210.69-95.47Q-214.22-95.47-215.96-93.51Q-217.70-91.55-217.70-88.26L-217.70-88.26Q-217.70-86.52-217.43-85.12Q-217.17-83.72-216.66-82.54Q-216.15-81.35-215.43-80.24Q-214.70-79.13-213.78-77.92L-213.78-77.92L-199.23-60.32Q-195.27-55.15-193.14-50.39Q-191.01-45.63-191.01-40.31L-191.01-40.31Q-191.01-35.91-192.39-32.38Q-193.77-28.85-196.33-26.39Q-198.89-23.92-202.52-22.59Q-206.15-21.26-210.69-21.26L-210.69-21.26Q-216.30-21.26-219.99-22.76Q-223.69-24.26-225.89-26.73Q-228.09-29.19-228.99-32.33Q-229.88-35.48-229.88-38.76ZM-172.84-22.04L-172.84-94.74L-186.13-94.74L-186.13-104.60L-147.07-104.60L-147.07-94.74L-160.32-94.74L-160.32-22.04L-172.84-22.04ZM-120.63-38.76L-120.63-38.76Q-120.63-41.42-120.32-43.67Q-120.00-45.92-119.38-48.53L-119.38-48.53L-109.66-48.53L-109.66-44.52Q-109.66-41.18-109.25-38.62Q-108.84-36.06-107.89-34.29Q-106.95-32.53-105.38-31.63Q-103.81-30.74-101.54-30.74L-101.54-30.74Q-97.96-30.74-96.08-32.70Q-94.19-34.66-94.19-38.43L-94.19-38.43Q-94.19-40.36-94.46-41.98Q-94.72-43.60-95.37-45.19Q-96.03-46.79-97.14-48.55Q-98.25-50.32-99.99-52.49L-99.99-52.49L-113.04-68.01Q-116.52-72.46-118.41-76.98Q-120.29-81.50-120.29-86.62L-120.29-86.62Q-120.29-90.73-119.01-94.16Q-117.73-97.59-115.31-100.08Q-112.90-102.57-109.34-103.95Q-105.79-105.33-101.30-105.33L-101.30-105.33Q-95.83-105.33-92.18-103.78Q-88.53-102.23-86.36-99.72Q-84.18-97.21-83.29-94.09Q-82.40-90.97-82.40-87.83L-82.40-87.83Q-82.40-85.17-82.81-82.92Q-83.22-80.67-83.75-77.97L-83.75-77.97L-93.42-77.97L-93.42-81.88Q-93.42-88.46-95.30-91.96Q-97.19-95.47-101.44-95.47L-101.44-95.47Q-104.97-95.47-106.71-93.51Q-108.45-91.55-108.45-88.26L-108.45-88.26Q-108.45-86.52-108.18-85.12Q-107.92-83.72-107.41-82.54Q-106.90-81.35-106.18-80.24Q-105.45-79.13-104.53-77.92L-104.53-77.92L-89.98-60.32Q-86.02-55.15-83.89-50.39Q-81.77-45.63-81.77-40.31L-81.77-40.31Q-81.77-35.91-83.14-32.38Q-84.52-28.85-87.08-26.39Q-89.65-23.92-93.27-22.59Q-96.90-21.26-101.44-21.26L-101.44-21.26Q-107.05-21.26-110.75-22.76Q-114.44-24.26-116.64-26.73Q-118.84-29.19-119.74-32.33Q-120.63-35.48-120.63-38.76ZM-71.23-22.04L-71.23-104.60L-40.63-104.60L-40.63-94.74L-58.71-94.74L-58.71-70.04L-44.74-70.04L-44.74-60.18L-58.71-60.18L-58.71-31.90L-40.15-31.90L-40.15-22.04L-71.23-22.04ZM-12.83-21.31L-12.83-21.31Q-14.82-21.31-17.14-21.63Q-19.46-21.94-21.73-22.96Q-24.00-23.97-26.10-25.83Q-28.21-27.69-29.83-30.74Q-31.45-33.78-32.41-38.26Q-33.38-42.73-33.38-48.92L-33.38-48.92L-33.38-78.16Q-33.38-84.40-32.39-88.82Q-31.40-93.24-29.75-96.26Q-28.11-99.29-26.01-101.07Q-23.90-102.86-21.61-103.81Q-19.31-104.75-17.04-105.04Q-14.77-105.33-12.83-105.33L-12.83-105.33Q-11.00-105.33-8.75-105.06Q-6.50-104.80-4.25-103.90Q-2.01-103.01 0.12-101.24Q2.25-99.48 3.89-96.46Q5.53-93.44 6.53-88.96Q7.52-84.49 7.52-78.16L7.52-78.16L7.52-48.92Q7.52-42.78 6.50-38.35Q5.49-33.93 3.84-30.86Q2.20-27.79 0.05-25.93Q-2.10-24.07-4.35-23.03Q-6.60-21.99-8.82-21.65Q-11.05-21.31-12.83-21.31ZM-12.83-30.74L-12.83-30.74Q-11.00-30.74-9.62-31.37Q-8.24-32.00-7.35-33.54Q-6.45-35.09-5.99-37.63Q-5.53-40.17-5.53-44.03L-5.53-44.03L-5.53-81.59Q-5.53-85.56-5.99-88.22Q-6.45-90.87-7.35-92.49Q-8.24-94.11-9.62-94.79Q-11.00-95.47-12.83-95.47L-12.83-95.47Q-14.72-95.47-16.12-94.79Q-17.52-94.11-18.44-92.49Q-19.36-90.87-19.82-88.22Q-20.28-85.56-20.28-81.59L-20.28-81.59L-20.28-44.03Q-20.28-40.17-19.82-37.63Q-19.36-35.09-18.44-33.54Q-17.52-32.00-16.12-31.37Q-14.72-30.74-12.83-30.74ZM48.17-22.04L48.17-94.74L34.88-94.74L34.88-104.60L73.94-104.60L73.94-94.74L60.69-94.74L60.69-22.04L48.17-22.04ZM82.40-22.04L82.40-104.60L95.98-104.60Q98.30-104.60 101.08-104.41Q103.86-104.22 106.64-103.47Q109.42-102.72 112.00-101.22Q114.59-99.72 116.60-97.11Q118.60-94.50 119.81-90.56Q121.02-86.62 121.02-81.01L121.02-81.01L121.02-78.93Q121.02-69.51 118.31-63.59Q115.60-57.66 110.34-55.05L110.34-55.05L123.58-22.04L110.34-22.04L99.36-52.93L94.67-52.93L94.67-22.04L82.40-22.04ZM94.67-61.97L96.56-61.97Q99.85-61.97 102.12-62.69Q104.39-63.42 105.79-65.13Q107.19-66.85 107.82-69.68Q108.45-72.51 108.45-76.66L108.45-76.66L108.45-83.19Q108.45-86.38 107.87-88.70Q107.29-91.02 105.91-92.52Q104.53-94.02 102.26-94.74Q99.99-95.47 96.56-95.47L96.56-95.47L94.67-95.47L94.67-61.97ZM126.92-22.04L142.14-104.60L156.55-104.60L171.82-22.04L159.16-22.04L156.89-36.83L141.80-36.83L139.63-22.04L126.92-22.04ZM143.26-46.26L155.44-46.26L149.64-87.39L149.10-87.39L143.26-46.26ZM179.80-22.04L179.80-104.60L211.37-104.60L211.37-94.74L192.32-94.74L192.32-70.04L207.26-70.04L207.26-60.18L192.32-60.18L192.32-22.04L179.80-22.04ZM219.73-22.04L219.73-104.60L251.29-104.60L251.29-94.74L232.25-94.74L232.25-70.04L247.19-70.04L247.19-60.18L232.25-60.18L232.25-22.04L219.73-22.04ZM259.66-22.04L259.66-104.60L272.18-104.60L272.18-22.04L259.66-22.04ZM304.08-21.31L304.08-21.31Q302.15-21.31 299.90-21.63Q297.65-21.94 295.40-22.96Q293.16-23.97 291.10-25.83Q289.05-27.69 287.48-30.74Q285.91-33.78 284.96-38.26Q284.02-42.73 284.02-48.92L284.02-48.92L284.02-78.16Q284.02-84.40 284.99-88.82Q285.95-93.24 287.55-96.26Q289.14-99.29 291.22-101.07Q293.30-102.86 295.53-103.81Q297.75-104.75 299.95-105.04Q302.15-105.33 304.03-105.33L304.03-105.33Q308.96-105.33 312.28-103.95Q315.59-102.57 317.59-100.18Q319.60-97.79 320.44-94.60Q321.29-91.41 321.29-87.83L321.29-87.83Q321.29-85.17 321.02-82.92Q320.76-80.67 320.23-77.97L320.23-77.97L310.08-77.97L310.08-82.17Q310.08-88.99 308.58-92.37Q307.08-95.76 304.18-95.76L304.18-95.76Q302.44-95.76 301.13-95.08Q299.83-94.40 298.96-92.78Q298.09-91.16 297.63-88.51Q297.17-85.85 297.17-81.88L297.17-81.88L297.17-44.18Q297.17-40.31 297.53-37.75Q297.89-35.19 298.72-33.64Q299.54-32.09 300.87-31.44Q302.20-30.79 304.08-30.79L304.08-30.79Q305.29-30.79 306.40-31.34Q307.51-31.90 308.36-33.08Q309.21-34.27 309.71-36.08Q310.22-37.89 310.22-40.36L310.22-40.36L310.22-48.43L321.68-48.43L321.68-40.79Q321.68-30.84 317.13-26.10Q312.59-21.36 304.08-21.31Z"/><path xml:space="preserve" font-family="Fjalla One" font-size="99" style="stroke: none; stroke-width: 0; stroke-dasharray: none; stroke-linecap: butt; stroke-dashoffset: 0; stroke-linejoin: miter; stroke-miterlimit: 4; is-custom-font: none; font-file-url: none; fill: rgb(40,51,80); fill-rule: nonzero; opacity: 1; white-space: pre;" d="M-201.02 84.96L-201.02 84.96Q-203.00 84.96-205.32 84.65Q-207.64 84.33-209.92 83.32Q-212.19 82.30-214.29 80.44Q-216.39 78.58-218.01 75.54Q-219.63 72.49-220.60 68.02Q-221.57 63.55-221.57 57.36L-221.57 57.36L-221.57 28.12Q-221.57 21.88-220.57 17.46Q-219.58 13.03-217.94 10.01Q-216.30 6.99-214.19 5.20Q-212.09 3.41-209.79 2.47Q-207.50 1.53-205.23 1.24Q-202.95 0.95-201.02 0.95L-201.02 0.95Q-199.18 0.95-196.94 1.21Q-194.69 1.48-192.44 2.37Q-190.19 3.27-188.07 5.03Q-185.94 6.80-184.30 9.82Q-182.65 12.84-181.66 17.31Q-180.67 21.78-180.67 28.12L-180.67 28.12L-180.67 57.36Q-180.67 63.50-181.69 67.92Q-182.70 72.35-184.34 75.42Q-185.99 78.49-188.14 80.35Q-190.29 82.21-192.54 83.25Q-194.79 84.29-197.01 84.62Q-199.23 84.96-201.02 84.96ZM-201.02 75.54L-201.02 75.54Q-199.18 75.54-197.81 74.91Q-196.43 74.28-195.53 72.73Q-194.64 71.19-194.18 68.65Q-193.72 66.11-193.72 62.24L-193.72 62.24L-193.72 24.68Q-193.72 20.72-194.18 18.06Q-194.64 15.40-195.53 13.78Q-196.43 12.16-197.81 11.49Q-199.18 10.81-201.02 10.81L-201.02 10.81Q-202.91 10.81-204.31 11.49Q-205.71 12.16-206.63 13.78Q-207.55 15.40-208.01 18.06Q-208.47 20.72-208.47 24.68L-208.47 24.68L-208.47 62.24Q-208.47 66.11-208.01 68.65Q-207.55 71.19-206.63 72.73Q-205.71 74.28-204.31 74.91Q-202.91 75.54-201.02 75.54ZM-168.83 84.24L-168.83 1.67L-137.26 1.67L-137.26 11.53L-156.31 11.53L-156.31 36.24L-141.37 36.24L-141.37 46.10L-156.31 46.10L-156.31 84.24L-168.83 84.24ZM-100.09 84.24L-100.09 11.53L-113.38 11.53L-113.38 1.67L-74.32 1.67L-74.32 11.53L-87.57 11.53L-87.57 84.24L-100.09 84.24ZM-65.86 84.24L-65.86 1.67L-53.34 1.67L-53.34 36.24L-38.50 36.24L-38.50 1.67L-25.98 1.67L-25.98 84.24L-38.50 84.24L-38.50 46.10L-53.34 46.10L-53.34 84.24L-65.86 84.24ZM-11.77 84.24L-11.77 1.67L18.83 1.67L18.83 11.53L0.75 11.53L0.75 36.24L14.72 36.24L14.72 46.10L0.75 46.10L0.75 74.38L19.31 74.38L19.31 84.24L-11.77 84.24ZM59.34 84.24L59.34 56.73L42.71 1.67L55.32 1.67L65.43 41.17L66.01 41.17L76.01 1.67L88.58 1.67L71.86 56.73L71.86 84.24L59.34 84.24ZM95.88 84.24L95.88 1.67L126.48 1.67L126.48 11.53L108.40 11.53L108.40 36.24L122.37 36.24L122.37 46.10L108.40 46.10L108.40 74.38L126.96 74.38L126.96 84.24L95.88 84.24ZM129.87 84.24L145.09 1.67L159.50 1.67L174.77 84.24L162.11 84.24L159.84 69.45L144.75 69.45L142.58 84.24L129.87 84.24ZM146.20 60.02L158.39 60.02L152.58 18.88L152.05 18.88L146.20 60.02ZM182.75 84.24L182.75 1.67L196.33 1.67Q198.65 1.67 201.43 1.87Q204.21 2.06 206.99 2.81Q209.77 3.56 212.36 5.06Q214.94 6.56 216.95 9.17Q218.96 11.78 220.16 15.72Q221.37 19.66 221.37 25.26L221.37 25.26L221.37 27.34Q221.37 36.77 218.67 42.69Q215.96 48.61 210.69 51.22L210.69 51.22L223.93 84.24L210.69 84.24L199.72 53.35L195.03 53.35L195.03 84.24L182.75 84.24ZM195.03 44.31L196.91 44.31Q200.20 44.31 202.47 43.58Q204.74 42.86 206.15 41.14Q207.55 39.43 208.18 36.60Q208.80 33.77 208.80 29.61L208.80 29.61L208.80 23.09Q208.80 19.90 208.22 17.58Q207.64 15.26 206.27 13.76Q204.89 12.26 202.62 11.53Q200.34 10.81 196.91 10.81L196.91 10.81L195.03 10.81L195.03 44.31Z"/></g>
<g transform="matrix(1 0 0 1 500 683.7102)" style="" id="524267">
		
<path xml:space="preserve" font-family="Fjalla One" font-size="92" style="stroke: none; stroke-width: 0; stroke-dasharray: none; stroke-linecap: butt; stroke-dashoffset: 0; stroke-linejoin: miter; stroke-miterlimit: 4; is-custom-font: none; font-file-url: none; fill: rgb(40,51,80); fill-rule: nonzero; opacity: 1; white-space: pre;" d="M-85.78 28.90L-85.78 22.07L-68.84-10.54Q-66.51-14.99-65.05-18.31Q-63.59-21.64-62.76-24.13Q-61.92-26.62-61.61-28.46Q-61.30-30.31-61.30-31.79L-61.30-31.79Q-61.30-34.12-61.72-35.72Q-62.15-37.31-62.98-38.28Q-63.81-39.25-65.05-39.65Q-66.28-40.05-67.90-40.05L-67.90-40.05Q-71.85-40.05-73.63-36.80Q-75.40-33.54-75.40-27.43L-75.40-27.43L-75.40-23.07L-84.39-23.07Q-84.88-25.59-85.24-27.68Q-85.60-29.77-85.60-32.24L-85.60-32.24Q-85.60-35.16-84.59-38.06Q-83.58-40.95-81.42-43.29Q-79.26-45.62-75.92-47.06Q-72.57-48.50-67.90-48.50L-67.90-48.50Q-62.87-48.50-59.30-47.33Q-55.73-46.16-53.43-43.92Q-51.14-41.67-50.09-38.44Q-49.03-35.20-49.03-31.11L-49.03-31.11Q-49.03-28.78-49.46-26.51Q-49.89-24.24-50.87-21.66Q-51.86-19.08-53.43-16.02Q-55.01-12.97-57.30-9.01L-57.30-9.01L-72.44 19.74L-50.02 19.74L-50.02 28.90L-85.78 28.90ZM-41.08 6.53L-41.08-25.90Q-41.08-30.94-40.16-34.60Q-39.24-38.26-37.73-40.75Q-36.23-43.24-34.25-44.77Q-32.28-46.30-30.19-47.13Q-28.10-47.96-26.01-48.23Q-23.92-48.50-22.17-48.50L-22.17-48.50Q-20.51-48.50-18.46-48.25Q-16.42-48.01-14.33-47.22Q-12.24-46.43-10.29-44.93Q-8.33-43.42-6.83-40.91Q-5.32-38.39-4.40-34.71Q-3.48-31.02-3.48-25.90L-3.48-25.90L-3.48 6.53Q-3.48 11.56-4.40 15.22Q-5.32 18.88-6.85 21.44Q-8.38 24.00-10.35 25.60Q-12.33 27.19-14.40 28.07Q-16.46 28.95-18.51 29.26Q-20.55 29.57-22.17 29.57L-22.17 29.57Q-23.97 29.57-26.08 29.26Q-28.19 28.95-30.30 28.07Q-32.41 27.19-34.37 25.62Q-36.32 24.05-37.80 21.49Q-39.28 18.93-40.18 15.24Q-41.08 11.56-41.08 6.53L-41.08 6.53ZM-29.18-30.13L-29.18 11.43Q-29.18 16.19-27.45 18.34Q-25.72 20.50-22.17 20.50L-22.17 20.50Q-18.71 20.50-17.00 18.34Q-15.30 16.19-15.30 11.43L-15.30 11.43L-15.30-30.13Q-15.30-35.16-17.00-37.45Q-18.71-39.74-22.17-39.74L-22.17-39.74Q-25.72-39.74-27.45-37.45Q-29.18-35.16-29.18-30.13L-29.18-30.13ZM5.82 28.90L5.82 22.07L22.75-10.54Q25.09-14.99 26.55-18.31Q28.01-21.64 28.84-24.13Q29.67-26.62 29.99-28.46Q30.30-30.31 30.30-31.79L30.30-31.79Q30.30-34.12 29.87-35.72Q29.45-37.31 28.62-38.28Q27.78-39.25 26.55-39.65Q25.31-40.05 23.70-40.05L23.70-40.05Q19.74-40.05 17.97-36.80Q16.19-33.54 16.19-27.43L16.19-27.43L16.19-23.07L7.21-23.07Q6.72-25.59 6.36-27.68Q6.00-29.77 6.00-32.24L6.00-32.24Q6.00-35.16 7.01-38.06Q8.02-40.95 10.17-43.29Q12.33-45.62 15.68-47.06Q19.02-48.50 23.70-48.50L23.70-48.50Q28.73-48.50 32.30-47.33Q35.87-46.16 38.16-43.92Q40.45-41.67 41.51-38.44Q42.56-35.20 42.56-31.11L42.56-31.11Q42.56-28.78 42.14-26.51Q41.71-24.24 40.72-21.66Q39.73-19.08 38.16-16.02Q36.59-12.97 34.30-9.01L34.30-9.01L19.16 19.74L41.58 19.74L41.58 28.90L5.82 28.90ZM50.38 28.90L50.38 22.07L67.32-10.54Q69.65-14.99 71.11-18.31Q72.57-21.64 73.40-24.13Q74.23-26.62 74.55-28.46Q74.86-30.31 74.86-31.79L74.86-31.79Q74.86-34.12 74.44-35.72Q74.01-37.31 73.18-38.28Q72.35-39.25 71.11-39.65Q69.88-40.05 68.26-40.05L68.26-40.05Q64.31-40.05 62.53-36.80Q60.76-33.54 60.76-27.43L60.76-27.43L60.76-23.07L51.77-23.07Q51.28-25.59 50.92-27.68Q50.56-29.77 50.56-32.24L50.56-32.24Q50.56-35.16 51.57-38.06Q52.58-40.95 54.74-43.29Q56.89-45.62 60.24-47.06Q63.59-48.50 68.26-48.50L68.26-48.50Q73.29-48.50 76.86-47.33Q80.43-46.16 82.72-43.92Q85.01-41.67 86.07-38.44Q87.13-35.20 87.13-31.11L87.13-31.11Q87.13-28.78 86.70-26.51Q86.27-24.24 85.28-21.66Q84.30-19.08 82.72-16.02Q81.15-12.97 78.86-9.01L78.86-9.01L63.72 19.74L86.14 19.74L86.14 28.90L50.38 28.90Z"/></g>
</svg>