<svg xmlns="http://www.w3.org/2000/svg" xmlns:xlink="http://www.w3.org/1999/xlink" version="1.1" width="1000" height="1000" viewBox="0 0 1000 1000" xml:space="preserve">
<desc>Created with Fabric.js 3.5.0</desc>
<defs>
</defs>
<rect x="0" y="0" width="100%" height="100%" fill="#ffffff"/>
<g transform="matrix(6.734 0 0 6.734 499.9995 499.9998)" id="639319">
<g style="" vector-effect="non-scaling-stroke">
		<g transform="matrix(1 0 0 1 65.5715 -6.3)" clip-path="url(#CLIPPATH_60)">
<clipPath id="CLIPPATH_60">
	<rect transform="matrix(1 0 0 1 -65.5716 6.3)" id="clip0" x="-67.5" y="-35" rx="0" ry="0" width="135" height="70"/>
</clipPath>
<path style="stroke: none; stroke-width: 1; stroke-dasharray: none; stroke-linecap: butt; stroke-dashoffset: 0; stroke-linejoin: miter; stroke-miterlimit: 4; is-custom-font: none; font-file-url: none; fill: rgb(33,50,91); fill-rule: evenodd; opacity: 1;" transform=" translate(-133.0716, -28.7)" d="M 133.386 25.2999 C 132.886 25.8999 132.386 26.5999 131.986 27.2999 C 131.586 28.0999 131.386 29 131.386 29.9 C 131.286 31 131.486 32.1 131.386 33.2 C 132.186 32.4 132.886 31.5 133.386 30.5 C 133.686 30 133.986 29.5 134.086 29 C 134.286 28.4 134.286 27.8 134.286 27.2 C 134.286 26.9 134.286 26.6 134.286 26.4 C 134.286 26.1 134.586 25.8 134.586 25.4 C 134.686 25 134.586 24.6 134.786 24.2 C 134.286 24.4 133.886 24.8 133.586 25.1 C 133.486 25.2 133.386 25.1999 133.386 25.2999 Z" stroke-linecap="round"/>
</g>
		<g transform="matrix(1 0 0 1 65.386 1.1999)" clip-path="url(#CLIPPATH_61)">
<clipPath id="CLIPPATH_61">
	<rect transform="matrix(1 0 0 1 -65.386 -1.1999)" id="clip0" x="-67.5" y="-35" rx="0" ry="0" width="135" height="70"/>
</clipPath>
<path style="stroke: none; stroke-width: 1; stroke-dasharray: none; stroke-linecap: butt; stroke-dashoffset: 0; stroke-linejoin: miter; stroke-miterlimit: 4; is-custom-font: none; font-file-url: none; fill: rgb(33,50,91); fill-rule: evenodd; opacity: 1;" transform=" translate(-132.886, -36.1999)" d="M 134.486 35.6999 C 134.386 36.3999 134.086 36.9999 133.786 37.5999 C 133.586 37.8999 133.386 38.1999 133.086 38.4999 C 132.786 38.7999 132.386 39.0999 132.086 39.2999 C 131.786 39.4999 131.586 39.5999 131.286 39.6999 C 131.086 39.7999 130.886 39.8999 130.686 39.9999 C 130.786 39.7999 130.786 39.4999 130.786 39.2999 C 130.786 38.9999 130.886 38.6999 130.986 38.2999 C 131.086 37.6999 131.186 37.1999 131.486 36.6999 C 131.686 36.1999 131.986 35.6999 132.186 35.1999 C 132.486 34.6999 132.886 34.2999 133.286 33.8999 C 133.586 33.5999 133.886 33.2999 134.286 33.0999 C 134.586 32.8999 134.886 32.6999 135.086 32.3999 C 134.786 32.7999 134.886 33.5999 134.886 34.0999 C 134.686 34.5999 134.586 35.1999 134.486 35.6999 Z" stroke-linecap="round"/>
</g>
		<g transform="matrix(1 0 0 1 52.7782 17.0035)" clip-path="url(#CLIPPATH_62)">
<clipPath id="CLIPPATH_62">
	<rect transform="matrix(1 0 0 1 -52.7782 -17.0035)" id="clip0" x="-67.5" y="-35" rx="0" ry="0" width="135" height="70"/>
</clipPath>
<path style="stroke: none; stroke-width: 1; stroke-dasharray: none; stroke-linecap: butt; stroke-dashoffset: 0; stroke-linejoin: miter; stroke-miterlimit: 4; is-custom-font: none; font-file-url: none; fill: rgb(33,50,91); fill-rule: evenodd; opacity: 1;" transform=" translate(-120.2782, -52.0035)" d="M 121.086 56 C 121.286 54.9 121.686 53.8 121.586 52.7 C 121.486 51.4 120.686 50.4 120.486 49.1 C 120.386 48.7 120.386 48.4 120.586 48 C 120.386 48.2 120.186 48.3 119.986 48.6 C 119.786 48.8 119.686 49.1 119.486 49.4 C 119.286 49.9 119.186 50.4 119.086 50.9 C 118.886 52 118.886 53.4 119.286 54.4 C 119.586 55.1 120.186 56.1 121.086 56 C 121.086 55.8 121.186 55.6 121.186 55.4 L 121.086 56 Z" stroke-linecap="round"/>
</g>
		<g transform="matrix(1 0 0 1 49.2294 22.1)" clip-path="url(#CLIPPATH_63)">
<clipPath id="CLIPPATH_63">
	<rect transform="matrix(1 0 0 1 -49.2294 -22.1)" id="clip0" x="-67.5" y="-35" rx="0" ry="0" width="135" height="70"/>
</clipPath>
<path style="stroke: none; stroke-width: 1; stroke-dasharray: none; stroke-linecap: butt; stroke-dashoffset: 0; stroke-linejoin: miter; stroke-miterlimit: 4; is-custom-font: none; font-file-url: none; fill: rgb(33,50,91); fill-rule: evenodd; opacity: 1;" transform=" translate(-116.7294, -57.1)" d="M 115.586 59.3 C 115.786 59.9 116.086 60.4 116.486 60.8 C 116.586 60.9 116.686 61 116.786 61.2 C 116.886 61.1 116.786 60.9 116.886 60.7 C 116.986 60.4 117.186 60.1 117.486 59.9 C 117.786 59.4 117.986 58.8 118.086 58.2 C 118.186 57.5 118.086 56.9 117.986 56.2 C 117.786 55.6 117.586 55 117.286 54.4 C 117.086 53.9 116.986 53.5 116.886 53 C 116.786 53.5 116.486 53.9 116.286 54.3 C 116.086 54.8 115.886 55.3 115.686 55.8 C 115.286 57 115.186 58.2 115.586 59.3 Z" stroke-linecap="round"/>
</g>
		<g transform="matrix(1 0 0 1 56.3235 -27.1289)" clip-path="url(#CLIPPATH_64)">
<clipPath id="CLIPPATH_64">
	<rect transform="matrix(1 0 0 1 -56.3235 27.1289)" id="clip0" x="-67.5" y="-35" rx="0" ry="0" width="135" height="70"/>
</clipPath>
<path style="stroke: none; stroke-width: 1; stroke-dasharray: none; stroke-linecap: butt; stroke-dashoffset: 0; stroke-linejoin: miter; stroke-miterlimit: 4; is-custom-font: none; font-file-url: none; fill: rgb(33,50,91); fill-rule: evenodd; opacity: 1;" transform=" translate(-123.8235, -7.8711)" d="M 124.686 11.7999 C 124.386 11.8999 124.286 11.0999 124.186 10.8999 C 123.886 10.3999 123.486 10.0999 123.286 9.6999 C 122.786 8.7999 122.486 7.8999 122.386 6.8999 C 122.286 6.3999 122.286 5.8999 122.286 5.3999 C 122.286 4.9999 122.286 4.2999 122.686 3.9999 C 122.986 3.6999 123.286 4.4999 123.386 4.7999 C 123.586 5.2999 123.786 5.6999 123.986 6.1999 C 124.286 6.5999 124.586 6.9999 124.786 7.4999 C 124.986 7.9999 125.186 8.4999 125.286 9.0999 C 125.386 9.5999 125.386 10.0999 125.286 10.5999 C 125.186 10.8999 125.086 11.6999 124.686 11.7999 Z" stroke-linecap="round"/>
</g>
		<g transform="matrix(1 0 0 1 60.676 -21.1824)" clip-path="url(#CLIPPATH_65)">
<clipPath id="CLIPPATH_65">
	<rect transform="matrix(1 0 0 1 -60.6759 21.1824)" id="clip0" x="-67.5" y="-35" rx="0" ry="0" width="135" height="70"/>
</clipPath>
<path style="stroke: none; stroke-width: 1; stroke-dasharray: none; stroke-linecap: butt; stroke-dashoffset: 0; stroke-linejoin: miter; stroke-miterlimit: 4; is-custom-font: none; font-file-url: none; fill: rgb(33,50,91); fill-rule: evenodd; opacity: 1;" transform=" translate(-128.1759, -13.8176)" d="M 129.086 17.6 C 128.886 17.9 128.686 18.4 128.386 18.5 C 127.886 18.7 127.486 18 127.286 17.6 C 126.986 17 126.886 16.4 126.786 15.7 C 126.686 15.1 126.786 14.6 126.786 14 C 126.786 13.4 126.886 12.8 126.986 12.2 C 127.086 11.6 127.286 11 127.486 10.4 C 127.586 10.2 127.686 9.89998 127.686 9.69998 C 127.786 9.49998 127.686 9.29998 127.886 9.09998 C 128.186 9.49998 128.286 10.1 128.486 10.5 C 128.786 11 128.986 11.5 129.186 12.1 C 129.486 13.3 129.786 14.5 129.486 15.8 C 129.486 16.5 129.386 17.1 129.086 17.6 Z" stroke-linecap="round"/>
</g>
		<g transform="matrix(1 0 0 1 51.636 -25.9778)" clip-path="url(#CLIPPATH_66)">
<clipPath id="CLIPPATH_66">
	<rect transform="matrix(1 0 0 1 -51.636 25.9778)" id="clip0" x="-67.5" y="-35" rx="0" ry="0" width="135" height="70"/>
</clipPath>
<path style="stroke: none; stroke-width: 1; stroke-dasharray: none; stroke-linecap: butt; stroke-dashoffset: 0; stroke-linejoin: miter; stroke-miterlimit: 4; is-custom-font: none; font-file-url: none; fill: rgb(33,50,91); fill-rule: evenodd; opacity: 1;" transform=" translate(-119.136, -9.0222)" d="M 116.286 7.19995 C 116.686 7.19995 117.286 7.39995 117.686 7.59995 C 118.286 7.79995 118.986 7.99995 119.586 8.29995 C 120.086 8.59995 120.586 8.89995 120.986 9.29995 C 121.386 9.69995 121.786 10.3 121.986 10.8 C 121.586 10.9 121.186 10.8 120.786 10.8 C 120.386 10.8 119.986 10.7 119.586 10.5 C 119.086 10.3 118.586 9.89995 118.186 9.49995 C 117.586 8.89995 116.886 8.09995 116.286 7.19995 Z" stroke-linecap="round"/>
</g>
		<g transform="matrix(1 0 0 1 54.836 -20.5)" clip-path="url(#CLIPPATH_67)">
<clipPath id="CLIPPATH_67">
	<rect transform="matrix(1 0 0 1 -54.836 20.5)" id="clip0" x="-67.5" y="-35" rx="0" ry="0" width="135" height="70"/>
</clipPath>
<path style="stroke: none; stroke-width: 1; stroke-dasharray: none; stroke-linecap: butt; stroke-dashoffset: 0; stroke-linejoin: miter; stroke-miterlimit: 4; is-custom-font: none; font-file-url: none; fill: rgb(33,50,91); fill-rule: evenodd; opacity: 1;" transform=" translate(-122.336, -14.5)" d="M 122.786 13.7 C 123.786 14.4 124.586 15.4 124.986 16.6 C 124.686 16.8 124.286 16.9 123.886 16.9 C 122.786 16.9 121.786 16.1 121.186 15.2 C 120.886 14.7 120.586 14.1 120.286 13.6 C 120.086 13.1 119.886 12.6 119.686 12.1 C 120.186 12.3 120.686 12.6 121.186 12.8 C 121.686 13.1 122.186 13.4 122.786 13.7 Z" stroke-linecap="round"/>
</g>
		<g transform="matrix(1 0 0 1 63.5926 -13.9)" clip-path="url(#CLIPPATH_68)">
<clipPath id="CLIPPATH_68">
	<rect transform="matrix(1 0 0 1 -63.5926 13.9)" id="clip0" x="-67.5" y="-35" rx="0" ry="0" width="135" height="70"/>
</clipPath>
<path style="stroke: none; stroke-width: 1; stroke-dasharray: none; stroke-linecap: butt; stroke-dashoffset: 0; stroke-linejoin: miter; stroke-miterlimit: 4; is-custom-font: none; font-file-url: none; fill: rgb(33,50,91); fill-rule: evenodd; opacity: 1;" transform=" translate(-131.0926, -21.1)" d="M 132.186 21.9 C 131.986 22.7 131.686 23.6 131.286 24.3 C 130.986 24.8 130.586 25.3 130.186 25.7 C 130.186 25.3 129.986 24.8 129.886 24.5 C 129.886 24.3 129.786 24 129.786 23.8 C 129.786 23.5 129.786 23.2 129.786 22.8 C 129.686 21.7 129.886 20.7 130.186 19.7 C 130.386 19.1 130.686 18.6 130.986 18.1 C 131.186 17.8 131.286 17.5 131.486 17.2 C 131.586 17.1 131.986 16.6 132.086 16.5 C 132.286 16.5 132.286 17.1 132.286 17.2 C 132.386 17.9 132.386 18.5 132.386 19.2 C 132.486 20.1 132.386 21 132.186 21.9 Z" stroke-linecap="round"/>
</g>
		<g transform="matrix(1 0 0 1 59.586 -0.5)" clip-path="url(#CLIPPATH_69)">
<clipPath id="CLIPPATH_69">
	<rect transform="matrix(1 0 0 1 -59.586 0.5)" id="clip0" x="-67.5" y="-35" rx="0" ry="0" width="135" height="70"/>
</clipPath>
<path style="stroke: none; stroke-width: 1; stroke-dasharray: none; stroke-linecap: butt; stroke-dashoffset: 0; stroke-linejoin: miter; stroke-miterlimit: 4; is-custom-font: none; font-file-url: none; fill: rgb(33,50,91); fill-rule: evenodd; opacity: 1;" transform=" translate(-127.086, -34.5)" d="M 125.586 34.3 C 125.486 33.7 125.486 33.2 125.486 32.6 C 125.486 32.1 125.486 31.5 125.586 31.1 C 125.686 31.3 125.686 31.4 125.786 31.6 C 126.086 32.2 126.686 32.6 127.186 33.1 C 127.586 33.5 127.986 34 128.186 34.6 C 128.386 35.1 128.586 35.7 128.586 36.3 C 128.686 36.8 128.686 37.4 128.686 37.9 C 128.186 37.9 127.686 37.3 127.286 37 C 126.386 36.4 125.786 35.4 125.586 34.3 Z" stroke-linecap="round"/>
</g>
		<g transform="matrix(1 0 0 1 56.786 11.4193)" clip-path="url(#CLIPPATH_70)">
<clipPath id="CLIPPATH_70">
	<rect transform="matrix(1 0 0 1 -56.786 -11.4193)" id="clip0" x="-67.5" y="-35" rx="0" ry="0" width="135" height="70"/>
</clipPath>
<path style="stroke: none; stroke-width: 1; stroke-dasharray: none; stroke-linecap: butt; stroke-dashoffset: 0; stroke-linejoin: miter; stroke-miterlimit: 4; is-custom-font: none; font-file-url: none; fill: rgb(33,50,91); fill-rule: evenodd; opacity: 1;" transform=" translate(-124.286, -46.4193)" d="M 124.786 49.7 C 124.586 50.3 124.186 50.2 123.786 49.9 C 123.486 49.7 123.186 49.3 123.186 48.9 C 123.086 48.4 123.086 47.9 123.086 47.5 C 123.086 47 123.086 46.3999 123.086 45.7999 C 123.086 45.2999 123.186 44.7 123.286 44.2 C 123.286 43.7 123.286 43.1 123.386 42.7 C 123.486 43 123.686 43.2 123.886 43.4 C 124.086 43.7 124.386 44.1 124.586 44.5 C 125.186 45.4 125.486 46.4999 125.486 47.5999 C 125.486 48.0999 125.486 48.6 125.286 49.2 C 124.986 49.2 124.886 49.4 124.786 49.7 Z" stroke-linecap="round"/>
</g>
		<g transform="matrix(1 0 0 1 54.3163 28.95)" clip-path="url(#CLIPPATH_71)">
<clipPath id="CLIPPATH_71">
	<rect transform="matrix(1 0 0 1 -54.3163 -28.95)" id="clip0" x="-67.5" y="-35" rx="0" ry="0" width="135" height="70"/>
</clipPath>
<path style="stroke: none; stroke-width: 1; stroke-dasharray: none; stroke-linecap: butt; stroke-dashoffset: 0; stroke-linejoin: miter; stroke-miterlimit: 4; is-custom-font: none; font-file-url: none; fill: rgb(33,50,91); fill-rule: evenodd; opacity: 1;" transform=" translate(-121.8163, -63.95)" d="M 121.186 62.7 C 122.586 62.6 124.086 62.7 125.486 62.6 C 125.186 62.8 125.086 63.1 124.786 63.3 C 124.486 63.5 124.086 63.8 123.786 64 C 123.186 64.4 122.486 64.8 121.786 65 C 121.186 65.2 120.486 65.3 119.886 65.3 C 119.386 65.3 118.686 65.1 118.286 64.7 C 118.086 64.4 118.086 63.9 118.386 63.6 C 118.986 62.7 120.186 62.7 121.186 62.7 Z" stroke-linecap="round"/>
</g>
		<g transform="matrix(1 0 0 1 58.6036 5.65)" clip-path="url(#CLIPPATH_72)">
<clipPath id="CLIPPATH_72">
	<rect transform="matrix(1 0 0 1 -58.6036 -5.65)" id="clip0" x="-67.5" y="-35" rx="0" ry="0" width="135" height="70"/>
</clipPath>
<path style="stroke: none; stroke-width: 1; stroke-dasharray: none; stroke-linecap: butt; stroke-dashoffset: 0; stroke-linejoin: miter; stroke-miterlimit: 4; is-custom-font: none; font-file-url: none; fill: rgb(33,50,91); fill-rule: evenodd; opacity: 1;" transform=" translate(-126.1036, -40.65)" d="M 127.086 44.3 C 126.686 44 126.086 43.8 125.786 43.4 C 124.986 42.5 124.586 41.4 124.486 40.2 C 124.386 39.6 124.486 39 124.586 38.5 C 124.586 38 124.586 37.4 124.686 37 C 124.986 37.5 125.386 37.9 125.786 38.3 C 126.286 38.8 126.786 39.3 127.186 39.9 C 127.686 40.9 127.886 42 127.686 43.1 C 127.486 43.4 127.386 43.9 127.086 44.3 Z" stroke-linecap="round"/>
</g>
		<g transform="matrix(1 0 0 1 64.186 8.55)" clip-path="url(#CLIPPATH_73)">
<clipPath id="CLIPPATH_73">
	<rect transform="matrix(1 0 0 1 -64.186 -8.55)" id="clip0" x="-67.5" y="-35" rx="0" ry="0" width="135" height="70"/>
</clipPath>
<path style="stroke: none; stroke-width: 1; stroke-dasharray: none; stroke-linecap: butt; stroke-dashoffset: 0; stroke-linejoin: miter; stroke-miterlimit: 4; is-custom-font: none; font-file-url: none; fill: rgb(33,50,91); fill-rule: evenodd; opacity: 1;" transform=" translate(-131.686, -43.55)" d="M 130.686 46.3 C 130.186 46.7 129.586 46.8 128.986 47.1 C 129.086 46.3 129.286 45.5 129.686 44.9 C 129.986 44.4 130.286 43.8 130.586 43.3 C 130.886 42.7 131.386 42.2 131.886 41.7 C 132.386 41.3 132.886 41 133.286 40.6 C 133.586 40.3 133.986 40.1 134.386 40 C 134.286 40.3 134.086 40.7 133.986 41 C 133.886 41.4 133.786 41.7 133.586 42.1 C 133.186 43.2 132.786 44.2 131.986 45.1 C 131.686 45.6 131.186 46 130.686 46.3 Z" stroke-linecap="round"/>
</g>
		<g transform="matrix(1 0 0 1 53.486 0)" clip-path="url(#CLIPPATH_74)">
<clipPath id="CLIPPATH_74">
	<rect transform="matrix(1 0 0 1 -53.486 0)" id="clip0" x="-67.5" y="-35" rx="0" ry="0" width="135" height="70"/>
</clipPath>
<path style="stroke: none; stroke-width: 1; stroke-dasharray: none; stroke-linecap: butt; stroke-dashoffset: 0; stroke-linejoin: miter; stroke-miterlimit: 4; is-custom-font: none; font-file-url: none; fill: rgb(33,50,91); fill-rule: evenodd; opacity: 1;" transform=" translate(-120.986, -35)" d="M 129.086 37 C 129.086 34.7 128.986 32.3 128.686 30 C 127.886 30.4 126.586 30 125.986 29.4 C 125.586 28.9 125.286 28.3999 125.086 27.7999 C 124.886 27.2999 124.786 26.7 124.686 26.1 C 124.586 25.7 124.286 25 124.586 24.6 C 124.886 24.8 125.186 25.1 125.386 25.4 C 125.786 25.7 126.186 26 126.486 26.4 C 126.886 26.7 127.286 27 127.586 27.4 C 127.786 27.6 128.086 27.8 128.286 28 C 128.086 26.5 127.786 25.1999 127.486 23.7999 C 127.386 23.7999 127.286 23.7999 127.286 23.7999 C 125.986 23.5999 124.786 22.7 123.986 21.6 C 123.586 21.1 123.186 20.4999 122.886 19.7999 C 122.786 19.4999 122.686 19.3 122.686 19 C 122.586 18.8 122.486 18.4 122.486 18.2 C 122.886 18.4 123.286 18.5999 123.686 18.7999 C 124.286 19.0999 124.786 19.3999 125.286 19.7999 C 125.686 20.0999 126.086 20.4 126.386 20.7 C 126.486 20.8 126.686 20.9 126.786 21 C 124.686 13.5 121.486 8.69995 120.186 6.99995 C 120.086 6.99995 119.286 6.29995 119.186 6.19995 C 118.586 5.69995 117.886 5.39995 117.286 5.09995 C 116.786 4.79995 116.286 4.49995 115.886 4.09995 C 115.486 3.69995 115.286 3.29995 114.886 2.89995 C 114.286 2.09995 113.886 1.09995 113.486 0.199951 C 114.186 0.599951 114.886 0.999951 115.686 1.29995 C 116.386 1.59995 117.086 1.89995 117.786 2.29995 C 118.386 2.69995 118.986 3.19995 119.486 3.69995 C 119.886 4.09995 120.186 4.69995 120.386 5.19995 C 120.486 5.49995 120.786 6.09995 120.786 6.19995 C 122.186 8.09995 130.186 19.8999 130.186 36.5999 C 130.186 41.4999 129.086 46.3 126.886 50.7 C 127.486 50 128.486 49.4999 129.386 49.2999 C 129.886 49.0999 130.386 49.1 130.786 48.9 C 131.286 48.8 131.786 48.6 132.386 48.5 C 132.186 48.5 131.986 48.8 131.886 49 C 131.686 49.3 131.386 49.6 131.186 49.9 C 130.586 50.8 130.186 51.7999 129.486 52.5999 C 129.086 53.0999 128.586 53.5 127.986 53.7 C 127.586 53.9 126.886 53.9999 126.486 53.7999 C 125.986 53.4999 125.986 53 126.086 52.4 C 125.186 54 124.286 55.6 123.186 57 C 123.586 56.8 124.086 56.6 124.586 56.5 C 125.386 56.4 126.186 56.2999 126.986 56.2999 C 127.786 56.1999 128.486 56.1 129.286 56 C 128.586 56.6 127.986 57.3 127.386 58 C 126.986 58.4 126.586 58.7 126.086 59 C 125.686 59.3 125.186 59.5999 124.686 59.7999 C 124.186 59.9999 123.286 60.1 122.786 59.9 C 122.386 59.7 122.086 58.9999 122.186 58.5999 C 122.186 58.5999 122.186 58.6 122.186 58.5 C 116.286 65.8 109.586 69.8 109.586 69.8 V 67.2 C 109.586 67.2 129.086 55.2 129.086 37 Z" stroke-linecap="round"/>
</g>
		<g transform="matrix(1 0 0 1 -53.4998 0)" clip-path="url(#CLIPPATH_75)">
<clipPath id="CLIPPATH_75">
	<rect transform="matrix(1 0 0 1 53.4999 0)" id="clip0" x="-67.5" y="-35" rx="0" ry="0" width="135" height="70"/>
</clipPath>
<path style="stroke: none; stroke-width: 1; stroke-dasharray: none; stroke-linecap: butt; stroke-dashoffset: 0; stroke-linejoin: miter; stroke-miterlimit: 4; is-custom-font: none; font-file-url: none; fill: rgb(33,50,91); fill-rule: evenodd; opacity: 1;" transform=" translate(-14.0001, -35)" d="M 5.89995 37 C 5.89995 34.7 5.99995 32.3 6.29995 30 C 7.09995 30.4 8.39995 30 8.99995 29.4 C 9.39995 28.9 9.69995 28.4 9.89995 27.8 C 10.0999 27.3 10.1999 26.7 10.2999 26.1 C 10.3999 25.7 10.6999 25 10.3999 24.6 C 10.0999 24.8 9.79995 25.1 9.59995 25.4 C 9.19995 25.7 8.79995 26 8.49995 26.4 C 8.09995 26.7 7.69995 27 7.39995 27.4 C 7.19995 27.6 6.89995 27.8 6.69995 28 C 6.89995 26.5 7.19995 25.2 7.49995 23.8 C 7.59995 23.8 7.69995 23.8 7.69995 23.8 C 8.99995 23.6 10.1999 22.7 10.9999 21.6 C 11.3999 21.1 11.7999 20.5 12.0999 19.8 C 12.1999 19.5 12.2999 19.3 12.2999 19 C 12.3999 18.8 12.4999 18.4 12.4999 18.2 C 12.0999 18.4 11.6999 18.6 11.2999 18.8 C 10.6999 19.1 10.1999 19.4 9.69995 19.8 C 9.29995 20.1 8.89995 20.4 8.59995 20.7 C 8.49995 20.8 8.29995 20.9 8.19995 21 C 10.3999 13.4 13.5999 8.59998 14.8999 6.89998 C 14.9999 6.89998 15.7999 6.19998 15.8999 6.09998 C 16.4999 5.69998 17.1999 5.39998 17.7999 4.99998 C 18.2999 4.79998 18.7999 4.39998 19.1999 4.09998 C 19.5999 3.69998 19.7999 3.19998 20.1999 2.79998 C 20.8999 1.99998 21.2999 0.999976 21.5999 0.0999756 C 20.8999 0.599976 20.1999 0.999976 19.3999 1.29998 C 18.6999 1.59998 17.9999 1.89998 17.2999 2.29998 C 16.6999 2.69998 16.0999 3.19998 15.5999 3.69998 C 15.1999 4.09998 14.8999 4.69998 14.6999 5.19998 C 14.5999 5.49998 14.2999 6.09998 14.2999 6.19998 C 12.8999 8.09998 4.89995 19.9 4.89995 36.6 C 4.89995 41.5 5.99995 46.3 8.19995 50.7 C 7.59995 50 6.59995 49.5 5.69995 49.3 C 5.19995 49.1 4.69995 49.1 4.29995 48.9 C 3.79995 48.8 3.29995 48.6 2.69995 48.5 C 2.89995 48.5 3.09995 48.8 3.19995 49 C 3.39995 49.3 3.69995 49.6 3.89995 49.9 C 4.49995 50.8 4.89995 51.8 5.59995 52.6 C 5.99995 53.1 6.49995 53.5 7.09995 53.7 C 7.49995 53.9 8.19995 54 8.59995 53.8 C 9.09995 53.5 9.09995 53 8.99995 52.4 C 9.89995 54 10.7999 55.6 11.8999 57 C 11.4999 56.8 10.9999 56.6 10.4999 56.5 C 9.69995 56.4 8.89995 56.3 8.09995 56.3 C 7.29995 56.2 6.59995 56.1 5.79995 56 C 6.49995 56.6 7.09995 57.3 7.69995 58 C 8.09995 58.4 8.49995 58.7 8.99995 59 C 9.39995 59.3 9.89995 59.6 10.3999 59.8 C 10.8999 60 11.7999 60.1 12.2999 59.9 C 12.6999 59.7 12.9999 59 12.8999 58.6 C 12.8999 58.6 12.8999 58.6 12.8999 58.5 C 18.5999 65.8 25.2999 69.9 25.2999 69.9 V 67.3 C 25.3999 67.2 5.89995 55.2 5.89995 37 Z" stroke-linecap="round"/>
</g>
		<g transform="matrix(1 0 0 1 -58.6168 5.65)" clip-path="url(#CLIPPATH_76)">
<clipPath id="CLIPPATH_76">
	<rect transform="matrix(1 0 0 1 58.6168 -5.65)" id="clip0" x="-67.5" y="-35" rx="0" ry="0" width="135" height="70"/>
</clipPath>
<path style="stroke: none; stroke-width: 1; stroke-dasharray: none; stroke-linecap: butt; stroke-dashoffset: 0; stroke-linejoin: miter; stroke-miterlimit: 4; is-custom-font: none; font-file-url: none; fill: rgb(33,50,91); fill-rule: evenodd; opacity: 1;" transform=" translate(-8.8832, -40.65)" d="M 7.89998 44.3 C 8.39998 44 8.89998 43.8 9.19998 43.4 C 9.99997 42.5 10.4 41.4 10.5 40.2 C 10.6 39.6 10.5 39 10.4 38.5 C 10.4 38 10.4 37.4 10.3 37 C 9.99997 37.5 9.59998 37.9 9.19998 38.3 C 8.69998 38.8 8.19998 39.3 7.79998 39.9 C 7.49998 40.4 7.39998 40.9 7.29998 41.4 C 7.19998 41.9 7.19998 42.5 7.29998 43 C 7.49998 43.4 7.69998 43.9 7.89998 44.3 Z" stroke-linecap="round"/>
</g>
		<g transform="matrix(1 0 0 1 -52.7923 17.0035)" clip-path="url(#CLIPPATH_77)">
<clipPath id="CLIPPATH_77">
	<rect transform="matrix(1 0 0 1 52.7923 -17.0035)" id="clip0" x="-67.5" y="-35" rx="0" ry="0" width="135" height="70"/>
</clipPath>
<path style="stroke: none; stroke-width: 1; stroke-dasharray: none; stroke-linecap: butt; stroke-dashoffset: 0; stroke-linejoin: miter; stroke-miterlimit: 4; is-custom-font: none; font-file-url: none; fill: rgb(33,50,91); fill-rule: evenodd; opacity: 1;" transform=" translate(-14.7077, -52.0035)" d="M 13.8999 56 C 13.6999 54.9 13.2999 53.8 13.3999 52.7 C 13.4999 51.4 14.2999 50.4 14.4999 49.1 C 14.5999 48.7 14.5999 48.4 14.3999 48 C 14.5999 48.2 14.7999 48.3 14.9999 48.6 C 15.1999 48.8 15.2999 49.1 15.4999 49.4 C 15.6999 49.9 15.7999 50.4 15.8999 50.9 C 16.0999 52 16.0999 53.3 15.6999 54.3 C 15.3999 55.1 14.7999 56.1 13.8999 56 C 13.8999 55.8 13.7999 55.6 13.7999 55.4 L 13.8999 56 Z" stroke-linecap="round"/>
</g>
		<g transform="matrix(1 0 0 1 -65.4857 -6.3)" clip-path="url(#CLIPPATH_78)">
<clipPath id="CLIPPATH_78">
	<rect transform="matrix(1 0 0 1 65.4856 6.3)" id="clip0" x="-67.5" y="-35" rx="0" ry="0" width="135" height="70"/>
</clipPath>
<path style="stroke: none; stroke-width: 1; stroke-dasharray: none; stroke-linecap: butt; stroke-dashoffset: 0; stroke-linejoin: miter; stroke-miterlimit: 4; is-custom-font: none; font-file-url: none; fill: rgb(33,50,91); fill-rule: evenodd; opacity: 1;" transform=" translate(-2.0144, -28.7)" d="M 1.69993 25.2999 C 2.29993 25.8999 2.69993 26.5999 3.09993 27.2999 C 3.49993 28.0999 3.69993 29 3.69993 29.9 C 3.79993 31 3.59993 32.1 3.69993 33.2 C 2.89993 32.4 2.19993 31.5 1.69993 30.5 C 1.39993 30 1.09993 29.5 0.999929 29 C 0.799927 28.4 0.799927 27.8 0.799927 27.2 C 0.799927 26.9 0.799927 26.6 0.799927 26.4 C 0.799927 26.1 0.499927 25.8 0.499927 25.4 C 0.399927 25 0.499927 24.6 0.299927 24.2 C 0.799927 24.4 1.19993 24.8 1.49993 25.1 C 1.49993 25.2 1.59993 25.1999 1.69993 25.2999 Z" stroke-linecap="round"/>
</g>
		<g transform="matrix(1 0 0 1 -56.3375 -27.0788)" clip-path="url(#CLIPPATH_79)">
<clipPath id="CLIPPATH_79">
	<rect transform="matrix(1 0 0 1 56.3375 27.0788)" id="clip0" x="-67.5" y="-35" rx="0" ry="0" width="135" height="70"/>
</clipPath>
<path style="stroke: none; stroke-width: 1; stroke-dasharray: none; stroke-linecap: butt; stroke-dashoffset: 0; stroke-linejoin: miter; stroke-miterlimit: 4; is-custom-font: none; font-file-url: none; fill: rgb(33,50,91); fill-rule: evenodd; opacity: 1;" transform=" translate(-11.1625, -7.9212)" d="M 10.3 11.8 C 10.6 11.9 10.7 11.1 10.8 10.9 C 11.1 10.4 11.5 10.1 11.7 9.7 C 12.2 8.8 12.5 7.9 12.6 6.9 C 12.7 6.4 12.7 5.89999 12.7 5.49999 C 12.7 5.09999 12.7 4.39999 12.4 4.09999 C 12.1 3.79999 11.8 4.6 11.7 4.9 C 11.5 5.4 11.3 5.8 11.1 6.3 C 10.8 6.7 10.5 7.19999 10.3 7.59999 C 10 7.99999 9.8 8.5 9.7 9.1 C 9.6 9.6 9.6 10.1 9.7 10.6 C 9.8 10.9 10 11.7 10.3 11.8 Z" stroke-linecap="round"/>
</g>
		<g transform="matrix(1 0 0 1 -65.25 1.3)" clip-path="url(#CLIPPATH_80)">
<clipPath id="CLIPPATH_80">
	<rect transform="matrix(1 0 0 1 65.25 -1.3)" id="clip0" x="-67.5" y="-35" rx="0" ry="0" width="135" height="70"/>
</clipPath>
<path style="stroke: none; stroke-width: 1; stroke-dasharray: none; stroke-linecap: butt; stroke-dashoffset: 0; stroke-linejoin: miter; stroke-miterlimit: 4; is-custom-font: none; font-file-url: none; fill: rgb(33,50,91); fill-rule: evenodd; opacity: 1;" transform=" translate(-2.25, -36.3)" d="M 0.499976 35.7 C 0.599976 36.4 0.899976 37 1.19998 37.6 C 1.39998 37.9 1.59998 38.2 1.89998 38.5 C 2.19998 38.8 2.59998 39.1 2.89998 39.3 C 3.19998 39.5 3.39998 39.6 3.69998 39.7 C 3.99998 39.9 4.19998 40 4.39998 40.1 C 4.29998 39.9 4.29998 39.6 4.29998 39.4 C 4.29998 39.1 4.19998 38.8 4.09998 38.4 C 3.99998 37.8 3.89998 37.3 3.69998 36.8 C 3.49998 36.3 3.19998 35.8 2.99998 35.3 C 2.69998 34.8 2.29998 34.4 1.89998 34 C 1.59998 33.7 1.29998 33.4 0.899976 33.2 C 0.599976 33 0.299976 32.8 0.0999756 32.5 C 0.399976 32.9 0.299976 33.7 0.299976 34.2 C 0.299976 34.6 0.399976 35.2 0.499976 35.7 Z" stroke-linecap="round"/>
</g>
		<g transform="matrix(1 0 0 1 -51.6 -25.9778)" clip-path="url(#CLIPPATH_81)">
<clipPath id="CLIPPATH_81">
	<rect transform="matrix(1 0 0 1 51.6 25.9778)" id="clip0" x="-67.5" y="-35" rx="0" ry="0" width="135" height="70"/>
</clipPath>
<path style="stroke: none; stroke-width: 1; stroke-dasharray: none; stroke-linecap: butt; stroke-dashoffset: 0; stroke-linejoin: miter; stroke-miterlimit: 4; is-custom-font: none; font-file-url: none; fill: rgb(33,50,91); fill-rule: evenodd; opacity: 1;" transform=" translate(-15.9, -9.0222)" d="M 18.8 7.19995 C 18.4 7.19995 17.8 7.39995 17.4 7.59995 C 16.7 7.79995 16.1 7.99995 15.4 8.29995 C 14.9 8.59995 14.4 8.89995 14 9.29995 C 13.6 9.69995 13.2 10.3 13 10.8 C 13.4 10.9 13.8 10.8 14.2 10.8 C 14.6 10.8 15 10.7 15.4 10.5 C 15.9 10.3 16.4 9.89995 16.8 9.49995 C 17.5 8.89995 18.1 8.09995 18.8 7.19995 Z" stroke-linecap="round"/>
</g>
		<g transform="matrix(1 0 0 1 -54.75 -20.5)" clip-path="url(#CLIPPATH_82)">
<clipPath id="CLIPPATH_82">
	<rect transform="matrix(1 0 0 1 54.75 20.5)" id="clip0" x="-67.5" y="-35" rx="0" ry="0" width="135" height="70"/>
</clipPath>
<path style="stroke: none; stroke-width: 1; stroke-dasharray: none; stroke-linecap: butt; stroke-dashoffset: 0; stroke-linejoin: miter; stroke-miterlimit: 4; is-custom-font: none; font-file-url: none; fill: rgb(33,50,91); fill-rule: evenodd; opacity: 1;" transform=" translate(-12.75, -14.5)" d="M 12.3 13.7 C 11.3 14.4 10.5 15.4 10.1 16.6 C 10.4 16.8 10.8 16.9 11.2 16.9 C 12.3 16.9 13.3 16.1 13.9 15.2 C 14.2 14.7 14.5 14.1 14.8 13.6 C 15 13.1 15.3 12.6 15.4 12.1 C 14.9 12.3 14.4 12.6 13.9 12.8 C 13.4 13.1 12.8 13.4 12.3 13.7 Z" stroke-linecap="round"/>
</g>
		<g transform="matrix(1 0 0 1 -60.7398 -21.1324)" clip-path="url(#CLIPPATH_83)">
<clipPath id="CLIPPATH_83">
	<rect transform="matrix(1 0 0 1 60.7399 21.1324)" id="clip0" x="-67.5" y="-35" rx="0" ry="0" width="135" height="70"/>
</clipPath>
<path style="stroke: none; stroke-width: 1; stroke-dasharray: none; stroke-linecap: butt; stroke-dashoffset: 0; stroke-linejoin: miter; stroke-miterlimit: 4; is-custom-font: none; font-file-url: none; fill: rgb(33,50,91); fill-rule: evenodd; opacity: 1;" transform=" translate(-6.7601, -13.8676)" d="M 5.90002 17.6 C 6.10002 17.9 6.30002 18.4 6.60002 18.5 C 7.10002 18.7 7.50002 18 7.70002 17.6 C 8.00002 17 8.10002 16.4 8.20002 15.7 C 8.30002 15.1 8.20002 14.6 8.20002 14 C 8.20002 13.4 8.10002 12.8 8.00002 12.2 C 7.90002 11.6 7.70002 11 7.50002 10.4 C 7.40002 10.2 7.30002 9.89995 7.30002 9.69995 C 7.10002 9.59995 7.10002 9.39995 7.00002 9.19995 C 6.70002 9.59995 6.60002 10.2 6.40002 10.6 C 6.10002 11.1 5.90002 11.6 5.70002 12.2 C 5.40002 13.4 5.10002 14.6 5.40002 15.9 C 5.50002 16.5 5.60002 17.1 5.90002 17.6 Z" stroke-linecap="round"/>
</g>
		<g transform="matrix(1 0 0 1 -63.637 -13.9)" clip-path="url(#CLIPPATH_84)">
<clipPath id="CLIPPATH_84">
	<rect transform="matrix(1 0 0 1 63.637 13.9)" id="clip0" x="-67.5" y="-35" rx="0" ry="0" width="135" height="70"/>
</clipPath>
<path style="stroke: none; stroke-width: 1; stroke-dasharray: none; stroke-linecap: butt; stroke-dashoffset: 0; stroke-linejoin: miter; stroke-miterlimit: 4; is-custom-font: none; font-file-url: none; fill: rgb(33,50,91); fill-rule: evenodd; opacity: 1;" transform=" translate(-3.863, -21.1)" d="M 2.8 21.9 C 3 22.8 3.3 23.6 3.7 24.3 C 4 24.8 4.4 25.3 4.8 25.7 C 4.8 25.3 5 24.8 5.1 24.5 C 5.1 24.3 5.2 24 5.2 23.8 C 5.2 23.5 5.2 23.2 5.2 22.8 C 5.3 21.7 5.1 20.7 4.8 19.7 C 4.6 19.1 4.3 18.6 4 18.1 C 3.8 17.8 3.7 17.5 3.5 17.2 C 3.4 17 3 16.5 2.8 16.5 C 2.6 16.5 2.6 17.1 2.6 17.2 C 2.5 17.9 2.5 18.5 2.5 19.2 C 2.5 20.1 2.6 21 2.8 21.9 Z" stroke-linecap="round"/>
</g>
		<g transform="matrix(1 0 0 1 -59.6 -0.5)" clip-path="url(#CLIPPATH_85)">
<clipPath id="CLIPPATH_85">
	<rect transform="matrix(1 0 0 1 59.5999 0.5)" id="clip0" x="-67.5" y="-35" rx="0" ry="0" width="135" height="70"/>
</clipPath>
<path style="stroke: none; stroke-width: 1; stroke-dasharray: none; stroke-linecap: butt; stroke-dashoffset: 0; stroke-linejoin: miter; stroke-miterlimit: 4; is-custom-font: none; font-file-url: none; fill: rgb(33,50,91); fill-rule: evenodd; opacity: 1;" transform=" translate(-7.9001, -34.5)" d="M 9.40005 34.3 C 9.50005 33.7 9.50005 33.2 9.50005 32.6 C 9.50005 32.1 9.50005 31.5 9.40005 31.1 C 9.30005 31.3 9.30005 31.4 9.20005 31.6 C 8.90005 32.2 8.30005 32.6 7.80005 33.1 C 7.40005 33.5 7.00005 34 6.80005 34.6 C 6.60005 35.1 6.40005 35.7 6.40005 36.3 C 6.30005 36.8 6.30005 37.4 6.30005 37.9 C 6.80005 37.9 7.30005 37.3 7.70005 37 C 8.60005 36.4 9.20005 35.4 9.40005 34.3 Z" stroke-linecap="round"/>
</g>
		<g transform="matrix(1 0 0 1 -64.2 8.55)" clip-path="url(#CLIPPATH_86)">
<clipPath id="CLIPPATH_86">
	<rect transform="matrix(1 0 0 1 64.2 -8.55)" id="clip0" x="-67.5" y="-35" rx="0" ry="0" width="135" height="70"/>
</clipPath>
<path style="stroke: none; stroke-width: 1; stroke-dasharray: none; stroke-linecap: butt; stroke-dashoffset: 0; stroke-linejoin: miter; stroke-miterlimit: 4; is-custom-font: none; font-file-url: none; fill: rgb(33,50,91); fill-rule: evenodd; opacity: 1;" transform=" translate(-3.3, -43.55)" d="M 4.29998 46.3 C 4.79998 46.7 5.39998 46.8 5.99998 47.1 C 5.89998 46.3 5.69998 45.5 5.29998 44.9 C 4.99998 44.4 4.69998 43.8 4.39998 43.3 C 4.09998 42.7 3.59998 42.2 3.09998 41.7 C 2.59998 41.3 2.09998 41 1.69998 40.6 C 1.39998 40.3 0.99998 40.1 0.599976 40 C 0.699976 40.3 0.899976 40.7 0.99998 41 C 1.09998 41.4 1.19998 41.7 1.39998 42.1 C 1.79998 43.2 2.19998 44.2 2.99998 45.1 C 3.29998 45.6 3.79998 46 4.29998 46.3 Z" stroke-linecap="round"/>
</g>
		<g transform="matrix(1 0 0 1 -56.75 11.4193)" clip-path="url(#CLIPPATH_87)">
<clipPath id="CLIPPATH_87">
	<rect transform="matrix(1 0 0 1 56.75 -11.4193)" id="clip0" x="-67.5" y="-35" rx="0" ry="0" width="135" height="70"/>
</clipPath>
<path style="stroke: none; stroke-width: 1; stroke-dasharray: none; stroke-linecap: butt; stroke-dashoffset: 0; stroke-linejoin: miter; stroke-miterlimit: 4; is-custom-font: none; font-file-url: none; fill: rgb(33,50,91); fill-rule: evenodd; opacity: 1;" transform=" translate(-10.75, -46.4193)" d="M 10.2 49.7 C 10.4 50.3 10.8 50.2 11.2 49.9 C 11.5 49.7 11.8 49.3 11.8 48.9 C 11.9 48.4 11.9 47.9 11.9 47.5 C 11.9 47 11.9 46.3999 11.9 45.7999 C 11.9 45.2999 11.8 44.7 11.8 44.2 C 11.8 43.7 11.8 43.1 11.7 42.7 C 11.6 43 11.4 43.2 11.2 43.4 C 11 43.7 10.7 44.1 10.5 44.5 C 9.89998 45.4 9.59998 46.4999 9.59998 47.5999 C 9.59998 48.0999 9.59998 48.6 9.79998 49.2 C 9.99997 49.3 10.1 49.4 10.2 49.7 Z" stroke-linecap="round"/>
</g>
		<g transform="matrix(1 0 0 1 -54.3303 28.95)" clip-path="url(#CLIPPATH_88)">
<clipPath id="CLIPPATH_88">
	<rect transform="matrix(1 0 0 1 54.3303 -28.95)" id="clip0" x="-67.5" y="-35" rx="0" ry="0" width="135" height="70"/>
</clipPath>
<path style="stroke: none; stroke-width: 1; stroke-dasharray: none; stroke-linecap: butt; stroke-dashoffset: 0; stroke-linejoin: miter; stroke-miterlimit: 4; is-custom-font: none; font-file-url: none; fill: rgb(33,50,91); fill-rule: evenodd; opacity: 1;" transform=" translate(-13.1697, -63.95)" d="M 13.8 62.7 C 12.4 62.6 10.9 62.7 9.5 62.6 C 9.8 62.8 9.9 63.1 10.2 63.3 C 10.5 63.5 10.9 63.8 11.2 64 C 11.8 64.4 12.5 64.8 13.2 65 C 13.8 65.2 14.5 65.3 15.1 65.3 C 15.6 65.3 16.4 65.1 16.7 64.7 C 16.9 64.4 16.9 63.9 16.6 63.6 C 16.1 62.8 14.8 62.7 13.8 62.7 Z" stroke-linecap="round"/>
</g>
		<g transform="matrix(1 0 0 1 -48.2889 22.6)" clip-path="url(#CLIPPATH_89)">
<clipPath id="CLIPPATH_89">
	<rect transform="matrix(1 0 0 1 48.2889 -22.6)" id="clip0" x="-67.5" y="-35" rx="0" ry="0" width="135" height="70"/>
</clipPath>
<path style="stroke: none; stroke-width: 1; stroke-dasharray: none; stroke-linecap: butt; stroke-dashoffset: 0; stroke-linejoin: miter; stroke-miterlimit: 4; is-custom-font: none; font-file-url: none; fill: rgb(33,50,91); fill-rule: evenodd; opacity: 1;" transform=" translate(-19.2111, -57.6)" d="M 20.2999 59.8 C 20.0999 60.4 19.7999 60.9 19.3999 61.3 C 19.2999 61.4 19.1999 61.5 19.1999 61.7 C 19.0999 61.6 19.1999 61.4 19.0999 61.2 C 18.9999 60.9 18.7999 60.6 18.4999 60.4 C 18.1999 59.9 17.9999 59.3 17.8999 58.7 C 17.7999 58 17.8999 57.4 17.9999 56.7 C 18.1999 56.1 18.3999 55.5 18.6999 54.9 C 18.8999 54.4 18.9999 54 19.0999 53.5 C 19.1999 54 19.4999 54.4 19.6999 54.8 C 19.8999 55.3 20.0999 55.8 20.2999 56.3 C 20.5999 57.5 20.6999 58.7 20.2999 59.8 Z" stroke-linecap="round"/>
</g>
		<g transform="matrix(1 0 0 1 -6.65 20.9)" clip-path="url(#CLIPPATH_90)">
<clipPath id="CLIPPATH_90">
	<rect transform="matrix(1 0 0 1 6.65 -20.9)" id="clip0" x="-67.5" y="-35" rx="0" ry="0" width="135" height="70"/>
</clipPath>
<path style="stroke: none; stroke-width: 1; stroke-dasharray: none; stroke-linecap: butt; stroke-dashoffset: 0; stroke-linejoin: miter; stroke-miterlimit: 4; is-custom-font: none; font-file-url: none; fill: rgb(33,50,91); fill-rule: nonzero; opacity: 1;" transform=" translate(-60.85, -55.9)" d="M 58.4 58.5 C 60 57.1 61.7 55.9 61.7 54.6 C 61.7 54 61.4 53.5 60.7 53.5 C 60 53.5 59.7 54.0001 59.7 54.7001 H 58.4 C 58.4 53.1001 59.5 52.3 60.8 52.3 C 62.3 52.3 63.1 53.2 63.1 54.5 C 63.1 56.2 61.5 57.4001 60.4 58.4001 H 63.3 V 59.5 H 58.5 V 58.5 H 58.4 Z" stroke-linecap="round"/>
</g>
		<g transform="matrix(1 0 0 1 -0.8 21)" clip-path="url(#CLIPPATH_91)">
<clipPath id="CLIPPATH_91">
	<rect transform="matrix(1 0 0 1 0.8 -21)" id="clip0" x="-67.5" y="-35" rx="0" ry="0" width="135" height="70"/>
</clipPath>
<path style="stroke: none; stroke-width: 1; stroke-dasharray: none; stroke-linecap: butt; stroke-dashoffset: 0; stroke-linejoin: miter; stroke-miterlimit: 4; is-custom-font: none; font-file-url: none; fill: rgb(33,50,91); fill-rule: nonzero; opacity: 1;" transform=" translate(-66.7, -56)" d="M 66.7 52.4 C 68.7 52.4 69.3 53.9 69.3 56 C 69.3 58.1 68.7 59.6 66.7 59.6 C 64.7 59.6 64.1 58 64.1 56 C 64.1 53.9 64.7 52.4 66.7 52.4 Z M 66.7 53.7 C 65.5 53.7 65.4 54.8 65.4 56 C 65.4 57.3 65.5 58.4 66.7 58.4 C 67.9 58.4 68 57.3 68 56 C 68 54.8 67.9 53.7 66.7 53.7 Z" stroke-linecap="round"/>
</g>
		<g transform="matrix(1 0 0 1 3.9 21.05)" clip-path="url(#CLIPPATH_92)">
<clipPath id="CLIPPATH_92">
	<rect transform="matrix(1 0 0 1 -3.9 -21.05)" id="clip0" x="-67.5" y="-35" rx="0" ry="0" width="135" height="70"/>
</clipPath>
<path style="stroke: none; stroke-width: 1; stroke-dasharray: none; stroke-linecap: butt; stroke-dashoffset: 0; stroke-linejoin: miter; stroke-miterlimit: 4; is-custom-font: none; font-file-url: none; fill: rgb(33,50,91); fill-rule: nonzero; opacity: 1;" transform=" translate(-71.4, -56.05)" d="M 71.2 53.8 H 70.2 V 52.5 H 72.6 V 59.6 H 71.2 V 53.8 Z" stroke-linecap="round"/>
</g>
		<g transform="matrix(1 0 0 1 9.15 21.05)" clip-path="url(#CLIPPATH_93)">
<clipPath id="CLIPPATH_93">
	<rect transform="matrix(1 0 0 1 -9.15 -21.05)" id="clip0" x="-67.5" y="-35" rx="0" ry="0" width="135" height="70"/>
</clipPath>
<path style="stroke: none; stroke-width: 1; stroke-dasharray: none; stroke-linecap: butt; stroke-dashoffset: 0; stroke-linejoin: miter; stroke-miterlimit: 4; is-custom-font: none; font-file-url: none; fill: rgb(33,50,91); fill-rule: nonzero; opacity: 1;" transform=" translate(-76.65, -56.05)" d="M 75.6 57.7 C 75.7 58.3 76.1 58.6 76.7 58.6 C 77.5 58.6 77.9 58 77.9 56.4 C 77.6 56.8 77 57.1 76.4 57.1 C 75.2 57.1 74.2 56.3 74.2 54.8 C 74.2 53.4 75.1 52.4 76.6 52.4 C 78.5 52.4 79.1 53.7 79.1 56 C 79.1 58.4 78.6 59.7 76.7 59.7 C 75.2 59.7 74.5 58.7 74.4 57.7 H 75.6 Z M 77.7 54.7 C 77.7 53.9 77.2 53.5 76.6 53.5 C 75.9 53.5 75.5 54 75.5 54.7 C 75.5 55.3 75.9 55.9 76.7 55.9 C 77.3 55.9 77.7 55.4 77.7 54.7 Z" stroke-linecap="round"/>
</g>
		<g transform="matrix(1 0 0 1 -35.45 -9.4)" clip-path="url(#CLIPPATH_94)">
<clipPath id="CLIPPATH_94">
	<rect transform="matrix(1 0 0 1 35.45 9.4)" id="clip0" x="-67.5" y="-35" rx="0" ry="0" width="135" height="70"/>
</clipPath>
<path style="stroke: none; stroke-width: 1; stroke-dasharray: none; stroke-linecap: butt; stroke-dashoffset: 0; stroke-linejoin: miter; stroke-miterlimit: 4; is-custom-font: none; font-file-url: none; fill: rgb(33,50,91); fill-rule: nonzero; opacity: 1;" transform=" translate(-32.05, -25.6)" d="M 32.4 29.1 H 29.4 V 22.1 H 32.3 C 33.8 22.1 34.6 22.9 34.6 23.9 C 34.6 24.7 34.1 25.3 33.4 25.5 C 34.2 25.6 34.7 26.4 34.7 27.2 C 34.7 28.3 33.9 29.1 32.4 29.1 Z M 32.1 23.3 H 30.8 V 25 H 32.1 C 32.8 25 33.1 24.7 33.1 24.1 C 33.1 23.6 32.8 23.3 32.1 23.3 Z M 32.2 26.1 H 30.8 V 28 H 32.2 C 32.9 28 33.3 27.7 33.3 27.1 C 33.3 26.5 32.9 26.1 32.2 26.1 Z" stroke-linecap="round"/>
</g>
		<g transform="matrix(1 0 0 1 -29.6 -9.4)" clip-path="url(#CLIPPATH_95)">
<clipPath id="CLIPPATH_95">
	<rect transform="matrix(1 0 0 1 29.6 9.4)" id="clip0" x="-67.5" y="-35" rx="0" ry="0" width="135" height="70"/>
</clipPath>
<path style="stroke: none; stroke-width: 1; stroke-dasharray: none; stroke-linecap: butt; stroke-dashoffset: 0; stroke-linejoin: miter; stroke-miterlimit: 4; is-custom-font: none; font-file-url: none; fill: rgb(33,50,91); fill-rule: nonzero; opacity: 1;" transform=" translate(-37.9, -25.6)" d="M 39.9 23.3 H 37.3 V 25 H 39.6 V 26.1 H 37.3 V 28 H 39.9 V 29.1 H 35.9 V 22.1 H 39.9 V 23.3 Z" stroke-linecap="round"/>
</g>
		<g transform="matrix(1 0 0 1 -23.95 -9.35)" clip-path="url(#CLIPPATH_96)">
<clipPath id="CLIPPATH_96">
	<rect transform="matrix(1 0 0 1 23.95 9.35)" id="clip0" x="-67.5" y="-35" rx="0" ry="0" width="135" height="70"/>
</clipPath>
<path style="stroke: none; stroke-width: 1; stroke-dasharray: none; stroke-linecap: butt; stroke-dashoffset: 0; stroke-linejoin: miter; stroke-miterlimit: 4; is-custom-font: none; font-file-url: none; fill: rgb(33,50,91); fill-rule: nonzero; opacity: 1;" transform=" translate(-43.55, -25.65)" d="M 43.6 29.2 C 42.2 29.2 41 28.4 41 27.1 H 42.5 C 42.5 27.7 42.9 28 43.6 28 C 44.3 28 44.6 27.7 44.6 27.2 C 44.6 25.7 41 26.6 41 24.1 C 41 22.8 42 22.1 43.5 22.1 C 44.9 22.1 45.9 22.8 46 24.1 H 44.5 C 44.5 23.6 44.1 23.3 43.5 23.3 C 43 23.3 42.5 23.6 42.5 24.1 C 42.5 25.5 46.1 24.7 46.1 27.2 C 46.1 28.2 45.2 29.2 43.6 29.2 Z" stroke-linecap="round"/>
</g>
		<g transform="matrix(1 0 0 1 -18.1001 -9.45)" clip-path="url(#CLIPPATH_97)">
<clipPath id="CLIPPATH_97">
	<rect transform="matrix(1 0 0 1 18.1001 9.45)" id="clip0" x="-67.5" y="-35" rx="0" ry="0" width="135" height="70"/>
</clipPath>
<path style="stroke: none; stroke-width: 1; stroke-dasharray: none; stroke-linecap: butt; stroke-dashoffset: 0; stroke-linejoin: miter; stroke-miterlimit: 4; is-custom-font: none; font-file-url: none; fill: rgb(33,50,91); fill-rule: nonzero; opacity: 1;" transform=" translate(-49.3999, -25.55)" d="M 46.8999 22.1 H 51.9999 V 23.2 H 50.0999 V 29 H 48.6999 V 23.2 H 46.7999 V 22.1 H 46.8999 Z" stroke-linecap="round"/>
</g>
		<g transform="matrix(1 0 0 1 -8.8 -9.5)" clip-path="url(#CLIPPATH_98)">
<clipPath id="CLIPPATH_98">
	<rect transform="matrix(1 0 0 1 8.8 9.5)" id="clip0" x="-67.5" y="-35" rx="0" ry="0" width="135" height="70"/>
</clipPath>
<path style="stroke: none; stroke-width: 1; stroke-dasharray: none; stroke-linecap: butt; stroke-dashoffset: 0; stroke-linejoin: miter; stroke-miterlimit: 4; is-custom-font: none; font-file-url: none; fill: rgb(33,50,91); fill-rule: nonzero; opacity: 1;" transform=" translate(-58.7, -25.5)" d="M 61.9 24.2 H 60.2999 C 59.9999 23.6 59.4 23.3 58.7 23.3 C 57.5 23.3 56.5999 24.2 56.5999 25.6 C 56.5999 27 57.4999 27.9 58.7999 27.9 C 59.8999 27.9 60.5999 27.3 60.7999 26.3 H 58.4 V 25.2 H 62.2 V 26.4 C 61.9 27.8 60.6999 29.1 58.7999 29.1 C 56.7999 29.1 55.2 27.6 55.2 25.5 C 55.2 23.4 56.6999 21.9 58.7999 21.9 C 60.1999 22.1 61.4 22.8 61.9 24.2 Z" stroke-linecap="round"/>
</g>
		<g transform="matrix(1 0 0 1 -1.6 -9.4)" clip-path="url(#CLIPPATH_99)">
<clipPath id="CLIPPATH_99">
	<rect transform="matrix(1 0 0 1 1.6 9.4)" id="clip0" x="-67.5" y="-35" rx="0" ry="0" width="135" height="70"/>
</clipPath>
<path style="stroke: none; stroke-width: 1; stroke-dasharray: none; stroke-linecap: butt; stroke-dashoffset: 0; stroke-linejoin: miter; stroke-miterlimit: 4; is-custom-font: none; font-file-url: none; fill: rgb(33,50,91); fill-rule: nonzero; opacity: 1;" transform=" translate(-65.9, -25.6)" d="M 63.1 22.1 H 64.5 V 26.4 C 64.5 27.4 65 27.9 65.9 27.9 C 66.8 27.9 67.3 27.4 67.3 26.4 V 22.1 H 68.7 V 26.4 C 68.7 28.2 67.4 29.1 65.9 29.1 C 64.4 29.1 63.1 28.2 63.1 26.4 V 22.1 Z" stroke-linecap="round"/>
</g>
		<g transform="matrix(1 0 0 1 3.3 -9.4)" clip-path="url(#CLIPPATH_100)">
<clipPath id="CLIPPATH_100">
	<rect transform="matrix(1 0 0 1 -3.3 9.4)" id="clip0" x="-67.5" y="-35" rx="0" ry="0" width="135" height="70"/>
</clipPath>
<path style="stroke: none; stroke-width: 1; stroke-dasharray: none; stroke-linecap: butt; stroke-dashoffset: 0; stroke-linejoin: miter; stroke-miterlimit: 4; is-custom-font: none; font-file-url: none; fill: rgb(33,50,91); fill-rule: nonzero; opacity: 1;" transform=" translate(-70.8, -25.6)" d="M 70.1 22.1 H 71.5 V 29.1 H 70.1 V 22.1 Z" stroke-linecap="round"/>
</g>
		<g transform="matrix(1 0 0 1 7.4 -9.4)" clip-path="url(#CLIPPATH_101)">
<clipPath id="CLIPPATH_101">
	<rect transform="matrix(1 0 0 1 -7.4 9.4)" id="clip0" x="-67.5" y="-35" rx="0" ry="0" width="135" height="70"/>
</clipPath>
<path style="stroke: none; stroke-width: 1; stroke-dasharray: none; stroke-linecap: butt; stroke-dashoffset: 0; stroke-linejoin: miter; stroke-miterlimit: 4; is-custom-font: none; font-file-url: none; fill: rgb(33,50,91); fill-rule: nonzero; opacity: 1;" transform=" translate(-74.9, -25.6)" d="M 76.9 23.3 H 74.3 V 25 H 76.6 V 26.1 H 74.3 V 28 H 76.9 V 29.1 H 72.9 V 22.1 H 76.9 V 23.3 Z" stroke-linecap="round"/>
</g>
		<g transform="matrix(1 0 0 1 13.75 -9.4)" clip-path="url(#CLIPPATH_102)">
<clipPath id="CLIPPATH_102">
	<rect transform="matrix(1 0 0 1 -13.75 9.4)" id="clip0" x="-67.5" y="-35" rx="0" ry="0" width="135" height="70"/>
</clipPath>
<path style="stroke: none; stroke-width: 1; stroke-dasharray: none; stroke-linecap: butt; stroke-dashoffset: 0; stroke-linejoin: miter; stroke-miterlimit: 4; is-custom-font: none; font-file-url: none; fill: rgb(33,50,91); fill-rule: nonzero; opacity: 1;" transform=" translate(-81.25, -25.6)" d="M 84.3 25.6 C 84.3 27.7 82.9 29.1 80.6 29.1 H 78.2 V 22.1 H 80.6 C 82.8 22.1 84.3 23.5 84.3 25.6 Z M 80.6 27.9 C 82.1 27.9 82.9 27.1 82.9 25.6 C 82.9 24.1 82.1 23.3 80.6 23.3 H 79.6 V 27.9 H 80.6 Z" stroke-linecap="round"/>
</g>
		<g transform="matrix(1 0 0 1 20.15 -9.35)" clip-path="url(#CLIPPATH_103)">
<clipPath id="CLIPPATH_103">
	<rect transform="matrix(1 0 0 1 -20.15 9.35)" id="clip0" x="-67.5" y="-35" rx="0" ry="0" width="135" height="70"/>
</clipPath>
<path style="stroke: none; stroke-width: 1; stroke-dasharray: none; stroke-linecap: butt; stroke-dashoffset: 0; stroke-linejoin: miter; stroke-miterlimit: 4; is-custom-font: none; font-file-url: none; fill: rgb(33,50,91); fill-rule: nonzero; opacity: 1;" transform=" translate(-87.65, -25.65)" d="M 87.7 29.2 C 86.3 29.2 85.1 28.4 85.1 27.1 H 86.6 C 86.6 27.7 87 28 87.7 28 C 88.4 28 88.7 27.7 88.7 27.2 C 88.7 25.7 85.1 26.6 85.1 24.1 C 85.1 22.8 86.1 22.1 87.6 22.1 C 89 22.1 90 22.8 90.1 24.1 H 88.6 C 88.6 23.6 88.2 23.3 87.6 23.3 C 87.1 23.3 86.6 23.6 86.6 24.1 C 86.6 25.5 90.2 24.7 90.2 27.2 C 90.2 28.2 89.3 29.2 87.7 29.2 Z" stroke-linecap="round"/>
</g>
		<g transform="matrix(1 0 0 1 29.5 -9.4)" clip-path="url(#CLIPPATH_104)">
<clipPath id="CLIPPATH_104">
	<rect transform="matrix(1 0 0 1 -29.5 9.4)" id="clip0" x="-67.5" y="-35" rx="0" ry="0" width="135" height="70"/>
</clipPath>
<path style="stroke: none; stroke-width: 1; stroke-dasharray: none; stroke-linecap: butt; stroke-dashoffset: 0; stroke-linejoin: miter; stroke-miterlimit: 4; is-custom-font: none; font-file-url: none; fill: rgb(33,50,91); fill-rule: nonzero; opacity: 1;" transform=" translate(-97, -25.6)" d="M 97 29.2 C 95 29.2 93.4 27.7 93.4 25.6 C 93.4 23.5 95 22 97 22 C 99 22 100.6 23.5 100.6 25.6 C 100.6 27.7 99 29.2 97 29.2 Z M 97 27.9 C 98.3 27.9 99.1 27 99.1 25.6 C 99.1 24.2 98.2 23.3 97 23.3 C 95.7 23.3 94.9 24.2 94.9 25.6 C 94.9 27 95.8 27.9 97 27.9 Z" stroke-linecap="round"/>
</g>
		<g transform="matrix(1 0 0 1 36.35 -9.45)" clip-path="url(#CLIPPATH_105)">
<clipPath id="CLIPPATH_105">
	<rect transform="matrix(1 0 0 1 -36.35 9.45)" id="clip0" x="-67.5" y="-35" rx="0" ry="0" width="135" height="70"/>
</clipPath>
<path style="stroke: none; stroke-width: 1; stroke-dasharray: none; stroke-linecap: butt; stroke-dashoffset: 0; stroke-linejoin: miter; stroke-miterlimit: 4; is-custom-font: none; font-file-url: none; fill: rgb(33,50,91); fill-rule: nonzero; opacity: 1;" transform=" translate(-103.85, -25.55)" d="M 101.7 22.1 H 106 V 23.2 H 103.1 V 25 H 105.3 V 26.1 H 103.1 V 29 H 101.7 V 22.1 Z" stroke-linecap="round"/>
</g>
		<g transform="matrix(1 0 0 1 -20.1001 4.6501)" clip-path="url(#CLIPPATH_106)">
<clipPath id="CLIPPATH_106">
	<rect transform="matrix(1 0 0 1 20.1001 -4.6501)" id="clip0" x="-67.5" y="-35" rx="0" ry="0" width="135" height="70"/>
</clipPath>
<path style="stroke: none; stroke-width: 1; stroke-dasharray: none; stroke-linecap: butt; stroke-dashoffset: 0; stroke-linejoin: miter; stroke-miterlimit: 4; is-custom-font: none; font-file-url: none; fill: rgb(33,50,91); fill-rule: nonzero; opacity: 1;" transform=" translate(-47.3999, -39.6501)" d="M 44.8999 36.2001 H 49.9999 V 37.3001 H 48.0999 V 43.1001 H 46.6999 V 37.3001 H 44.7999 V 36.2001 H 44.8999 Z" stroke-linecap="round"/>
</g>
		<g transform="matrix(1 0 0 1 -13.6 4.65)" clip-path="url(#CLIPPATH_107)">
<clipPath id="CLIPPATH_107">
	<rect transform="matrix(1 0 0 1 13.6 -4.65)" id="clip0" x="-67.5" y="-35" rx="0" ry="0" width="135" height="70"/>
</clipPath>
<path style="stroke: none; stroke-width: 1; stroke-dasharray: none; stroke-linecap: butt; stroke-dashoffset: 0; stroke-linejoin: miter; stroke-miterlimit: 4; is-custom-font: none; font-file-url: none; fill: rgb(33,50,91); fill-rule: nonzero; opacity: 1;" transform=" translate(-53.9, -39.65)" d="M 55.4 40.2 H 52.4 V 43.2 H 51 V 36.2 H 52.4 V 39 H 55.4 V 36.1 H 56.8 V 43.1 H 55.4 V 40.2 Z" stroke-linecap="round"/>
</g>
		<g transform="matrix(1 0 0 1 -7.3 4.6)" clip-path="url(#CLIPPATH_108)">
<clipPath id="CLIPPATH_108">
	<rect transform="matrix(1 0 0 1 7.3 -4.6)" id="clip0" x="-67.5" y="-35" rx="0" ry="0" width="135" height="70"/>
</clipPath>
<path style="stroke: none; stroke-width: 1; stroke-dasharray: none; stroke-linecap: butt; stroke-dashoffset: 0; stroke-linejoin: miter; stroke-miterlimit: 4; is-custom-font: none; font-file-url: none; fill: rgb(33,50,91); fill-rule: nonzero; opacity: 1;" transform=" translate(-60.2, -39.6)" d="M 62.2 37.3 H 59.5999 V 39 H 61.9 V 40.1 H 59.5999 V 42 H 62.2 V 43.1 H 58.2 V 36.1 H 62.2 V 37.3 Z" stroke-linecap="round"/>
</g>
		<g transform="matrix(1 0 0 1 0.8999 4.6501)" clip-path="url(#CLIPPATH_109)">
<clipPath id="CLIPPATH_109">
	<rect transform="matrix(1 0 0 1 -0.8999 -4.6501)" id="clip0" x="-67.5" y="-35" rx="0" ry="0" width="135" height="70"/>
</clipPath>
<path style="stroke: none; stroke-width: 1; stroke-dasharray: none; stroke-linecap: butt; stroke-dashoffset: 0; stroke-linejoin: miter; stroke-miterlimit: 4; is-custom-font: none; font-file-url: none; fill: rgb(33,50,91); fill-rule: nonzero; opacity: 1;" transform=" translate(-68.3999, -39.6501)" d="M 65.2999 36.2001 H 66.8999 L 68.3999 39.4001 L 69.8999 36.2001 H 71.4999 L 69.0999 40.7001 V 43.1001 H 67.6999 V 40.7001 L 65.2999 36.2001 Z" stroke-linecap="round"/>
</g>
		<g transform="matrix(1 0 0 1 6.7999 4.6)" clip-path="url(#CLIPPATH_110)">
<clipPath id="CLIPPATH_110">
	<rect transform="matrix(1 0 0 1 -6.7999 -4.6)" id="clip0" x="-67.5" y="-35" rx="0" ry="0" width="135" height="70"/>
</clipPath>
<path style="stroke: none; stroke-width: 1; stroke-dasharray: none; stroke-linecap: butt; stroke-dashoffset: 0; stroke-linejoin: miter; stroke-miterlimit: 4; is-custom-font: none; font-file-url: none; fill: rgb(33,50,91); fill-rule: nonzero; opacity: 1;" transform=" translate(-74.2999, -39.6)" d="M 76.2999 37.3 H 73.6999 V 39 H 75.9999 V 40.1 H 73.6999 V 42 H 76.2999 V 43.1 H 72.2999 V 36.1 H 76.2999 V 37.3 Z" stroke-linecap="round"/>
</g>
		<g transform="matrix(1 0 0 1 12.8 4.6)" clip-path="url(#CLIPPATH_111)">
<clipPath id="CLIPPATH_111">
	<rect transform="matrix(1 0 0 1 -12.8 -4.6)" id="clip0" x="-67.5" y="-35" rx="0" ry="0" width="135" height="70"/>
</clipPath>
<path style="stroke: none; stroke-width: 1; stroke-dasharray: none; stroke-linecap: butt; stroke-dashoffset: 0; stroke-linejoin: miter; stroke-miterlimit: 4; is-custom-font: none; font-file-url: none; fill: rgb(33,50,91); fill-rule: nonzero; opacity: 1;" transform=" translate(-80.3, -39.6)" d="M 81.8 41.8 H 79 L 78.5 43.1 H 77 L 79.5 36.1 H 81.1 L 83.6 43.1 H 82.1 L 81.8 41.8 Z M 80.5 37.8 L 79.5 40.7 H 81.5 L 80.5 37.8 Z" stroke-linecap="round"/>
</g>
		<g transform="matrix(1 0 0 1 19.8 4.6)" clip-path="url(#CLIPPATH_112)">
<clipPath id="CLIPPATH_112">
	<rect transform="matrix(1 0 0 1 -19.8 -4.6)" id="clip0" x="-67.5" y="-35" rx="0" ry="0" width="135" height="70"/>
</clipPath>
<path style="stroke: none; stroke-width: 1; stroke-dasharray: none; stroke-linecap: butt; stroke-dashoffset: 0; stroke-linejoin: miter; stroke-miterlimit: 4; is-custom-font: none; font-file-url: none; fill: rgb(33,50,91); fill-rule: nonzero; opacity: 1;" transform=" translate(-87.3, -39.6)" d="M 87.3 36.2 C 89 36.2 89.8 37.2 89.8 38.3 C 89.8 39.1 89.3 40 88.2 40.3 L 89.9 43.1 H 88.3 L 86.8 40.4 H 86.1 V 43.1 H 84.7 V 36.1 H 87.3 V 36.2 Z M 87.3 37.3 H 86.1 V 39.3 H 87.3 C 88.1 39.3 88.4 38.9 88.4 38.3 C 88.4 37.7 88.1 37.3 87.3 37.3 Z" stroke-linecap="round"/>
</g>
		<g transform="matrix(1 0 0 1 -0.0121 -25.0692)" clip-path="url(#CLIPPATH_113)">
<clipPath id="CLIPPATH_113">
	<rect transform="matrix(1 0 0 1 0.0121 25.0692)" id="clip0" x="-67.5" y="-35" rx="0" ry="0" width="135" height="70"/>
</clipPath>
<path style="stroke: none; stroke-width: 1; stroke-dasharray: none; stroke-linecap: butt; stroke-dashoffset: 0; stroke-linejoin: miter; stroke-miterlimit: 4; is-custom-font: none; font-file-url: none; fill: rgb(33,50,91); fill-rule: nonzero; opacity: 1;" transform=" translate(-67.4879, -9.9308)" d="M 67.7 5.69999 L 68.9 8.19999 C 69 8.29999 69 8.29999 69.1 8.29999 L 71.9 8.69999 C 72 8.69999 72.1 8.89999 72 8.99999 L 70 11 C 69.9 11.1 69.9 11.1 69.9 11.2 L 70.4 14 C 70.5 14.2 70.2 14.3 70.1 14.2 L 67.6 13 C 67.5 13 67.5 13 67.4 13 L 64.9 14.3 C 64.7 14.4 64.6 14.2 64.6 14.1 L 65.1 11.3 C 65.1 11.2 65.1 11.2 65 11.1 L 63 8.99999 C 62.9 8.89999 62.9 8.69999 63.1 8.69999 L 65.9 8.29999 C 66 8.29999 66 8.19999 66.1 8.19999 L 67.3 5.59999 C 67.4 5.49999 67.6 5.49999 67.7 5.69999 Z" stroke-linecap="round"/>
</g>
		<g transform="matrix(1 0 0 1 10.9293 -25.1168)" clip-path="url(#CLIPPATH_114)">
<clipPath id="CLIPPATH_114">
	<rect transform="matrix(1 0 0 1 -10.9293 25.1168)" id="clip0" x="-67.5" y="-35" rx="0" ry="0" width="135" height="70"/>
</clipPath>
<path style="stroke: none; stroke-width: 1; stroke-dasharray: none; stroke-linecap: butt; stroke-dashoffset: 0; stroke-linejoin: miter; stroke-miterlimit: 4; is-custom-font: none; font-file-url: none; fill: rgb(33,50,91); fill-rule: nonzero; opacity: 1;" transform=" translate(-78.4293, -9.8832)" d="M 78.5 7.29998 L 79.3 8.89998 L 79.4 8.99998 L 81.1 9.19998 C 81.2 9.19998 81.2 9.29998 81.2 9.39998 L 80 10.6 V 10.7 L 80.3 12.4 C 80.3 12.5 80.2 12.6 80.1 12.5 L 78.5 11.7 H 78.4 L 76.9 12.5 C 76.8 12.5 76.7 12.5 76.7 12.4 L 77 10.7 V 10.6 L 75.7 9.39998 C 75.6 9.29998 75.7 9.19998 75.8 9.19998 L 77.4 8.99998 C 77.4 8.99998 77.5 8.99998 77.5 8.89998 L 78.3 7.29998 C 78.4 7.19998 78.5 7.19998 78.5 7.29998 Z" stroke-linecap="round"/>
</g>
		<g transform="matrix(1 0 0 1 -11.0707 -25.1168)" clip-path="url(#CLIPPATH_115)">
<clipPath id="CLIPPATH_115">
	<rect transform="matrix(1 0 0 1 11.0707 25.1168)" id="clip0" x="-67.5" y="-35" rx="0" ry="0" width="135" height="70"/>
</clipPath>
<path style="stroke: none; stroke-width: 1; stroke-dasharray: none; stroke-linecap: butt; stroke-dashoffset: 0; stroke-linejoin: miter; stroke-miterlimit: 4; is-custom-font: none; font-file-url: none; fill: rgb(33,50,91); fill-rule: nonzero; opacity: 1;" transform=" translate(-56.4293, -9.8832)" d="M 56.5 7.29998 L 57.3 8.89998 L 57.4 8.99998 L 59.1 9.19998 C 59.2 9.19998 59.2 9.29998 59.2 9.39998 L 58 10.6 V 10.7 L 58.3 12.4 C 58.3 12.5 58.2 12.6 58.1 12.5 L 56.5 11.7 H 56.4 L 54.9 12.5 C 54.8 12.5 54.7 12.5 54.7 12.4 L 55 10.7 V 10.6 L 53.7 9.39998 C 53.6 9.29998 53.7 9.19998 53.8 9.19998 L 55.4 8.99998 C 55.4 8.99998 55.5 8.99998 55.5 8.89998 L 56.3 7.29998 C 56.4 7.19998 56.5 7.19998 56.5 7.29998 Z" stroke-linecap="round"/>
</g>
</g>
</g>
<g transform="matrix(1.5662 0 0 1 499.9974 544.1767)" id="856878">
<path style="stroke: none; stroke-width: 1; stroke-dasharray: none; stroke-linecap: butt; stroke-dashoffset: 0; stroke-linejoin: miter; stroke-miterlimit: 4; is-custom-font: none; font-file-url: none; fill: rgb(255,255,255); fill-rule: nonzero; opacity: 1;" vector-effect="non-scaling-stroke" transform=" translate(-256, -256)" d="M 340.8 83 C 307 83 276 98.8 256 124.8 c -20 -26 -51 -41.8 -84.8 -41.8 C 112.1 83 64 131.3 64 190.7 c 0 27.9 10.6 54.4 29.9 74.6 L 245.1 418 l 10.9 11 l 10.9 -11 l 148.3 -149.8 c 21 -20.3 32.8 -47.9 32.8 -77.5 C 448 131.3 399.9 83 340.8 83 L 340.8 83 z" stroke-linecap="round"/>
</g>
<g transform="matrix(1 0 0 1 500 500)" style="" id="746282">
		
<path xml:space="preserve" font-family="Fjalla One" font-size="90" style="stroke: none; stroke-width: 0; stroke-dasharray: none; stroke-linecap: butt; stroke-dashoffset: 0; stroke-linejoin: miter; stroke-miterlimit: 4; is-custom-font: none; font-file-url: none; fill: rgb(40,51,80); fill-rule: nonzero; opacity: 1; white-space: pre;" d="M-291.36-20.03L-291.36-95.09L-279.84-95.09Q-277.29-95.09-274.57-94.92Q-271.85-94.74-269.25-94.17Q-266.66-93.60-264.33-92.48Q-262.00-91.36-260.27-89.47Q-258.53-87.58-257.50-84.79Q-256.46-82.00-256.46-78.09L-256.46-78.09L-256.46-74.44Q-256.46-71.45-257.32-68.95Q-258.18-66.44-259.58-64.53Q-260.99-62.62-262.79-61.37Q-264.59-60.11-266.48-59.67L-266.48-59.67L-266.48-59.32Q-260.90-58.31-258.07-54.03Q-255.23-49.74-255.23-43.06L-255.23-43.06L-255.23-39.24Q-255.23-35.15-256.14-32.14Q-257.04-29.13-258.66-27.00Q-260.29-24.87-262.53-23.51Q-264.77-22.14-267.45-21.38Q-270.13-20.61-273.16-20.32Q-276.20-20.03-279.40-20.03L-279.40-20.03L-291.36-20.03ZM-280.20-62.97L-278.00-62.97Q-275.71-62.97-273.82-63.52Q-271.93-64.07-270.59-65.23Q-269.25-66.40-268.53-68.26Q-267.80-70.13-267.80-72.77L-267.80-72.77L-267.80-75.85Q-267.80-78.48-268.33-80.50Q-268.86-82.53-270.07-83.93Q-271.27-85.34-273.23-86.06Q-275.19-86.79-278.00-86.79L-278.00-86.79L-280.20-86.79L-280.20-62.97ZM-280.20-27.95L-276.94-27.95Q-274.66-27.95-272.79-28.54Q-270.92-29.13-269.58-30.38Q-268.24-31.64-267.52-33.57Q-266.79-35.50-266.79-38.14L-266.79-38.14L-266.79-43.99Q-266.79-46.62-267.32-48.67Q-267.85-50.71-269.06-52.09Q-270.26-53.48-272.20-54.20Q-274.13-54.93-276.94-54.93L-276.94-54.93L-280.20-54.93L-280.20-27.95ZM-245.35-20.03L-245.35-95.09L-217.53-95.09L-217.53-86.13L-233.96-86.13L-233.96-63.67L-221.26-63.67L-221.26-54.71L-233.96-54.71L-233.96-29.00L-217.09-29.00L-217.09-20.03L-245.35-20.03ZM-211.77-35.24L-211.77-35.24Q-211.77-37.66-211.49-39.70Q-211.20-41.74-210.63-44.12L-210.63-44.12L-201.80-44.12L-201.80-40.47Q-201.80-37.44-201.42-35.11Q-201.05-32.78-200.19-31.18Q-199.34-29.57-197.91-28.76Q-196.48-27.95-194.41-27.95L-194.41-27.95Q-191.16-27.95-189.45-29.72Q-187.73-31.50-187.73-34.93L-187.73-34.93Q-187.73-36.69-187.98-38.16Q-188.22-39.63-188.81-41.08Q-189.40-42.53-190.42-44.14Q-191.43-45.74-193.01-47.72L-193.01-47.72L-204.87-61.83Q-208.04-65.87-209.75-69.98Q-211.46-74.09-211.46-78.75L-211.46-78.75Q-211.46-82.48-210.30-85.60Q-209.14-88.72-206.94-90.98Q-204.74-93.25-201.51-94.50Q-198.28-95.75-194.19-95.75L-194.19-95.75Q-189.23-95.75-185.91-94.35Q-182.59-92.94-180.62-90.66Q-178.64-88.37-177.82-85.54Q-177.01-82.70-177.01-79.84L-177.01-79.84Q-177.01-77.43-177.39-75.38Q-177.76-73.34-178.24-70.88L-178.24-70.88L-187.03-70.88L-187.03-74.44Q-187.03-80.42-188.75-83.60Q-190.46-86.79-194.33-86.79L-194.33-86.79Q-197.53-86.79-199.12-85.01Q-200.70-83.23-200.70-80.24L-200.70-80.24Q-200.70-78.66-200.46-77.38Q-200.21-76.11-199.75-75.03Q-199.29-73.96-198.63-72.95Q-197.97-71.93-197.14-70.84L-197.14-70.84L-183.91-54.84Q-180.31-50.14-178.37-45.81Q-176.44-41.48-176.44-36.65L-176.44-36.65Q-176.44-32.65-177.69-29.44Q-178.95-26.23-181.27-23.99Q-183.60-21.75-186.90-20.54Q-190.20-19.33-194.33-19.33L-194.33-19.33Q-199.42-19.33-202.79-20.69Q-206.15-22.06-208.15-24.30Q-210.15-26.54-210.96-29.40Q-211.77-32.25-211.77-35.24ZM-159.92-20.03L-159.92-86.13L-172.00-86.13L-172.00-95.09L-136.49-95.09L-136.49-86.13L-148.54-86.13L-148.54-20.03L-159.92-20.03ZM-102.61-20.03L-102.61-86.13L-114.70-86.13L-114.70-95.09L-79.19-95.09L-79.19-86.13L-91.23-86.13L-91.23-20.03L-102.61-20.03ZM-71.50-20.03L-71.50-95.09L-59.15-95.09Q-57.04-95.09-54.51-94.92Q-51.99-94.74-49.46-94.06Q-46.93-93.38-44.58-92.02Q-42.23-90.66-40.41-88.28Q-38.58-85.91-37.49-82.33Q-36.39-78.75-36.39-73.65L-36.39-73.65L-36.39-71.76Q-36.39-63.19-38.85-57.81Q-41.31-52.42-46.10-50.05L-46.10-50.05L-34.06-20.03L-46.10-20.03L-56.07-48.12L-60.34-48.12L-60.34-20.03L-71.50-20.03ZM-60.34-56.33L-58.62-56.33Q-55.63-56.33-53.57-56.99Q-51.50-57.65-50.23-59.21Q-48.96-60.77-48.38-63.34Q-47.81-65.91-47.81-69.69L-47.81-69.69L-47.81-75.63Q-47.81-78.53-48.34-80.64Q-48.87-82.74-50.12-84.11Q-51.37-85.47-53.44-86.13Q-55.50-86.79-58.62-86.79L-58.62-86.79L-60.34-86.79L-60.34-56.33ZM-31.03-20.03L-17.18-95.09L-4.09-95.09L9.80-20.03L-1.71-20.03L-3.78-33.48L-17.49-33.48L-19.47-20.03L-31.03-20.03ZM-16.17-42.05L-5.10-42.05L-10.37-79.45L-10.85-79.45L-16.17-42.05ZM17.05-20.03L17.05-95.09L45.75-95.09L45.75-86.13L28.43-86.13L28.43-63.67L42.01-63.67L42.01-54.71L28.43-54.71L28.43-20.03L17.05-20.03ZM53.35-20.03L53.35-95.09L82.05-95.09L82.05-86.13L64.73-86.13L64.73-63.67L78.31-63.67L78.31-54.71L64.73-54.71L64.73-20.03L53.35-20.03ZM89.65-20.03L89.65-95.09L101.03-95.09L101.03-20.03L89.65-20.03ZM130.03-19.38L130.03-19.38Q128.28-19.38 126.23-19.66Q124.19-19.95 122.15-20.87Q120.10-21.79 118.23-23.48Q116.37-25.18 114.94-27.95Q113.51-30.71 112.65-34.78Q111.80-38.84 111.80-44.47L111.80-44.47L111.80-71.06Q111.80-76.72 112.68-80.75Q113.55-84.77 115.00-87.51Q116.46-90.26 118.34-91.89Q120.23-93.51 122.26-94.37Q124.28-95.23 126.28-95.49Q128.28-95.75 129.99-95.75L129.99-95.75Q134.47-95.75 137.48-94.50Q140.49-93.25 142.32-91.07Q144.14-88.90 144.91-86.00Q145.68-83.10 145.68-79.84L145.68-79.84Q145.68-77.43 145.44-75.38Q145.20-73.34 144.71-70.88L144.71-70.88L135.48-70.88L135.48-74.70Q135.48-80.90 134.12-83.98Q132.76-87.05 130.12-87.05L130.12-87.05Q128.54-87.05 127.35-86.44Q126.17-85.82 125.38-84.35Q124.58-82.88 124.17-80.46Q123.75-78.04 123.75-74.44L123.75-74.44L123.75-40.16Q123.75-36.65 124.08-34.32Q124.41-31.99 125.16-30.58Q125.90-29.18 127.11-28.58Q128.32-27.99 130.03-27.99L130.03-27.99Q131.13-27.99 132.14-28.49Q133.15-29.00 133.92-30.08Q134.69-31.15 135.15-32.80Q135.62-34.45 135.62-36.69L135.62-36.69L135.62-44.03L146.03-44.03L146.03-37.09Q146.03-28.03 141.90-23.73Q137.77-19.42 130.03-19.38ZM174.24-20.03L174.24-95.09L185.76-95.09Q188.31-95.09 191.03-94.92Q193.75-94.74 196.35-94.17Q198.94-93.60 201.27-92.48Q203.60-91.36 205.33-89.47Q207.07-87.58 208.10-84.79Q209.14-82.00 209.14-78.09L209.14-78.09L209.14-74.44Q209.14-71.45 208.28-68.95Q207.42-66.44 206.02-64.53Q204.61-62.62 202.81-61.37Q201.01-60.11 199.12-59.67L199.12-59.67L199.12-59.32Q204.70-58.31 207.53-54.03Q210.37-49.74 210.37-43.06L210.37-43.06L210.37-39.24Q210.37-35.15 209.47-32.14Q208.56-29.13 206.94-27.00Q205.31-24.87 203.07-23.51Q200.83-22.14 198.15-21.38Q195.47-20.61 192.44-20.32Q189.40-20.03 186.20-20.03L186.20-20.03L174.24-20.03ZM185.41-62.97L187.60-62.97Q189.89-62.97 191.78-63.52Q193.67-64.07 195.01-65.23Q196.35-66.40 197.07-68.26Q197.80-70.13 197.80-72.77L197.80-72.77L197.80-75.85Q197.80-78.48 197.27-80.50Q196.74-82.53 195.53-83.93Q194.33-85.34 192.37-86.06Q190.42-86.79 187.60-86.79L187.60-86.79L185.41-86.79L185.41-62.97ZM185.41-27.95L188.66-27.95Q190.94-27.95 192.81-28.54Q194.68-29.13 196.02-30.38Q197.36-31.64 198.08-33.57Q198.81-35.50 198.81-38.14L198.81-38.14L198.81-43.99Q198.81-46.62 198.28-48.67Q197.75-50.71 196.55-52.09Q195.34-53.48 193.40-54.20Q191.47-54.93 188.66-54.93L188.66-54.93L185.41-54.93L185.41-27.95ZM236.87-19.38L236.87-19.38Q235.06-19.38 232.95-19.66Q230.84-19.95 228.78-20.87Q226.71-21.79 224.80-23.48Q222.89-25.18 221.42-27.95Q219.95-30.71 219.07-34.78Q218.19-38.84 218.19-44.47L218.19-44.47L218.19-71.06Q218.19-76.72 219.09-80.75Q219.99-84.77 221.48-87.51Q222.98-90.26 224.89-91.89Q226.80-93.51 228.89-94.37Q230.98-95.23 233.04-95.49Q235.11-95.75 236.87-95.75L236.87-95.75Q238.54-95.75 240.58-95.51Q242.62-95.27 244.67-94.46Q246.71-93.64 248.64-92.04Q250.58-90.44 252.07-87.69Q253.56-84.94 254.47-80.88Q255.37-76.81 255.37-71.06L255.37-71.06L255.37-44.47Q255.37-38.89 254.44-34.87Q253.52-30.85 252.03-28.05Q250.53-25.26 248.58-23.57Q246.62-21.88 244.58-20.94Q242.53-19.99 240.51-19.68Q238.49-19.38 236.87-19.38ZM236.87-27.95L236.87-27.95Q238.54-27.95 239.79-28.52Q241.04-29.09 241.85-30.49Q242.67-31.90 243.08-34.21Q243.50-36.51 243.50-40.03L243.50-40.03L243.50-74.18Q243.50-77.78 243.08-80.20Q242.67-82.61 241.85-84.09Q241.04-85.56 239.79-86.17Q238.54-86.79 236.87-86.79L236.87-86.79Q235.15-86.79 233.88-86.17Q232.60-85.56 231.77-84.09Q230.93-82.61 230.52-80.20Q230.10-77.78 230.10-74.18L230.10-74.18L230.10-40.03Q230.10-36.51 230.52-34.21Q230.93-31.90 231.77-30.49Q232.60-29.09 233.88-28.52Q235.15-27.95 236.87-27.95ZM273.08-20.03L273.08-86.13L260.99-86.13L260.99-95.09L296.50-95.09L296.50-86.13L284.46-86.13L284.46-20.03L273.08-20.03Z"/><path xml:space="preserve" font-family="Fjalla One" font-size="90" style="stroke: none; stroke-width: 0; stroke-dasharray: none; stroke-linecap: butt; stroke-dashoffset: 0; stroke-linejoin: miter; stroke-miterlimit: 4; is-custom-font: none; font-file-url: none; fill: rgb(40,51,80); fill-rule: nonzero; opacity: 1; white-space: pre;" d="M-182.75 77.24L-182.75 77.24Q-184.55 77.24-186.66 76.95Q-188.77 76.67-190.83 75.75Q-192.90 74.82-194.81 73.13Q-196.72 71.44-198.19 68.67Q-199.67 65.90-200.54 61.84Q-201.42 57.77-201.42 52.15L-201.42 52.15L-201.42 25.56Q-201.42 19.89-200.52 15.87Q-199.62 11.85-198.13 9.10Q-196.63 6.36-194.72 4.73Q-192.81 3.10-190.72 2.25Q-188.64 1.39-186.57 1.13Q-184.50 0.86-182.75 0.86L-182.75 0.86Q-181.08 0.86-179.03 1.10Q-176.99 1.35-174.95 2.16Q-172.90 2.97-170.97 4.58Q-169.04 6.18-167.54 8.93Q-166.05 11.67-165.15 15.74Q-164.25 19.80-164.25 25.56L-164.25 25.56L-164.25 52.15Q-164.25 57.73-165.17 61.75Q-166.09 65.77-167.59 68.56Q-169.08 71.35-171.04 73.04Q-172.99 74.73-175.03 75.68Q-177.08 76.62-179.10 76.93Q-181.12 77.24-182.75 77.24ZM-182.75 68.67L-182.75 68.67Q-181.08 68.67-179.82 68.10Q-178.57 67.53-177.76 66.12Q-176.95 64.71-176.53 62.41Q-176.11 60.10-176.11 56.58L-176.11 56.58L-176.11 22.44Q-176.11 18.84-176.53 16.42Q-176.95 14.00-177.76 12.53Q-178.57 11.06-179.82 10.44Q-181.08 9.83-182.75 9.83L-182.75 9.83Q-184.46 9.83-185.73 10.44Q-187.01 11.06-187.84 12.53Q-188.68 14.00-189.10 16.42Q-189.51 18.84-189.51 22.44L-189.51 22.44L-189.51 56.58Q-189.51 60.10-189.10 62.41Q-188.68 64.71-187.84 66.12Q-187.01 67.53-185.73 68.10Q-184.46 68.67-182.75 68.67ZM-153.48 76.58L-153.48 1.52L-124.78 1.52L-124.78 10.49L-142.10 10.49L-142.10 32.94L-128.52 32.94L-128.52 41.91L-142.10 41.91L-142.10 76.58L-153.48 76.58ZM-90.99 76.58L-90.99 10.49L-103.07 10.49L-103.07 1.52L-67.57 1.52L-67.57 10.49L-79.61 10.49L-79.61 76.58L-90.99 76.58ZM-59.88 76.58L-59.88 1.52L-48.49 1.52L-48.49 32.94L-35.00 32.94L-35.00 1.52L-23.62 1.52L-23.62 76.58L-35.00 76.58L-35.00 41.91L-48.49 41.91L-48.49 76.58L-59.88 76.58ZM-10.70 76.58L-10.70 1.52L17.12 1.52L17.12 10.49L0.68 10.49L0.68 32.94L13.38 32.94L13.38 41.91L0.68 41.91L0.68 67.62L17.56 67.62L17.56 76.58L-10.70 76.58ZM53.94 76.58L53.94 51.58L38.83 1.52L50.30 1.52L59.48 37.42L60.01 37.42L69.10 1.52L80.53 1.52L65.32 51.58L65.32 76.58L53.94 76.58ZM87.17 76.58L87.17 1.52L114.98 1.52L114.98 10.49L98.55 10.49L98.55 32.94L111.25 32.94L111.25 41.91L98.55 41.91L98.55 67.62L115.42 67.62L115.42 76.58L87.17 76.58ZM118.06 76.58L131.90 1.52L145.00 1.52L158.88 76.58L147.37 76.58L145.31 63.13L131.59 63.13L129.62 76.58L118.06 76.58ZM132.91 54.56L143.99 54.56L138.71 17.17L138.23 17.17L132.91 54.56ZM166.14 76.58L166.14 1.52L178.48 1.52Q180.59 1.52 183.12 1.70Q185.65 1.87 188.17 2.55Q190.70 3.24 193.05 4.60Q195.40 5.96 197.23 8.33Q199.05 10.71 200.15 14.29Q201.25 17.87 201.25 22.97L201.25 22.97L201.25 24.86Q201.25 33.43 198.79 38.81Q196.33 44.19 191.54 46.57L191.54 46.57L203.58 76.58L191.54 76.58L181.56 48.50L177.30 48.50L177.30 76.58L166.14 76.58ZM177.30 40.28L179.01 40.28Q182.00 40.28 184.06 39.62Q186.13 38.96 187.40 37.40Q188.68 35.84 189.25 33.27Q189.82 30.70 189.82 26.92L189.82 26.92L189.82 20.99Q189.82 18.09 189.29 15.98Q188.77 13.87 187.51 12.51Q186.26 11.15 184.20 10.49Q182.13 9.83 179.01 9.83L179.01 9.83L177.30 9.83L177.30 40.28Z"/></g>
<g transform="matrix(1 0 0 1 500.3259 1005.8896)" style="" id="899998">
		
<path xml:space="preserve" font-family="Fjalla One" font-size="22" style="stroke: none; stroke-width: 0; stroke-dasharray: none; stroke-linecap: butt; stroke-dashoffset: 0; stroke-linejoin: miter; stroke-miterlimit: 4; is-custom-font: none; font-file-url: none; fill: rgb(0,0,0); fill-rule: nonzero; opacity: 1; white-space: pre;" d="M-97.90 6.91L-100.34-7.88L-97.75-7.88L-96.69 0.13L-96.43 3.13L-96.34 3.13L-96.02 0.13L-94.60-7.88L-92.31-7.88L-90.85 0.13L-90.46 3.13L-90.37 3.13L-90.19 0.13L-89.25-7.88L-86.72-7.88L-89.11 6.91L-91.62 6.91L-93.15-1.32L-93.50-3.58L-93.58-3.58L-93.89-1.32L-95.29 6.91L-97.90 6.91Z"/><path xml:space="preserve" font-family="Fjalla One" font-size="22" style="stroke: none; stroke-width: 0; stroke-dasharray: none; stroke-linecap: butt; stroke-dashoffset: 0; stroke-linejoin: miter; stroke-miterlimit: 4; is-custom-font: none; font-file-url: none; fill: rgb(0,0,0); fill-rule: nonzero; opacity: 1; white-space: pre;" d="M-83.31 6.91L-85.75-7.88L-83.16-7.88L-82.09 0.13L-81.84 3.13L-81.75 3.13L-81.43 0.13L-80.01-7.88L-77.72-7.88L-76.26 0.13L-75.86 3.13L-75.78 3.13L-75.59 0.13L-74.66-7.88L-72.12-7.88L-74.52 6.91L-77.02 6.91L-78.56-1.32L-78.90-3.58L-78.99-3.58L-79.30-1.32L-80.70 6.91L-83.31 6.91Z"/><path xml:space="preserve" font-family="Fjalla One" font-size="22" style="stroke: none; stroke-width: 0; stroke-dasharray: none; stroke-linecap: butt; stroke-dashoffset: 0; stroke-linejoin: miter; stroke-miterlimit: 4; is-custom-font: none; font-file-url: none; fill: rgb(0,0,0); fill-rule: nonzero; opacity: 1; white-space: pre;" d="M-68.71 6.91L-71.15-7.88L-68.56-7.88L-67.50 0.13L-67.24 3.13L-67.16 3.13L-66.83 0.13L-65.42-7.88L-63.13-7.88L-61.67 0.13L-61.27 3.13L-61.18 3.13L-61.00 0.13L-60.07-7.88L-57.53-7.88L-59.93 6.91L-62.43 6.91L-63.97-1.32L-64.31-3.58L-64.40-3.58L-64.71-1.32L-66.10 6.91L-68.71 6.91Z"/><path xml:space="preserve" font-family="Fjalla One" font-size="22" style="stroke: none; stroke-width: 0; stroke-dasharray: none; stroke-linecap: butt; stroke-dashoffset: 0; stroke-linejoin: miter; stroke-miterlimit: 4; is-custom-font: none; font-file-url: none; fill: rgb(0,0,0); fill-rule: nonzero; opacity: 1; white-space: pre;" d="M-55.96 4.99L-55.96 4.99Q-55.96 3.85-55.51 3.36Q-55.06 2.86-54.28 2.86L-54.28 2.86Q-53.48 2.86-53.04 3.39Q-52.60 3.91-52.60 4.99L-52.60 4.99Q-52.60 5.98-53.04 6.52Q-53.49 7.06-54.29 7.06L-54.29 7.06Q-55.06 7.06-55.51 6.54Q-55.96 6.01-55.96 4.99Z"/><path xml:space="preserve" font-family="Fjalla One" font-size="22" style="stroke: none; stroke-width: 0; stroke-dasharray: none; stroke-linecap: butt; stroke-dashoffset: 0; stroke-linejoin: miter; stroke-miterlimit: 4; is-custom-font: none; font-file-url: none; fill: rgb(0,0,0); fill-rule: nonzero; opacity: 1; white-space: pre;" d="M-50.52 3.82L-50.52 3.82Q-50.52 3.33-50.43 2.88Q-50.33 2.43-50.25 2.16L-50.25 2.16L-48.34 2.16Q-48.34 2.97-48.26 3.51Q-48.18 4.05-47.99 4.38Q-47.81 4.70-47.50 4.84Q-47.20 4.98-46.76 4.98L-46.76 4.98Q-46.14 4.98-45.87 4.63Q-45.59 4.29-45.59 3.84L-45.59 3.84Q-45.59 3.60-45.65 3.39Q-45.72 3.17-45.83 2.95Q-45.95 2.73-46.12 2.51Q-46.30 2.28-46.51 2.01L-46.51 2.01L-48.50-0.33Q-48.88-0.81-49.24-1.31Q-49.60-1.81-49.88-2.34Q-50.15-2.88-50.32-3.46Q-50.48-4.04-50.48-4.68L-50.48-4.68Q-50.48-5.54-50.19-6.17Q-49.89-6.81-49.39-7.23Q-48.89-7.64-48.24-7.85Q-47.58-8.05-46.85-8.05L-46.85-8.05Q-46.05-8.05-45.40-7.86Q-44.76-7.67-44.30-7.28Q-43.84-6.89-43.59-6.32Q-43.34-5.74-43.34-4.98L-43.34-4.98Q-43.34-4.46-43.43-3.98Q-43.52-3.50-43.61-3.15L-43.61-3.15L-45.49-3.15Q-45.50-3.88-45.55-4.43Q-45.61-4.98-45.75-5.34Q-45.90-5.70-46.15-5.88Q-46.40-6.07-46.81-6.07L-46.81-6.07Q-47.17-6.07-47.40-5.95Q-47.64-5.84-47.78-5.66Q-47.93-5.47-47.99-5.25Q-48.05-5.02-48.05-4.79L-48.05-4.79Q-48.05-4.27-47.80-3.83Q-47.55-3.39-47.14-2.88L-47.14-2.88L-44.97-0.33Q-44.74-0.04-44.43 0.37Q-44.11 0.79-43.84 1.29Q-43.56 1.79-43.36 2.38Q-43.17 2.97-43.17 3.61L-43.17 3.61Q-43.17 4.40-43.42 5.04Q-43.66 5.68-44.15 6.13Q-44.63 6.58-45.33 6.83Q-46.04 7.07-46.94 7.07L-46.94 7.07Q-47.68 7.07-48.34 6.91Q-48.99 6.74-49.47 6.36Q-49.96 5.98-50.24 5.35Q-50.52 4.73-50.52 3.82Z"/><path xml:space="preserve" font-family="Fjalla One" font-size="22" style="stroke: none; stroke-width: 0; stroke-dasharray: none; stroke-linecap: butt; stroke-dashoffset: 0; stroke-linejoin: miter; stroke-miterlimit: 4; is-custom-font: none; font-file-url: none; fill: rgb(0,0,0); fill-rule: nonzero; opacity: 1; white-space: pre;" d="M-40.81 6.91L-40.81-7.88L-38.71-7.88L-38.47-6.30L-38.47-6.29Q-38.15-6.80-37.78-7.13Q-37.42-7.47-37.02-7.68Q-36.63-7.88-36.22-7.97Q-35.81-8.05-35.40-8.05L-35.40-8.05Q-34.53-8.05-33.93-7.63Q-33.32-7.21-33.01-6.38L-33.01-6.38Q-32.69-6.86-32.33-7.18Q-31.97-7.50-31.58-7.70Q-31.20-7.89-30.80-7.97Q-30.40-8.05-29.99-8.05L-29.99-8.05Q-28.71-8.05-28.00-7.15Q-27.30-6.24-27.30-4.42L-27.30-4.42L-27.30 6.91L-30.02 6.91L-30.02-4.33Q-30.02-4.81-30.09-5.14Q-30.17-5.47-30.32-5.68Q-30.47-5.88-30.70-5.97Q-30.94-6.07-31.27-6.07L-31.27-6.07Q-31.65-6.07-32.02-5.79Q-32.40-5.52-32.71-5.03L-32.71-5.03Q-32.70-4.94-32.70-4.84Q-32.70-4.74-32.70-4.65L-32.70-4.65L-32.70 6.91L-35.42 6.91L-35.42-4.33Q-35.42-4.81-35.49-5.14Q-35.57-5.47-35.72-5.68Q-35.87-5.88-36.11-5.97Q-36.34-6.07-36.68-6.07L-36.68-6.07Q-37.04-6.07-37.42-5.80Q-37.79-5.53-38.09-5.06L-38.09-5.06L-38.09 6.91L-40.81 6.91Z"/><path xml:space="preserve" font-family="Fjalla One" font-size="22" style="stroke: none; stroke-width: 0; stroke-dasharray: none; stroke-linecap: butt; stroke-dashoffset: 0; stroke-linejoin: miter; stroke-miterlimit: 4; is-custom-font: none; font-file-url: none; fill: rgb(0,0,0); fill-rule: nonzero; opacity: 1; white-space: pre;" d="M-22.22 7.07L-22.22 7.07Q-22.91 7.07-23.44 6.80Q-23.97 6.52-24.34 6.05Q-24.70 5.58-24.89 4.93Q-25.08 4.28-25.08 3.52L-25.08 3.52Q-25.08 2.60-24.85 1.89Q-24.63 1.19-24.19 0.62Q-23.76 0.05-23.11-0.42Q-22.47-0.89-21.62-1.31L-21.62-1.31Q-21.21-1.51-20.70-1.72Q-20.19-1.93-19.79-2.08L-19.79-2.08L-19.79-4.04Q-19.79-4.46-19.83-4.84Q-19.86-5.21-19.98-5.48Q-20.11-5.75-20.35-5.91Q-20.60-6.07-21.03-6.07L-21.03-6.07Q-21.32-6.07-21.59-5.96Q-21.87-5.85-22.08-5.59Q-22.29-5.33-22.41-4.91Q-22.53-4.48-22.53-3.84L-22.53-3.84L-22.53-3.20L-24.61-3.20Q-24.70-3.62-24.75-3.97Q-24.80-4.31-24.80-4.66L-24.80-4.66Q-24.80-5.49-24.52-6.12Q-24.23-6.75-23.72-7.18Q-23.21-7.61-22.50-7.83Q-21.79-8.05-20.94-8.05L-20.94-8.05Q-19.84-8.05-19.11-7.81Q-18.38-7.57-17.94-7.09Q-17.51-6.60-17.33-5.87Q-17.15-5.14-17.15-4.16L-17.15-4.16L-17.15 6.91L-19.17 6.91L-19.36 5.64Q-19.81 6.28-20.54 6.67Q-21.28 7.07-22.22 7.07ZM-21.02 4.98L-21.02 4.98Q-20.68 4.98-20.35 4.80Q-20.02 4.62-19.79 4.37L-19.79 4.37L-19.79-0.26Q-20.01-0.18-20.28-0.06Q-20.55 0.06-20.86 0.25L-20.86 0.25Q-21.15 0.43-21.43 0.69Q-21.71 0.95-21.93 1.30Q-22.15 1.66-22.28 2.10Q-22.42 2.55-22.42 3.10L-22.42 3.10Q-22.42 3.95-22.08 4.46Q-21.75 4.98-21.02 4.98Z"/><path xml:space="preserve" font-family="Fjalla One" font-size="22" style="stroke: none; stroke-width: 0; stroke-dasharray: none; stroke-linecap: butt; stroke-dashoffset: 0; stroke-linejoin: miter; stroke-miterlimit: 4; is-custom-font: none; font-file-url: none; fill: rgb(0,0,0); fill-rule: nonzero; opacity: 1; white-space: pre;" d="M-14.12 6.91L-14.12-7.88L-12.13-7.88L-11.89-6.38Q-11.44-7.21-10.86-7.63Q-10.27-8.05-9.66-8.05L-9.66-8.05Q-8.49-8.05-7.93-7.33Q-7.37-6.61-7.37-5.17L-7.37-5.17Q-7.37-4.99-7.40-4.74Q-7.43-4.49-7.47-4.21Q-7.52-3.94-7.59-3.66Q-7.66-3.39-7.74-3.17L-7.74-3.17L-9.63-3.17L-9.63-4.54Q-9.63-4.99-9.69-5.28Q-9.75-5.57-9.84-5.75Q-9.94-5.93-10.07-6.00Q-10.20-6.07-10.35-6.07L-10.35-6.07Q-10.67-6.07-10.94-5.86Q-11.22-5.65-11.40-5.27L-11.40-5.27L-11.40 6.91L-14.12 6.91Z"/><path xml:space="preserve" font-family="Fjalla One" font-size="22" style="stroke: none; stroke-width: 0; stroke-dasharray: none; stroke-linecap: butt; stroke-dashoffset: 0; stroke-linejoin: miter; stroke-miterlimit: 4; is-custom-font: none; font-file-url: none; fill: rgb(0,0,0); fill-rule: nonzero; opacity: 1; white-space: pre;" d="M-5.12 3.23L-5.12-5.95L-6.27-5.95L-6.27-7.88L-4.88-7.88L-4.34-11.72L-2.40-11.72L-2.40-7.88L-0.04-7.88L-0.04-5.95L-2.40-5.95L-2.40 3.46Q-2.40 3.95-2.31 4.24Q-2.22 4.54-2.06 4.70Q-1.90 4.87-1.68 4.92Q-1.47 4.98-1.23 4.98L-1.23 4.98Q-0.84 4.98-0.53 4.88Q-0.22 4.78 0.06 4.61L0.06 4.61L0.06 6.12Q-0.18 6.41-0.45 6.59Q-0.73 6.77-1.02 6.88Q-1.31 7.00-1.61 7.04Q-1.91 7.08-2.20 7.08L-2.20 7.08Q-2.77 7.08-3.30 6.93Q-3.82 6.78-4.23 6.36Q-4.64 5.93-4.88 5.18Q-5.12 4.43-5.12 3.23L-5.12 3.23Z"/><path xml:space="preserve" font-family="Fjalla One" font-size="22" style="stroke: none; stroke-width: 0; stroke-dasharray: none; stroke-linecap: butt; stroke-dashoffset: 0; stroke-linejoin: miter; stroke-miterlimit: 4; is-custom-font: none; font-file-url: none; fill: rgb(0,0,0); fill-rule: nonzero; opacity: 1; white-space: pre;" d="M2.04 6.91L2.04-7.88L4.14-7.88L4.38-6.30L4.38-6.29Q4.70-6.80 5.07-7.13Q5.43-7.47 5.82-7.68Q6.22-7.88 6.63-7.97Q7.04-8.05 7.45-8.05L7.45-8.05Q8.32-8.05 8.92-7.63Q9.53-7.21 9.84-6.38L9.84-6.38Q10.16-6.86 10.52-7.18Q10.88-7.50 11.27-7.70Q11.65-7.89 12.05-7.97Q12.45-8.05 12.86-8.05L12.86-8.05Q14.14-8.05 14.85-7.15Q15.55-6.24 15.55-4.42L15.55-4.42L15.55 6.91L12.83 6.91L12.83-4.33Q12.83-4.81 12.76-5.14Q12.68-5.47 12.53-5.68Q12.38-5.88 12.15-5.97Q11.91-6.07 11.58-6.07L11.58-6.07Q11.20-6.07 10.83-5.79Q10.45-5.52 10.14-5.03L10.14-5.03Q10.15-4.94 10.15-4.84Q10.15-4.74 10.15-4.65L10.15-4.65L10.15 6.91L7.43 6.91L7.43-4.33Q7.43-4.81 7.36-5.14Q7.28-5.47 7.13-5.68Q6.98-5.88 6.74-5.97Q6.51-6.07 6.17-6.07L6.17-6.07Q5.81-6.07 5.43-5.80Q5.06-5.53 4.76-5.06L4.76-5.06L4.76 6.91L2.04 6.91Z"/><path xml:space="preserve" font-family="Fjalla One" font-size="22" style="stroke: none; stroke-width: 0; stroke-dasharray: none; stroke-linecap: butt; stroke-dashoffset: 0; stroke-linejoin: miter; stroke-miterlimit: 4; is-custom-font: none; font-file-url: none; fill: rgb(0,0,0); fill-rule: nonzero; opacity: 1; white-space: pre;" d="M22.31 7.07L22.31 7.07Q21.84 7.07 21.35 7.00Q20.86 6.92 20.41 6.69Q19.95 6.45 19.55 6.01Q19.14 5.57 18.84 4.85Q18.54 4.13 18.37 3.08Q18.20 2.02 18.20 0.56L18.20 0.56L18.20-1.76Q18.20-3.20 18.38-4.22Q18.55-5.25 18.86-5.95Q19.17-6.65 19.57-7.06Q19.98-7.47 20.44-7.69Q20.90-7.91 21.38-7.98Q21.86-8.05 22.32-8.05L22.32-8.05Q22.77-8.05 23.24-7.99Q23.71-7.92 24.16-7.71Q24.61-7.50 25.02-7.09Q25.42-6.68 25.72-5.98Q26.03-5.28 26.21-4.24Q26.39-3.21 26.39-1.76L26.39-1.76L26.39 0.56Q26.39 2.00 26.20 3.04Q26.02 4.09 25.71 4.81Q25.40 5.53 24.99 5.97Q24.58 6.42 24.13 6.66Q23.68 6.91 23.21 6.99Q22.74 7.07 22.31 7.07ZM22.34 4.98L22.34 4.98Q22.70 4.98 22.95 4.79Q23.21 4.60 23.36 4.17Q23.52 3.74 23.59 3.04Q23.66 2.33 23.66 1.29L23.66 1.29L23.66-2.35Q23.66-3.39 23.59-4.10Q23.52-4.81 23.36-5.24Q23.21-5.68 22.95-5.87Q22.70-6.07 22.34-6.07L22.34-6.07Q21.95-6.07 21.69-5.87Q21.42-5.68 21.25-5.24Q21.08-4.81 21.00-4.10Q20.93-3.39 20.93-2.35L20.93-2.35L20.93 1.29Q20.93 2.33 21.00 3.04Q21.08 3.74 21.25 4.17Q21.42 4.60 21.69 4.79Q21.95 4.98 22.34 4.98Z"/><path xml:space="preserve" font-family="Fjalla One" font-size="22" style="stroke: none; stroke-width: 0; stroke-dasharray: none; stroke-linecap: butt; stroke-dashoffset: 0; stroke-linejoin: miter; stroke-miterlimit: 4; is-custom-font: none; font-file-url: none; fill: rgb(0,0,0); fill-rule: nonzero; opacity: 1; white-space: pre;" d="M29.01 6.91L29.01-7.88L31.11-7.88L31.35-6.30L31.35-6.29Q31.68-6.80 32.05-7.13Q32.42-7.47 32.81-7.68Q33.21-7.88 33.63-7.97Q34.04-8.05 34.45-8.05L34.45-8.05Q35.75-8.05 36.45-7.15Q37.15-6.24 37.15-4.42L37.15-4.42L37.15 6.91L34.44 6.91L34.44-4.33Q34.44-5.30 34.14-5.68Q33.83-6.07 33.25-6.07L33.25-6.07Q32.85-6.07 32.44-5.80Q32.04-5.53 31.73-5.06L31.73-5.06L31.73 6.91L29.01 6.91Z"/><path xml:space="preserve" font-family="Fjalla One" font-size="22" style="stroke: none; stroke-width: 0; stroke-dasharray: none; stroke-linecap: butt; stroke-dashoffset: 0; stroke-linejoin: miter; stroke-miterlimit: 4; is-custom-font: none; font-file-url: none; fill: rgb(0,0,0); fill-rule: nonzero; opacity: 1; white-space: pre;" d="M43.75 7.07L43.75 7.07Q42.80 7.07 42.06 6.72Q41.33 6.36 40.82 5.61Q40.32 4.86 40.06 3.68Q39.80 2.51 39.80 0.85L39.80 0.85L39.80-1.94Q39.80-3.35 40.01-4.35Q40.22-5.36 40.56-6.04Q40.90-6.72 41.34-7.12Q41.79-7.52 42.26-7.73Q42.73-7.93 43.20-7.99Q43.67-8.05 44.07-8.05L44.07-8.05Q44.80-8.05 45.47-7.83Q46.15-7.61 46.67-7.08Q47.18-6.55 47.49-5.66Q47.79-4.77 47.79-3.43L47.79-3.43Q47.79-2.98 47.77-2.52Q47.74-2.06 47.70-1.61Q47.65-1.17 47.58-0.75Q47.51-0.33 47.44 0.03L47.44 0.03L42.53 0.03L42.53 1.53Q42.53 2.50 42.61 3.16Q42.68 3.82 42.86 4.22Q43.04 4.62 43.34 4.80Q43.65 4.98 44.11 4.98L44.11 4.98Q44.36 4.98 44.59 4.88Q44.83 4.77 45.01 4.54Q45.18 4.30 45.29 3.91Q45.40 3.52 45.40 2.94L45.40 2.94L45.40 2.47L47.67 2.47L47.67 3.04Q47.67 5.15 46.66 6.11Q45.66 7.07 43.75 7.07ZM42.53-1.80L45.26-1.80Q45.27-1.92 45.28-2.12Q45.29-2.32 45.30-2.53Q45.30-2.75 45.30-2.96Q45.30-3.17 45.30-3.32L45.30-3.32Q45.30-4.78 44.96-5.42Q44.61-6.07 43.94-6.07L43.94-6.07Q43.58-6.07 43.31-5.90Q43.05-5.73 42.87-5.34Q42.70-4.95 42.62-4.30Q42.53-3.66 42.53-2.70L42.53-2.70L42.53-1.80Z"/><path xml:space="preserve" font-family="Fjalla One" font-size="22" style="stroke: none; stroke-width: 0; stroke-dasharray: none; stroke-linecap: butt; stroke-dashoffset: 0; stroke-linejoin: miter; stroke-miterlimit: 4; is-custom-font: none; font-file-url: none; fill: rgb(0,0,0); fill-rule: nonzero; opacity: 1; white-space: pre;" d="M49.75 9.76L49.75 9.76Q50.37 9.84 50.88 9.72Q51.40 9.60 51.77 9.25Q52.14 8.91 52.36 8.35Q52.58 7.78 52.61 7.00L52.61 7.00L49.11-7.88L51.87-7.88L53.43 0.30L53.88 3.13L53.97 3.13L54.28 0.30L55.53-7.88L58.21-7.88L55.09 7.46Q54.89 8.52 54.57 9.32Q54.26 10.11 53.79 10.64Q53.32 11.17 52.68 11.43Q52.03 11.69 51.17 11.69L51.17 11.69Q50.47 11.69 49.74 11.42L49.74 11.42L49.75 9.76Z"/><path xml:space="preserve" font-family="Fjalla One" font-size="22" style="stroke: none; stroke-width: 0; stroke-dasharray: none; stroke-linecap: butt; stroke-dashoffset: 0; stroke-linejoin: miter; stroke-miterlimit: 4; is-custom-font: none; font-file-url: none; fill: rgb(0,0,0); fill-rule: nonzero; opacity: 1; white-space: pre;" d="M59.76 4.99L59.76 4.99Q59.76 3.85 60.21 3.36Q60.66 2.86 61.44 2.86L61.44 2.86Q62.24 2.86 62.68 3.39Q63.12 3.91 63.12 4.99L63.12 4.99Q63.12 5.98 62.68 6.52Q62.23 7.06 61.43 7.06L61.43 7.06Q60.66 7.06 60.21 6.54Q59.76 6.01 59.76 4.99Z"/><path xml:space="preserve" font-family="Fjalla One" font-size="22" style="stroke: none; stroke-width: 0; stroke-dasharray: none; stroke-linecap: butt; stroke-dashoffset: 0; stroke-linejoin: miter; stroke-miterlimit: 4; is-custom-font: none; font-file-url: none; fill: rgb(0,0,0); fill-rule: nonzero; opacity: 1; white-space: pre;" d="M69.23 7.07L69.23 7.07Q67.36 7.07 66.38 5.54Q65.39 4.00 65.39 0.85L65.39 0.85L65.39-1.94Q65.39-3.35 65.60-4.35Q65.80-5.36 66.14-6.04Q66.48-6.72 66.91-7.12Q67.35-7.52 67.81-7.73Q68.27-7.93 68.72-7.99Q69.18-8.05 69.55-8.05L69.55-8.05Q70.30-8.05 70.93-7.85Q71.55-7.66 72.00-7.25Q72.45-6.85 72.70-6.24Q72.95-5.63 72.95-4.80L72.95-4.80Q72.95-4.28 72.90-3.91Q72.85-3.54 72.76-3.20L72.76-3.20L70.59-3.20L70.59-3.69Q70.59-4.81 70.33-5.44Q70.07-6.07 69.47-6.07L69.47-6.07Q69.13-6.07 68.89-5.91Q68.64-5.75 68.47-5.38Q68.31-5.00 68.22-4.37Q68.14-3.73 68.14-2.78L68.14-2.78L68.14 1.42Q68.14 2.39 68.21 3.07Q68.27 3.74 68.43 4.17Q68.60 4.59 68.86 4.78Q69.13 4.98 69.53 4.98L69.53 4.98Q69.73 4.98 69.93 4.88Q70.12 4.77 70.27 4.54Q70.41 4.30 70.50 3.91Q70.59 3.52 70.59 2.94L70.59 2.94L70.59 2.47L72.94 2.47L72.94 3.04Q72.94 5.15 72.01 6.11Q71.08 7.07 69.23 7.07Z"/><path xml:space="preserve" font-family="Fjalla One" font-size="22" style="stroke: none; stroke-width: 0; stroke-dasharray: none; stroke-linecap: butt; stroke-dashoffset: 0; stroke-linejoin: miter; stroke-miterlimit: 4; is-custom-font: none; font-file-url: none; fill: rgb(0,0,0); fill-rule: nonzero; opacity: 1; white-space: pre;" d="M79.09 7.07L79.09 7.07Q78.61 7.07 78.12 7.00Q77.63 6.92 77.18 6.69Q76.72 6.45 76.32 6.01Q75.92 5.57 75.62 4.85Q75.31 4.13 75.14 3.08Q74.97 2.02 74.97 0.56L74.97 0.56L74.97-1.76Q74.97-3.20 75.15-4.22Q75.33-5.25 75.63-5.95Q75.94-6.65 76.35-7.06Q76.75-7.47 77.21-7.69Q77.67-7.91 78.15-7.98Q78.63-8.05 79.10-8.05L79.10-8.05Q79.54-8.05 80.01-7.99Q80.48-7.92 80.93-7.71Q81.38-7.50 81.79-7.09Q82.19-6.68 82.50-5.98Q82.80-5.28 82.98-4.24Q83.16-3.21 83.16-1.76L83.16-1.76L83.16 0.56Q83.16 2.00 82.97 3.04Q82.79 4.09 82.48 4.81Q82.17 5.53 81.76 5.97Q81.35 6.42 80.90 6.66Q80.45 6.91 79.98 6.99Q79.51 7.07 79.09 7.07ZM79.11 4.98L79.11 4.98Q79.47 4.98 79.72 4.79Q79.98 4.60 80.13 4.17Q80.29 3.74 80.36 3.04Q80.43 2.33 80.43 1.29L80.43 1.29L80.43-2.35Q80.43-3.39 80.36-4.10Q80.29-4.81 80.13-5.24Q79.98-5.68 79.72-5.87Q79.47-6.07 79.11-6.07L79.11-6.07Q78.72-6.07 78.46-5.87Q78.19-5.68 78.02-5.24Q77.85-4.81 77.77-4.10Q77.70-3.39 77.70-2.35L77.70-2.35L77.70 1.29Q77.70 2.33 77.77 3.04Q77.85 3.74 78.02 4.17Q78.19 4.60 78.46 4.79Q78.72 4.98 79.11 4.98Z"/><path xml:space="preserve" font-family="Fjalla One" font-size="22" style="stroke: none; stroke-width: 0; stroke-dasharray: none; stroke-linecap: butt; stroke-dashoffset: 0; stroke-linejoin: miter; stroke-miterlimit: 4; is-custom-font: none; font-file-url: none; fill: rgb(0,0,0); fill-rule: nonzero; opacity: 1; white-space: pre;" d="M85.78 6.91L85.78-7.88L87.89-7.88L88.12-6.30L88.12-6.29Q88.45-6.80 88.81-7.13Q89.18-7.47 89.57-7.68Q89.96-7.88 90.37-7.97Q90.79-8.05 91.20-8.05L91.20-8.05Q92.07-8.05 92.67-7.63Q93.27-7.21 93.58-6.38L93.58-6.38Q93.90-6.86 94.26-7.18Q94.62-7.50 95.01-7.70Q95.40-7.89 95.79-7.97Q96.19-8.05 96.60-8.05L96.60-8.05Q97.89-8.05 98.59-7.15Q99.30-6.24 99.30-4.42L99.30-4.42L99.30 6.91L96.58 6.91L96.58-4.33Q96.58-4.81 96.50-5.14Q96.43-5.47 96.28-5.68Q96.13-5.88 95.89-5.97Q95.65-6.07 95.32-6.07L95.32-6.07Q94.95-6.07 94.57-5.79Q94.19-5.52 93.88-5.03L93.88-5.03Q93.89-4.94 93.89-4.84Q93.89-4.74 93.89-4.65L93.89-4.65L93.89 6.91L91.18 6.91L91.18-4.33Q91.18-4.81 91.10-5.14Q91.02-5.47 90.87-5.68Q90.72-5.88 90.49-5.97Q90.25-6.07 89.92-6.07L89.92-6.07Q89.55-6.07 89.18-5.80Q88.80-5.53 88.50-5.06L88.50-5.06L88.50 6.91L85.78 6.91Z"/></g>
<g transform="matrix(1 0 0 1 500 683.7102)" style="" id="524267">
		
<path xml:space="preserve" font-family="Fjalla One" font-size="92" style="stroke: none; stroke-width: 0; stroke-dasharray: none; stroke-linecap: butt; stroke-dashoffset: 0; stroke-linejoin: miter; stroke-miterlimit: 4; is-custom-font: none; font-file-url: none; fill: rgb(40,51,80); fill-rule: nonzero; opacity: 1; white-space: pre;" d="M-85.78 28.90L-85.78 22.07L-68.84-10.54Q-66.51-14.99-65.05-18.31Q-63.59-21.64-62.76-24.13Q-61.92-26.62-61.61-28.46Q-61.30-30.31-61.30-31.79L-61.30-31.79Q-61.30-34.12-61.72-35.72Q-62.15-37.31-62.98-38.28Q-63.81-39.25-65.05-39.65Q-66.28-40.05-67.90-40.05L-67.90-40.05Q-71.85-40.05-73.63-36.80Q-75.40-33.54-75.40-27.43L-75.40-27.43L-75.40-23.07L-84.39-23.07Q-84.88-25.59-85.24-27.68Q-85.60-29.77-85.60-32.24L-85.60-32.24Q-85.60-35.16-84.59-38.06Q-83.58-40.95-81.42-43.29Q-79.26-45.62-75.92-47.06Q-72.57-48.50-67.90-48.50L-67.90-48.50Q-62.87-48.50-59.30-47.33Q-55.73-46.16-53.43-43.92Q-51.14-41.67-50.09-38.44Q-49.03-35.20-49.03-31.11L-49.03-31.11Q-49.03-28.78-49.46-26.51Q-49.89-24.24-50.87-21.66Q-51.86-19.08-53.43-16.02Q-55.01-12.97-57.30-9.01L-57.30-9.01L-72.44 19.74L-50.02 19.74L-50.02 28.90L-85.78 28.90ZM-41.08 6.53L-41.08-25.90Q-41.08-30.94-40.16-34.60Q-39.24-38.26-37.73-40.75Q-36.23-43.24-34.25-44.77Q-32.28-46.30-30.19-47.13Q-28.10-47.96-26.01-48.23Q-23.92-48.50-22.17-48.50L-22.17-48.50Q-20.51-48.50-18.46-48.25Q-16.42-48.01-14.33-47.22Q-12.24-46.43-10.29-44.93Q-8.33-43.42-6.83-40.91Q-5.32-38.39-4.40-34.71Q-3.48-31.02-3.48-25.90L-3.48-25.90L-3.48 6.53Q-3.48 11.56-4.40 15.22Q-5.32 18.88-6.85 21.44Q-8.38 24.00-10.35 25.60Q-12.33 27.19-14.40 28.07Q-16.46 28.95-18.51 29.26Q-20.55 29.57-22.17 29.57L-22.17 29.57Q-23.97 29.57-26.08 29.26Q-28.19 28.95-30.30 28.07Q-32.41 27.19-34.37 25.62Q-36.32 24.05-37.80 21.49Q-39.28 18.93-40.18 15.24Q-41.08 11.56-41.08 6.53L-41.08 6.53ZM-29.18-30.13L-29.18 11.43Q-29.18 16.19-27.45 18.34Q-25.72 20.50-22.17 20.50L-22.17 20.50Q-18.71 20.50-17.00 18.34Q-15.30 16.19-15.30 11.43L-15.30 11.43L-15.30-30.13Q-15.30-35.16-17.00-37.45Q-18.71-39.74-22.17-39.74L-22.17-39.74Q-25.72-39.74-27.45-37.45Q-29.18-35.16-29.18-30.13L-29.18-30.13ZM5.82 28.90L5.82 22.07L22.75-10.54Q25.09-14.99 26.55-18.31Q28.01-21.64 28.84-24.13Q29.67-26.62 29.99-28.46Q30.30-30.31 30.30-31.79L30.30-31.79Q30.30-34.12 29.87-35.72Q29.45-37.31 28.62-38.28Q27.78-39.25 26.55-39.65Q25.31-40.05 23.70-40.05L23.70-40.05Q19.74-40.05 17.97-36.80Q16.19-33.54 16.19-27.43L16.19-27.43L16.19-23.07L7.21-23.07Q6.72-25.59 6.36-27.68Q6.00-29.77 6.00-32.24L6.00-32.24Q6.00-35.16 7.01-38.06Q8.02-40.95 10.17-43.29Q12.33-45.62 15.68-47.06Q19.02-48.50 23.70-48.50L23.70-48.50Q28.73-48.50 32.30-47.33Q35.87-46.16 38.16-43.92Q40.45-41.67 41.51-38.44Q42.56-35.20 42.56-31.11L42.56-31.11Q42.56-28.78 42.14-26.51Q41.71-24.24 40.72-21.66Q39.73-19.08 38.16-16.02Q36.59-12.97 34.30-9.01L34.30-9.01L19.16 19.74L41.58 19.74L41.58 28.90L5.82 28.90ZM50.38 28.90L50.38 22.07L67.32-10.54Q69.65-14.99 71.11-18.31Q72.57-21.64 73.40-24.13Q74.23-26.62 74.55-28.46Q74.86-30.31 74.86-31.79L74.86-31.79Q74.86-34.12 74.44-35.72Q74.01-37.31 73.18-38.28Q72.35-39.25 71.11-39.65Q69.88-40.05 68.26-40.05L68.26-40.05Q64.31-40.05 62.53-36.80Q60.76-33.54 60.76-27.43L60.76-27.43L60.76-23.07L51.77-23.07Q51.28-25.59 50.92-27.68Q50.56-29.77 50.56-32.24L50.56-32.24Q50.56-35.16 51.57-38.06Q52.58-40.95 54.74-43.29Q56.89-45.62 60.24-47.06Q63.59-48.50 68.26-48.50L68.26-48.50Q73.29-48.50 76.86-47.33Q80.43-46.16 82.72-43.92Q85.01-41.67 86.07-38.44Q87.13-35.20 87.13-31.11L87.13-31.11Q87.13-28.78 86.70-26.51Q86.27-24.24 85.28-21.66Q84.30-19.08 82.72-16.02Q81.15-12.97 78.86-9.01L78.86-9.01L63.72 19.74L86.14 19.74L86.14 28.90L50.38 28.90Z"/></g>
</svg>